<?xml version="1.0" encoding="UTF-8" standalone="no"?>
<svg
   id="Paleta"
   viewBox="0 0 1873.3226 176.25732"
   version="1.1"
   width="1873.3226"
   height="176.25732"
   xmlns="http://www.w3.org/2000/svg"
   xmlns:svg="http://www.w3.org/2000/svg">
  <defs
     id="defs4">
    <style
       id="style2">.cls-1{fill:none;}.cls-2{fill:#ede9e2;}.cls-3{fill:#ff791f;}.cls-4{fill:#3a3736;}</style>
  </defs>
  <path
     class="cls-3"
     d="m 32.532566,3.0400886 c 7.9,3.11 15.24,8.4000004 21.91,14.7600004 4.91,4.68 9.63,10.2 12.07,17.49 2.44,7.28 2.06,16.68 -2.29,22.23 -3.31,4.22 -8.18,5.49 -12.79,5.78 -12.1,0.77 -24.62,-4.29 -33.36,-15.28 -6.19,-7.78 -10.2300004,-18.61 -10.9100004,-29.84 -0.54,-8.8000004 0.31,-17.29000036 8.1100004,-18.05000036 5.76,-0.56 11.76,0.74 17.27,2.89999996 z"
     id="path6" />
  <path
     class="cls-3"
     d="m 118.40257,109.27009 c 2.44,-5.59 4.77,-11.290001 5.72,-17.310001 0.95,-6.02 0.41,-12.46 -2.62,-17.74 -4.11,-7.16 -12.64,-11.35 -20.87,-10.79 -8.240004,0.56 -15.900004,5.58 -20.240004,12.61 -4.33,7.03 -5.42,15.84 -3.55,23.88 1.93,8.260001 9.76,22.590001 17.58,26.760001 11.410004,6.08 20.340004,-9.09 23.970004,-17.4 z"
     id="path8" />
  <path
     class="cls-3"
     d="m 166.88257,3.0400886 c -7.9,3.11 -15.24,8.4000004 -21.91,14.7600004 -4.91,4.68 -9.63,10.2 -12.07,17.49 -2.44,7.28 -2.06,16.68 2.29,22.23 3.31,4.22 8.18,5.49 12.79,5.78 12.1,0.77 24.62,-4.29 33.36,-15.28 6.19,-7.78 10.23,-18.61 10.91,-29.84 0.54,-8.8000004 -0.31,-17.29000036 -8.11,-18.05000036 -5.76,-0.56 -11.76,0.74 -17.27,2.89999996 z"
     id="path10" />
  <path
     class="cls-3"
     d="m 176.24257,127.50009 c 8.74,2.68 17.04,8.18 21.02,16.86 3.98,8.68 2.47,20.79 -4.99,26.98 -5.14,4.26 -11.94,5.09 -18.27,4.89 -14.68,-0.47 -28.97,-5.73 -40.5,-14.9 -4.85,-3.85 -9.66,-9.65 -9.09,-16.82 0.55,-6.99 7.63,-10.66 12.94,-13.3 12.23,-6.07 26.31,-7.58 38.89,-3.72 z"
     id="path12" />
  <path
     class="cls-3"
     d="m 23.162566,127.50009 c -8.74,2.68 -17.0400004,8.18 -21.0200004,16.86 -3.98,8.68 -2.47,20.79 4.99,26.98 5.1400004,4.26 11.9400004,5.09 18.2700004,4.89 14.68,-0.47 28.97,-5.73 40.5,-14.9 4.85,-3.85 9.66,-9.65 9.09,-16.82 -0.55,-6.99 -7.63,-10.66 -12.94,-13.3 -12.23,-6.07 -26.31,-7.58 -38.89,-3.72 z"
     id="path14" />
  <path
     class="cls-4"
     d="M 496.01257,10.570089 V 165.69009 c 0,5.38 -4.36,9.74 -9.74,9.74 h -58.08 c -5.38,0 -9.74,-4.36 -9.74,-9.74 v -15.44 c 0,-5.38 -4.36,-9.74 -9.74,-9.74 v 0 c -5.38,0 -9.74,4.36 -9.74,9.74 v 15.44 c 0,5.38 -4.36,9.74 -9.74,9.74 h -58.08 c -5.38,0 -9.74,-4.36 -9.74,-9.74 V 10.570089 c 0,-5.3800004 4.36,-9.74000036 9.74,-9.74000036 h 58.08 c 5.38,0 9.74,4.35999996 9.74,9.74000036 v 67.82 c 0,5.38 4.36,9.74 9.74,9.74 v 0 c 5.38,0 9.74,-4.36 9.74,-9.74 v -67.82 c 0,-5.3800004 4.36,-9.74000036 9.74,-9.74000036 h 58.08 c 5.38,0 9.74,4.35999996 9.74,9.74000036 z"
     id="path16" />
  <path
     class="cls-4"
     d="m 643.40257,0.83008864 h -96.69 c -2.65,0 -5.18,1.07999996 -7.02,2.98999996 l -0.23,0.24 c -19.57,20.3400004 -30.51,47.4600004 -30.51,75.6900004 v 85.950001 c 0,5.38 4.36,9.74 9.74,9.74 h 54.81 c 5.38,0 9.74,-4.36 9.74,-9.74 v -15.44 c 0,-5.38 4.36,-9.74 9.74,-9.74 h 6.53 c 5.38,0 9.74,4.36 9.74,9.74 v 15.44 c 0,5.38 4.36,9.74 9.74,9.74 h 54.81 c 5.38,0 9.74,-4.36 9.74,-9.74 V 82.150089 c 0,-29.64 -12.06,-58.01 -33.4,-78.5800004 v 0 c -1.82,-1.75 -4.24,-2.72999996 -6.76,-2.72999996 z m -43.88,87.30000036 h -6.53 c -5.38,0 -9.74,-4.36 -9.74,-9.74 v -15.44 c 0,-5.38 4.36,-9.74 9.74,-9.74 h 6.53 c 5.38,0 9.74,4.36 9.74,9.74 v 15.44 c 0,5.38 -4.36,9.74 -9.74,9.74 z"
     id="path18" />
  <path
     class="cls-4"
     d="m 843.07257,93.720089 v 0 c -3.8,3.8 -3.8,9.970001 0,13.770001 l 25.18,25.18 c 1.83,1.83 2.85,4.3 2.85,6.89 v 26.12 c 0,5.38 -4.36,9.74 -9.74,9.74 h -52.26 c -6.76,0 -12.29,-5.53 -12.29,-12.29 v -12.89 c 0,-5.38 -4.36,-9.74 -9.74,-9.74 h -6.53 c -5.38,0 -9.74,4.36 -9.74,9.74 v 15.44 c 0,5.38 -4.36,9.74 -9.74,9.74 h -54.81 c -5.38,0 -9.74,-4.36 -9.74,-9.74 V 10.570089 c 0,-5.3800004 4.36,-9.74000036 9.74,-9.74000036 h 54.81 c 5.38,0 9.74,4.35999996 9.74,9.74000036 v 67.82 c 0,5.38 4.36,9.74 9.74,9.74 h 6.53 c 5.38,0 9.74,-4.36 9.74,-9.74 v -67.82 c 0,-5.3800004 4.36,-9.74000036 9.74,-9.74000036 h 54.81 c 5.38,0 9.74,4.35999996 9.74,9.74000036 v 15.48 c 0,25.38 -10.08,49.73 -28.03,67.68 z"
     id="path20" />
  <path
     class="cls-4"
     d="m 1056.0426,10.570089 v 83.55 c 0,29.640001 -12.06,58.010001 -33.4,78.580001 v 0 c -1.82,1.75 -4.24,2.73 -6.76,2.73 h -96.69003 c -2.65,0 -5.18,-1.08 -7.02,-2.99 l -0.23,-0.24 c -19.57,-20.34 -30.51,-47.46 -30.51,-75.690001 v -85.95 c 0,-5.3800004 4.36,-9.74000036 9.74,-9.74000036 h 57.37 c 3.97,0 7.19,3.21999996 7.19,7.18999996 V 78.380089 c 0,5.38 4.36,9.74 9.74,9.74 h 6.53 c 5.38,0 9.74,-4.36 9.74,-9.74 v -67.82 c 0,-5.3800004 4.36,-9.74000036 9.74,-9.74000036 h 54.81003 c 5.38,0 9.74,4.35999996 9.74,9.74000036 z"
     id="path22" />
  <path
     class="cls-4"
     d="m 1392.4726,0.83008864 h -96.69 c -2.65,0 -5.18,1.07999996 -7.02,2.98999996 l -0.23,0.24 c -19.57,20.3400004 -30.51,47.4600004 -30.51,75.6900004 v 85.950001 c 0,5.38 4.36,9.74 9.74,9.74 h 54.81 c 5.38,0 9.74,-4.36 9.74,-9.74 v -15.44 c 0,-5.38 4.36,-9.74 9.74,-9.74 h 6.53 c 5.38,0 9.74,4.36 9.74,9.74 v 15.44 c 0,5.38 4.36,9.74 9.74,9.74 h 54.81 c 5.38,0 9.74,-4.36 9.74,-9.74 V 82.150089 c 0,-29.64 -12.06,-58.01 -33.4,-78.5800004 v 0 c -1.82,-1.75 -4.24,-2.72999996 -6.76,-2.72999996 z m -43.88,87.30000036 h -6.53 c -5.38,0 -9.74,-4.36 -9.74,-9.74 v -15.44 c 0,-5.38 4.36,-9.74 9.74,-9.74 h 6.53 c 5.38,0 9.74,4.36 9.74,9.74 v 15.44 c 0,5.38 -4.36,9.74 -9.74,9.74 z"
     id="path24" />
  <path
     class="cls-4"
     d="m 1592.1426,93.730089 v 0 c -3.8,3.8 -3.8,9.970001 0,13.770001 l 25.18,25.18 c 1.83,1.83 2.85,4.3 2.85,6.89 v 26.12 c 0,5.38 -4.36,9.74 -9.74,9.74 h -52.26 c -6.76,0 -12.29,-5.53 -12.29,-12.29 v -12.89 c 0,-5.38 -4.36,-9.74 -9.74,-9.74 h -6.53 c -5.38,0 -9.74,4.36 -9.74,9.74 v 15.44 c 0,5.38 -4.36,9.74 -9.74,9.74 h -54.81 c -5.38,0 -9.74,-4.36 -9.74,-9.74 V 10.570089 c 0,-5.3800004 4.36,-9.74000036 9.74,-9.74000036 h 54.81 c 5.38,0 9.74,4.35999996 9.74,9.74000036 v 67.82 c 0,5.38 4.36,9.74 9.74,9.74 h 6.53 c 5.38,0 9.74,-4.36 9.74,-9.74 v -67.82 c 0,-5.3800004 4.36,-9.74000036 9.74,-9.74000036 h 54.81 c 5.38,0 9.74,4.35999996 9.74,9.74000036 v 15.48 c 0,25.38 -10.08,49.73 -28.03,67.68 z"
     id="path26" />
  <path
     class="cls-4"
     d="m 1805.1126,10.570089 v 83.55 c 0,29.640001 -12.06,58.010001 -33.4,78.580001 v 0 c -1.82,1.75 -4.24,2.73 -6.76,2.73 h -96.69 c -2.65,0 -5.18,-1.08 -7.02,-2.99 l -0.23,-0.24 c -19.57,-20.34 -30.51,-47.46 -30.51,-75.690001 v -85.95 c 0,-5.3800004 4.36,-9.74000036 9.74,-9.74000036 h 54.81 c 5.38,0 9.74,4.35999996 9.74,9.74000036 v 67.82 c 0,5.38 4.36,9.74 9.74,9.74 h 6.53 c 5.38,0 9.74,-4.36 9.74,-9.74 v -67.82 c 0,-5.3800004 4.36,-9.74000036 9.74,-9.74000036 h 54.81 c 5.38,0 9.74,4.35999996 9.74,9.74000036 z"
     id="path28" />
  <path
     class="cls-4"
     d="m 1235.3426,0.83008864 h -155.12 c -5.38,0 -9.74,4.35999996 -9.74,9.74000036 v 50.36 c 0,5.38 4.36,9.74 9.74,9.74 h 45.44 c 6.96,0 11.68,7.09 8.98,13.51 v 0 c -8.41,20.010001 -12.74,41.500001 -12.74,63.210001 v 18.3 c 0,5.38 4.36,9.74 9.74,9.74 h 52.29 c 5.38,0 9.74,-4.36 9.74,-9.74 v -18.3 c 0,-21.71 -4.33,-43.2 -12.74,-63.210001 v 0 c -2.7,-6.42 2.02,-13.51 8.98,-13.51 h 45.44 c 5.38,0 9.74,-4.36 9.74,-9.74 v -50.36 c 0,-5.3800004 -4.36,-9.74000036 -9.74,-9.74000036 z"
     id="path30" />
  <path
     class="cls-3"
     d="m 1846.8526,120.06009 c -17.46,-5.29 -31.12,-18.95 -36.41,-36.410001 v 0 c -2.07,-6.84 -11.75,-6.84 -13.83,0 v 0 c -5.29,17.460001 -18.95,31.120001 -36.41,36.410001 v 0 c -6.84,2.07 -6.84,11.75 0,13.83 v 0 c 17.46,5.29 31.12,18.95 36.41,36.41 v 0 c 2.07,6.84 11.75,6.84 13.83,0 v 0 c 5.29,-17.46 18.95,-31.12 36.41,-36.41 v 0 c 6.84,-2.07 6.84,-11.75 0,-13.83 z"
     id="path32" />
  <path
     class="cls-3"
     d="m 1869.6326,77.370089 c -7.02,-2.13 -12.52,-7.62 -14.65,-14.65 v 0 c -1.49,-4.92 -8.46,-4.92 -9.95,0 v 0 c -2.13,7.02 -7.62,12.52 -14.65,14.65 v 0 c -4.92,1.49 -4.92,8.46 0,9.95 v 0 c 7.02,2.13 12.52,7.62 14.65,14.650001 v 0 c 1.49,4.92 8.46,4.92 9.95,0 v 0 c 2.13,-7.020001 7.62,-12.520001 14.65,-14.650001 v 0 c 4.92,-1.49 4.92,-8.46 0,-9.95 z"
     id="path34" />
  <path
     class="cls-2"
     d="m 1793.9526,115.93009 -6.63,17.42 c -0.38,1 0.36,2.07 1.43,2.07 h 2.56 c 0.65,0 1.24,-0.42 1.45,-1.04 l 0.46,-1.37 c 0.21,-0.62 0.79,-1.04 1.45,-1.04 h 5.02 c 0.66,0 1.24,0.42 1.45,1.05 l 0.45,1.35 c 0.21,0.63 0.79,1.05 1.45,1.05 h 2.67 c 1.07,0 1.8,-1.06 1.43,-2.06 l -6.56,-17.42 c -0.22,-0.59 -0.79,-0.99 -1.43,-0.99 h -3.76 c -0.63,0 -1.2,0.39 -1.43,0.98 z m 1.8,9.54 v 0 c 0.47,-1.39 2.44,-1.38 2.89,0.01 v 0 c 0.32,0.99 -0.41,2 -1.45,2 v 0 c -1.04,0 -1.78,-1.02 -1.45,-2.01 z"
     id="path36" />
  <rect
     class="cls-2"
     x="1809.7625"
     y="114.9501"
     width="5.75"
     height="20.469999"
     rx="1.53"
     ry="1.53"
     id="rect38" />
  <path
     class="cls-1"
     d="m 1805.1126,10.570089 v 83.55 c 0,29.640001 -12.06,58.010001 -33.4,78.580001 v 0 c -1.82,1.75 -4.24,2.73 -6.76,2.73 h -96.69 c -2.65,0 -5.18,-1.08 -7.02,-2.99 l -0.23,-0.24 c -19.57,-20.34 -30.51,-47.46 -30.51,-75.690001 v -85.95 c 0,-5.3800004 4.36,-9.74000036 9.74,-9.74000036 h 54.81 c 5.38,0 9.74,4.35999996 9.74,9.74000036 v 67.82 c 0,5.38 4.36,9.74 9.74,9.74 h 6.53 c 5.38,0 9.74,-4.36 9.74,-9.74 v -67.82 c 0,-5.3800004 4.36,-9.74000036 9.74,-9.74000036 h 54.81 c 5.38,0 9.74,4.35999996 9.74,9.74000036 z"
     id="path40" />
</svg>
