<?xml version="1.0" encoding="UTF-8" standalone="no"?>
<svg
   id="Paleta"
   viewBox="0 0 631.57184 686.27551"
   version="1.1"
   width="631.57184"
   height="686.27551"
   xmlns="http://www.w3.org/2000/svg"
   xmlns:svg="http://www.w3.org/2000/svg">
  <defs
     id="defs7">
    <style
       id="style2">.cls-1{fill:none;}.cls-2{fill:#fff;}.cls-3{fill:#ff791f;}.cls-4{fill:#3a3736;}.cls-5{clip-path:url(#clippath);}</style>
    <clipPath
       id="clippath">
      <path
         class="cls-1"
         d="m 540.81,426.32 c -1.01,16.3 -4.72,31.99 -11.47,46.91 -2.52,5.57 -5.57,10.81 -9.93,15.17 -10.74,10.76 -25.3,9.93 -34.68,-2.08 -6.28,-8.04 -8.78,-17.52 -9.52,-27.49 -1.81,-24.1 3.32,-46.63 16.23,-67.13 5.03,-7.97 11.36,-14.39 21.56,-15.99 11.56,-1.81 18.8,1.48 23.71,12.23 3.8,8.32 4.74,17.26 4.92,26.26 0.08,4.03 -0.53,8.07 -0.82,12.11 z M 391.43,578.6 c -11.69,-0.86 -23.01,-3.16 -33.28,-9.06 -18.69,-10.75 -20.11,-28.94 -2.14,-40.8 24.4,-16.11 51.22,-24.25 80.9,-19.03 6.64,1.17 12.91,3.35 18.58,7.01 13.88,8.97 16.75,24.11 7.15,37.62 -4.82,6.79 -11.34,11.58 -18.73,15.17 -16.61,8.07 -34.25,10.34 -52.49,9.08 z m 191.04,-3.79 c -14.72,-0.93 -27.36,-4.72 -38.81,-12.09 -5.41,-3.48 -10.23,-7.63 -13.36,-13.39 -4.93,-9.05 -2.91,-17.68 5.47,-23.62 2.86,-2.03 6,-3.56 9.35,-4.52 24.43,-6.98 49.03,-7.81 73.78,-1.79 4.83,1.17 9.31,3.19 13.31,6.16 10.38,7.7 12.26,19.69 3.91,29.56 -6.78,8.02 -14.95,14.49 -25.55,17.12 -9.64,2.4 -19.37,3.39 -28.11,2.57 z"
         id="path4" />
    </clipPath>
  </defs>
  <path
     class="cls-3"
     d="m 488.11936,586.72714 c 3.5,-10.47 6.02,-21.19 7.64,-32.12 6.87,-46.32 8.72,-92.95 8.85,-139.69 0,-3.45 1.34,-7.41 -0.64,-10.24 -2.65,-3.77 -7,-0.07 -10.5,-1 -0.27,-0.07 -0.58,-0.02 -0.87,-0.04 -5.94,-0.44 -9.48,-3.04 -10.29,-7.56 -0.72,-4.01 1.52,-7.97 6.09,-10.57 4.12,-2.34 8.75,-3.13 13.33,-3.74 13.22,-1.76 26.46,-3.34 39.7,-4.95 20.72,-2.52 41.51,-4.61 61.84,-9.57 7.91,-1.93 15.76,-4.13 22.51,-8.92 6.21,-4.4 7.31,-9.04 3.86,-15.83 -2.94,-5.8 -7.49,-10.28 -12.41,-14.41 -9.62,-8.08 -20.4,-14.39 -31.73,-19.63 -60.82,-28.13 -123.88,-49.22 -190.21,-59.91 -38.68,-6.23 -77.57,-10.75 -116.51,-14.98 -37.52,-3.84 -75.02,-7.83 -112.72,-9.55 -29.01,-1.32 -57.99,-1.37 -86.879997,2 -19.92,2.33 -39.58,5.89 -58.35,13.29 -6.49,2.56 -12.8700001,5.44 -18.0200001,10.3 -3.94,3.72 -3.77999999,5.89 0.76,8.95 2.86,1.93 6.05,3.43 9.2200001,4.83 9.3,4.13 19.02,7.13 28.88,9.53 29.3,7.13 58.689997,13.89 87.969997,21.11 13.8,3.4 27.4,7.55 40.08,14.21 3.86,2.03 7.75,4.12 10.21,7.9 2.55,3.92 0.85,7.57 -3.75,8.27 -1.41,0.21 -2.89,-0.02 -4.33,-0.11 q -7.45,-0.47 -9.26,6.47 c -7.04,26.94 -13.65,53.97 -19.23,81.26 -10.42,50.99 -17.16,102.41 -17.81,154.51 -0.2,16.24 0.55,32.46 3.83,48.48 4.15,20.29 15.22,35.4 33.28,45.5 12.24,6.84 25.25,11.72 38.82,15.02 52.03,12.67 104.49,13.92 157.15,4.85 29.74,-5.12 57.75,-15.14 82.74,-32.54 22.08,-15.38 38.13,-35.42 46.73,-61.11 z"
     id="path9" />
  <path
     class="cls-4"
     d="m 209.61936,200.73714 c 2.78,-21.64 7.18,-41.76 14.65,-60.83 2.36,-6.02 5.02,-11.86 8.93,-16.57 6.5,-7.84 13.56,-7.81 19.46,0.06 3.02,4.03 5.05,8.93 6.89,13.96 4.3,11.75 7.46,24.09 9.81,36.78 2.23,12.07 4.14,24.25 6.16,36.39 0.35,2.12 0.58,4.29 0.8,6.45 2.19,22.31 -5.42,37.23 -22.5,44.24 -5.03,2.07 -10.17,2.99 -15.34,2.92 -13.98,-0.17 -24.31,-10.52 -27.96,-27.93 -2.5,-11.9 -1.8,-24.14 -0.9,-35.47 z"
     id="path11" />
  <path
     class="cls-4"
     d="m 487.95936,202.87714 c -4.17,22.35 -10.87,45.96 -21.02,68.54 -2.62,5.83 -5.69,11.42 -10.09,16.13 -6.8,7.3 -14.82,9.5 -24.42,6.03 -20.53,-7.42 -32.24,-27.5 -26.56,-48.42 5.97,-22 45.53,-62.5 50.31,-66.24 4.12,-3.22 8.57,-6.02 13.64,-7.48 9.53,-2.76 16.75,1.6 18.78,11.33 1.26,6.06 0.29,12.12 -0.64,20.12 z"
     id="path13" />
  <g
     class="cls-5"
     clip-path="url(#clippath)"
     id="g23"
     transform="translate(-184.20064,-107.11286)">
    <rect
       class="cls-2"
       x="212.73"
       y="246.12"
       width="1226.88"
       height="719.84003"
       transform="rotate(4.19,825.27677,605.41658)"
       id="rect15" />
    <path
       class="cls-4"
       d="m 424.22,501.66 c -1.2,10.32 0.72,21.18 6.45,29.85 5.73,8.67 15.47,14.87 25.85,15.25 12.91,0.48 25.26,-8.33 30.37,-20.2 5.1,-11.87 3.39,-26.07 -3.1,-37.25 -5.65,-9.73 -21.4,-26.62 -34.13,-25.27 -14.84,1.57 -24,25.21 -25.45,37.62 z"
       id="path17" />
    <path
       class="cls-4"
       d="m 569.71,543.18 c 7.08,-7.61 11.96,-17.5 12.47,-27.88 0.52,-10.38 -3.66,-21.14 -11.81,-27.6 -10.12,-8.03 -25.29,-8.24 -36.43,-1.7 -11.14,6.55 -18.17,19 -19.55,31.85 -1.2,11.18 1.48,34.12 12.54,40.57 12.89,7.52 34.27,-6.11 42.78,-15.25 z"
       id="path19" />
    <path
       class="cls-4"
       d="m 486.96,362.39 c -2.95,9.96 -2.91,20.99 1.25,30.52 4.16,9.53 12.69,17.3 22.86,19.45 12.64,2.68 26.32,-3.88 33.38,-14.71 7.06,-10.82 7.8,-25.11 3.32,-37.23 -3.9,-10.55 -16.53,-29.89 -29.3,-30.74 -14.89,-0.99 -27.96,20.74 -31.51,32.71 z"
       id="path21" />
  </g>
  <path
     class="cls-4"
     d="m 368.96936,618.50714 c 3.1,3.68 7.6,6.82 12.37,6.18 4.08,-0.54 7.4,-3.8 9.15,-7.52 1.75,-3.72 2.21,-7.91 2.65,-12.01 1.27,-11.89 1.89,-38.62 -18.26,-31.5 -17.55,6.2 -15.73,33.17 -5.91,44.85 z"
     id="path25" />
  <path
     class="cls-4"
     d="m 337.00936,109.59714 c 9.33,-13.079998 81.22,-53.329998 46.19,-81.719998 -11.08,-8.98 -29.72,2.18 -37.42,12.3 -6.36,8.35 -8.63,20.3 -19.68,23.84 -10.32,3.31 -22.19,-4.23 -24.48,-13.28 -2.28,-9.05 2.63,-18.37 9.3,-25.75 14.74,-16.2800004 39.32,-26.2900004 63.66,-24.8500004 24.34,1.44 47.47,14.7700004 56.59,33.7100004 9.12,18.95 3.02,42.59 -15.46,55.94 -8.36,6.04 -18.65,9.88 -27.51,15.389998 -11.98,7.45 -22.5,8.27 -27.22,20.06 -5.2,12.99 3.06,25.92 -12.72,24.46 -13.37,-1.23 -19.4,-28.7 -11.25,-40.12 z"
     id="path27" />
  <path
     class="cls-4"
     d="m 342.31936,161.42714 c -2.79,4.69 -2.17,11.03 0.92,15.5 2.05,2.97 5.13,5.21 8.58,6.07 9.5,2.37 20.92,-7.17 14.52,-16.46 -5.31,-7.71 -17.18,-16.62 -24.03,-5.11 z"
     id="path29" />
</svg>
