<?xml version="1.0" encoding="UTF-8" standalone="no"?>
<svg
   id="Paleta"
   viewBox="0 0 805.53998 1159.5833"
   version="1.1"
   width="805.53998"
   height="1159.5833"
   xmlns="http://www.w3.org/2000/svg"
   xmlns:svg="http://www.w3.org/2000/svg">
  <defs
     id="defs4">
    <style
       id="style2">.cls-1{fill:#ff791f;}.cls-2{fill:#3a3736;}</style>
  </defs>
  <path
     class="cls-1"
     d="m 211.41,8.6232659 c 22.5,8.8600001 43.39,23.9200001 62.39,42.0400001 13.97,13.33 27.42,29.06 34.37,49.810004 6.96,20.75 5.88,47.51 -6.51,63.3 -9.42,12 -23.31,15.63 -36.43,16.47 -34.45,2.2 -70.11,-12.21 -95.01,-43.5 -17.63,-22.15 -29.13,-53.000004 -31.08,-84.980004 -1.53,-25.07 0.89,-49.2300001 23.1,-51.39000015 16.41,-1.59999995 33.49,2.09000005 49.17,8.27000005 z"
     id="path6" />
  <path
     class="cls-1"
     d="m 455.96,311.15327 c 6.95,-15.91 13.6,-32.16 16.3,-49.3 2.7,-17.15 1.17,-35.47 -7.47,-50.53 -11.69,-20.4 -35.99,-32.31 -59.44,-30.72 -23.46,1.59 -45.29,15.9 -57.63,35.9 -12.34,20.01 -15.45,45.1 -10.1,68 5.5,23.54 27.79,64.34 50.07,76.21 32.5,17.32 57.93,-25.88 68.27,-49.56 z"
     id="path8" />
  <path
     class="cls-1"
     d="m 594.01,8.6232659 c -22.5,8.8600001 -43.39,23.9200001 -62.39,42.0400001 -13.97,13.33 -27.42,29.06 -34.37,49.810004 -6.96,20.75 -5.88,47.51 6.51,63.3 9.42,12 23.31,15.63 36.43,16.47 34.45,2.2 70.11,-12.21 95.01,-43.5 17.63,-22.15 29.13,-53.000004 31.08,-84.980004 1.53,-25.07 -0.89,-49.2300001 -23.1,-51.39000015 C 626.77,-1.2267341 609.69,2.4632659 594.01,8.6432659 Z"
     id="path10" />
  <path
     class="cls-1"
     d="m 620.68,363.05327 c 24.88,7.64 48.53,23.3 59.87,48.01 11.35,24.71 7.03,59.22 -14.22,76.83 -14.63,12.13 -34.01,14.5 -52.03,13.92 -41.79,-1.35 -82.49,-16.32 -115.34,-42.43 -13.8,-10.97 -27.51,-27.47 -25.89,-47.89 1.58,-19.92 21.72,-30.35 36.85,-37.87 34.82,-17.29 74.93,-21.57 110.75,-10.58 z"
     id="path12" />
  <path
     class="cls-1"
     d="m 184.74,363.05327 c -24.88,7.64 -48.53,23.3 -59.87,48.01 -11.35,24.71 -7.03,59.22 14.22,76.83 14.63,12.13 34.01,14.5 52.03,13.92 41.79,-1.35 82.49,-16.32 115.34,-42.43 13.8,-10.97 27.51,-27.47 25.89,-47.89 -1.58,-19.92 -21.72,-30.35 -36.85,-37.87 -34.82,-17.29 -74.93,-21.57 -110.75,-10.58 z"
     id="path14" />
  <path
     class="cls-2"
     d="m 191.46,767.80327 v 170.09 c 0,5.9 -4.78,10.68 -10.68,10.68 h -63.69 c -5.9,0 -10.68,-4.78 -10.68,-10.68 v -16.93 c 0,-5.9 -4.78,-10.68 -10.68,-10.68 v 0 c -5.9,0 -10.68,4.78 -10.68,10.68 v 16.93 c 0,5.9 -4.78,10.68 -10.68,10.68 H 10.68 c -5.9,0 -10.68,-4.78 -10.68,-10.68 v -170.09 c 0,-5.9 4.78,-10.68 10.68,-10.68 h 63.69 c 5.9,0 10.68,4.78 10.68,10.68 v 74.37 c 0,5.9 4.78,10.68 10.68,10.68 v 0 c 5.9,0 10.68,-4.78 10.68,-10.68 v -74.37 c 0,-5.9 4.78,-10.68 10.68,-10.68 h 63.69 c 5.9,0 10.68,4.78 10.68,10.68 z"
     id="path16" />
  <path
     class="cls-2"
     d="M 353.08,757.12327 H 247.06 c -2.9,0 -5.68,1.18 -7.69,3.27 l -0.25,0.26 c -21.46,22.3 -33.45,52.05 -33.45,83 v 94.24 c 0,5.9 4.78,10.68 10.68,10.68 h 60.1 c 5.9,0 10.68,-4.78 10.68,-10.68 v -16.93 c 0,-5.9 4.78,-10.68 10.68,-10.68 h 7.16 c 5.9,0 10.68,4.78 10.68,10.68 v 16.93 c 0,5.9 4.78,10.68 10.68,10.68 h 60.1 c 5.9,0 10.68,-4.78 10.68,-10.68 v -91.62 c 0,-32.5 -13.22,-63.61 -36.62,-86.16 v 0 c -1.99,-1.92 -4.65,-2.99 -7.41,-2.99 z m -48.12,95.73 h -7.16 c -5.9,0 -10.68,-4.78 -10.68,-10.68 v -16.93 c 0,-5.9 4.78,-10.68 10.68,-10.68 h 7.16 c 5.9,0 10.68,4.78 10.68,10.68 v 16.93 c 0,5.9 -4.78,10.68 -10.68,10.68 z"
     id="path18" />
  <path
     class="cls-2"
     d="m 572.02,858.98327 v 0 c -4.17,4.17 -4.17,10.93 0,15.1 l 27.61,27.61 c 2,2 3.13,4.72 3.13,7.55 v 28.65 c 0,5.9 -4.78,10.68 -10.68,10.68 h -57.3 c -7.41,0 -13.48,-6.07 -13.48,-13.48 v -14.13 c 0,-5.9 -4.78,-10.68 -10.68,-10.68 h -7.16 c -5.9,0 -10.68,4.78 -10.68,10.68 v 16.93 c 0,5.9 -4.78,10.68 -10.68,10.68 H 422 c -5.9,0 -10.68,-4.78 -10.68,-10.68 v -170.09 c 0,-5.9 4.78,-10.68 10.68,-10.68 h 60.1 c 5.9,0 10.68,4.78 10.68,10.68 v 74.37 c 0,5.9 4.78,10.68 10.68,10.68 h 7.16 c 5.9,0 10.68,-4.78 10.68,-10.68 v -74.37 c 0,-5.9 4.78,-10.68 10.68,-10.68 h 60.1 c 5.9,0 10.68,4.78 10.68,10.68 v 16.97 c 0,27.83 -11.06,54.53 -30.74,74.21 z"
     id="path20" />
  <path
     class="cls-2"
     d="m 805.54,767.80327 v 91.62 c 0,32.5 -13.22,63.61 -36.62,86.16 v 0 c -1.99,1.92 -4.65,2.99 -7.41,2.99 H 655.49 c -2.9,0 -5.68,-1.18 -7.69,-3.27 l -0.25,-0.26 c -21.46,-22.3 -33.45,-52.05 -33.45,-83 v -94.24 c 0,-5.9 4.78,-10.68 10.68,-10.68 h 62.9 c 4.35,0 7.88,3.53 7.88,7.88 v 77.17 c 0,5.9 4.78,10.68 10.68,10.68 h 7.16 c 5.9,0 10.68,-4.78 10.68,-10.68 v -74.37 c 0,-5.9 4.78,-10.68 10.68,-10.68 h 60.1 c 5.9,0 10.68,4.78 10.68,10.68 z"
     id="path22" />
  <path
     class="cls-2"
     d="M 353.08,968.13327 H 247.06 c -2.9,0 -5.68,1.18 -7.69,3.27 l -0.25,0.26 c -21.46,22.3 -33.45,52.05003 -33.45,83.00003 v 94.24 c 0,5.9 4.78,10.68 10.68,10.68 h 60.1 c 5.9,0 10.68,-4.78 10.68,-10.68 v -16.93 c 0,-5.9 4.78,-10.68 10.68,-10.68 h 7.16 c 5.9,0 10.68,4.78 10.68,10.68 v 16.93 c 0,5.9 4.78,10.68 10.68,10.68 h 60.1 c 5.9,0 10.68,-4.78 10.68,-10.68 v -91.62 c 0,-32.5 -13.22,-63.61003 -36.62,-86.16003 v 0 c -1.99,-1.92 -4.65,-2.99 -7.41,-2.99 z m -48.12,95.73003 h -7.16 c -5.9,0 -10.68,-4.78 -10.68,-10.68 v -16.93 c 0,-5.9 4.78,-10.68 10.68,-10.68 h 7.16 c 5.9,0 10.68,4.78 10.68,10.68 v 16.93 c 0,5.9 -4.78,10.68 -10.68,10.68 z"
     id="path24" />
  <path
     class="cls-2"
     d="m 572.02,1069.9933 v 0 c -4.17,4.17 -4.17,10.93 0,15.1 l 27.61,27.61 c 2,2 3.13,4.72 3.13,7.55 v 28.65 c 0,5.9 -4.78,10.68 -10.68,10.68 h -57.3 c -7.41,0 -13.48,-6.07 -13.48,-13.48 v -14.13 c 0,-5.9 -4.78,-10.68 -10.68,-10.68 h -7.16 c -5.9,0 -10.68,4.78 -10.68,10.68 v 16.93 c 0,5.9 -4.78,10.68 -10.68,10.68 H 422 c -5.9,0 -10.68,-4.78 -10.68,-10.68 V 978.81327 c 0,-5.9 4.78,-10.68 10.68,-10.68 h 60.1 c 5.9,0 10.68,4.78 10.68,10.68 v 74.37003 c 0,5.9 4.78,10.68 10.68,10.68 h 7.16 c 5.9,0 10.68,-4.78 10.68,-10.68 v -74.37003 c 0,-5.9 4.78,-10.68 10.68,-10.68 h 60.1 c 5.9,0 10.68,4.78 10.68,10.68 v 16.97 c 0,27.83003 -11.06,54.53003 -30.74,74.21003 z"
     id="path26" />
  <path
     class="cls-2"
     d="m 805.54,978.81327 v 91.62003 c 0,32.5 -13.22,63.61 -36.62,86.16 v 0 c -1.99,1.92 -4.65,2.99 -7.41,2.99 H 655.49 c -2.9,0 -5.68,-1.18 -7.69,-3.27 l -0.25,-0.26 c -21.46,-22.3 -33.45,-52.05 -33.45,-83 v -94.24003 c 0,-5.9 4.78,-10.68 10.68,-10.68 h 60.1 c 5.9,0 10.68,4.78 10.68,10.68 v 74.37003 c 0,5.9 4.78,10.68 10.68,10.68 h 7.16 c 5.9,0 10.68,-4.78 10.68,-10.68 v -74.37003 c 0,-5.9 4.78,-10.68 10.68,-10.68 h 60.1 c 5.9,0 10.68,4.78 10.68,10.68 z"
     id="path28" />
  <path
     class="cls-2"
     d="M 180.78,968.13327 H 10.69 c -5.9,0 -10.68,4.78 -10.68,10.68 v 55.22003 c 0,5.9 4.78,10.68 10.68,10.68 h 49.83 c 7.64,0 12.8,7.78 9.85,14.82 v 0 c -9.22,21.94 -13.97,45.51 -13.97,69.31 v 20.06 c 0,5.9 4.78,10.68 10.68,10.68 h 57.34 c 5.9,0 10.68,-4.78 10.68,-10.68 v -20.06 c 0,-23.8 -4.75,-47.37 -13.97,-69.31 v 0 c -2.96,-7.04 2.21,-14.82 9.85,-14.82 h 49.83 c 5.9,0 10.68,-4.78 10.68,-10.68 v -55.22003 c 0,-5.9 -4.78,-10.68 -10.68,-10.68 z"
     id="path30" />
</svg>
