<?xml version="1.0" encoding="UTF-8" standalone="no"?>
<svg
   id="Paleta"
   viewBox="0 0 754.67053 553.66772"
   version="1.1"
   width="754.67053"
   height="553.66772"
   xmlns="http://www.w3.org/2000/svg"
   xmlns:svg="http://www.w3.org/2000/svg">
  <defs
     id="defs10">
    <style
       id="style2">.cls-1{fill:none;}.cls-2{fill:#ede9e2;}.cls-3{clip-path:url(#clippath-1);}.cls-4{fill:#ff791f;}.cls-5{fill:#3a3736;}.cls-6{clip-path:url(#clippath);}</style>
    <clipPath
       id="clippath">
      <path
         class="cls-1"
         d="m 332.45,335.12 c -1.23,8.73 -3.88,17.03 -8.13,24.78 -1.59,2.89 -3.45,5.59 -5.98,7.75 -6.23,5.34 -14.04,4.29 -18.59,-2.57 -3.04,-4.59 -3.99,-9.8 -3.98,-15.2 0.03,-13.05 3.73,-24.97 11.55,-35.47 3.04,-4.08 6.72,-7.27 12.28,-7.71 6.3,-0.49 10.06,1.58 12.26,7.57 1.7,4.64 1.83,9.49 1.55,14.35 -0.13,2.17 -0.62,4.33 -0.95,6.49 z m -86.8,75.76 c -6.26,-0.95 -12.26,-2.66 -17.54,-6.27 -9.62,-6.57 -9.62,-16.42 0.55,-22.06 13.81,-7.66 28.59,-10.92 44.36,-6.87 3.53,0.91 6.81,2.34 9.71,4.55 7.1,5.41 8.01,13.68 2.28,20.56 -2.88,3.45 -6.59,5.76 -10.72,7.39 -9.28,3.65 -18.87,4.14 -28.64,2.7 z m 103.03,5.94 c -7.89,-1.12 -14.53,-3.68 -20.39,-8.13 -2.77,-2.1 -5.19,-4.54 -6.64,-7.77 -2.27,-5.08 -0.83,-9.64 3.93,-12.49 1.62,-0.97 3.38,-1.67 5.22,-2.04 13.45,-2.74 26.73,-2.16 39.81,2.12 2.55,0.83 4.88,2.11 6.91,3.88 5.27,4.58 5.78,11.11 0.87,16.08 -3.99,4.03 -8.66,7.18 -14.47,8.15 -5.29,0.89 -10.57,1.02 -15.24,0.21 z"
         id="path4" />
    </clipPath>
    <clipPath
       id="clippath-1">
      <path
         class="cls-1"
         d="m 632.88,513.59 c -1.28,4.91 -2.69,9.17 -5.13,13.04 -2.95,4.67 -6.91,6.43 -12.51,5.6 -12.68,-1.88 -22.22,-13.36 -22.81,-26.78 -0.41,-9.26 2.54,-17.46 8.57,-24.53 0.44,-0.52 0.92,-1.01 1.4,-1.49 11.44,-11.34 25.79,-7.81 30.46,7.58 2.74,9.02 2.01,18.09 0.02,26.58 z m -82.77,11.24 c 7.16,1.73 13.72,4.01 19.71,7.72 2.81,1.74 5.37,3.78 7.25,6.55 3.48,5.14 2.74,10.59 -1.98,14.65 -3.21,2.76 -7.07,4.11 -11.16,4.82 -8.67,1.52 -17.19,0.5 -25.52,-1.98 -8.3,-2.47 -16.1,-6.08 -23,-11.41 -2.94,-2.27 -5.76,-4.69 -7.64,-7.92 -3.85,-6.61 -3.53,-10.79 5.4,-13.15 12.43,-3.29 24.92,-2.47 36.94,0.73 z m 127.56,23.66 c 4.42,1.09 7.95,2.15 11.15,4.08 7.16,4.32 8.67,11.22 4.04,18.21 -2,3.02 -4.63,5.37 -7.64,7.32 -14.68,9.54 -35.86,6.91 -47.77,-5.93 -2.16,-2.32 -3.92,-4.91 -5.11,-7.86 -1.48,-3.66 -0.96,-6.17 1.88,-8.88 1.9,-1.82 4.19,-3.05 6.55,-4.16 10.28,-4.83 21.09,-5.21 32.1,-3.69 1.89,0.26 3.76,0.71 4.8,0.92 z"
         id="path7" />
    </clipPath>
  </defs>
  <path
     class="cls-4"
     d="m 401.26199,177.15067 c -4.44,12.68 -12.74,18.53 -22.71,17.14 -1.42,-0.2 -2.83,-0.5 -4.19,-0.9 -11.61,-3.44 -16.55,-12.95 -13.62,-26.81 2.96,-13.99 8.85,-26.66 16.91,-38.22 1.9,-2.73 4.12,-5.17 6.81,-6.9 4.8,-3.09 9.3,-2.17 11.2,3.18 2.27,6.37 4.8,12.72 6.31,19.38 2.53,11.17 2.42,22.89 -0.71,33.15 z"
     id="path12" />
  <path
     class="cls-4"
     d="m 545.62199,242.04067 c -5.92,10.9 -14.35,15.01 -23.22,12.27 -1.26,-0.39 -2.5,-0.87 -3.69,-1.44 -10.08,-4.84 -13.18,-14.25 -8.46,-26.45 4.76,-12.31 11.99,-23 21.05,-32.35 2.14,-2.21 4.51,-4.1 7.22,-5.29 4.83,-2.11 8.79,-0.61 9.74,4.55 1.13,6.14 2.5,12.3 2.89,18.59 0.66,10.55 -1.17,21.23 -5.54,30.11 z"
     id="path14" />
  <path
     class="cls-4"
     d="m 556.36199,536.48067 v 0 c -16.46,5.55 -34.28,5.55 -50.74,0 v 0 c -2.81,-0.95 -4.71,-3.58 -4.72,-6.55 l -0.06,-25.36 c -0.06,-23.6 0.97,-47.19 3.09,-70.7 l 3.36,-37.38 h 47.4 l 3.36,37.38 c 2.11,23.51 3.14,47.1 3.09,70.7 l -0.06,25.36 c 0,2.97 -1.9,5.6 -4.72,6.55 z"
     id="path16" />
  <path
     class="cls-4"
     d="m 335.97199,539.43067 v 0 c -17.1,3.02 -34.73,0.35 -50.16,-7.61 v 0 c -2.64,-1.36 -4.12,-4.25 -3.68,-7.18 l 3.74,-25.08 c 3.48,-23.34 8.04,-46.51 13.65,-69.44 l 8.93,-36.46 46.87,7.11 -2.28,37.46 c -1.43,23.56 -3.95,47.04 -7.55,70.36 l -3.86,25.07 c -0.45,2.93 -2.72,5.25 -5.65,5.77 z"
     id="path18" />
  <path
     class="cls-2"
     d="m 253.74199,259.67067 c 2.18,-5.54 3.83,-11.25 5.01,-17.1 4.99,-24.76 7.28,-49.84 8.65,-75.02 0.1,-1.86 0.93,-3.96 -0.06,-5.53 -1.32,-2.11 -3.77,-0.23 -5.63,-0.83 -0.15,-0.05 -0.31,-0.02 -0.47,-0.04 -3.19,-0.4 -5.02,-1.9 -5.33,-4.36 -0.28,-2.18 1.04,-4.25 3.58,-5.52 2.29,-1.15 4.8,-1.44 7.29,-1.64 7.17,-0.58 14.35,-1.06 21.53,-1.56 11.23,-0.78 22.49,-1.33 33.59,-3.44 4.31,-0.82 8.61,-1.79 12.38,-4.18 3.47,-2.2 4.19,-4.67 2.52,-8.42 -1.42,-3.2 -3.75,-5.75 -6.28,-8.11 -4.96,-4.62 -10.59,-8.32 -16.55,-11.46 -31.99,-16.849997 -65.38,-29.969997 -100.82,-37.569997 -20.67,-4.43 -41.5,-7.95 -62.36,-11.31 -20.11,-3.12 -40.2,-6.31 -60.470003,-8.28 -15.59,-1.52 -31.21,-2.35 -46.87,-1.34 -10.8,0.7 -21.49,2.07 -31.81,5.54 -3.5699996,1.2 -7.0899996,2.57 -9.9999996,5.05 -2.22999998,1.89 -2.19999998,3.07 0.16,4.84 1.49,1.12 3.16,2.02 4.83,2.86 4.8999996,2.48 10.0499996,4.37 15.2899996,5.94 15.59,4.66 31.24,9.12 46.81,13.82 7.34,2.22 14.56,4.83 21.2,8.769997 2.02,1.2 4.06,2.44 5.28,4.54 1.26,2.18 0.25,4.1 -2.25,4.35 -0.76,0.08 -1.56,-0.09 -2.33,-0.18 q -4,-0.46 -5.17,3.23 c -4.54,14.32 -8.86,28.7 -12.62,43.25 -7.03,27.19 -12.1,54.7 -13.89,82.76 -0.56,8.75 -0.61,17.51 0.71,26.23 1.67,11.05 7.22,19.5 16.67,25.44 6.41,4.03 13.28,7.02 20.5,9.17 27.680003,8.27 55.910003,10.41 84.540003,6.98 16.16,-1.93 31.54,-6.55 45.49,-15.23 12.33,-7.67 21.53,-18.03 26.88,-31.63 z"
     id="path20" />
  <path
     class="cls-4"
     d="m 114.42199,43.940673 c 2.1,-11.58 5.03,-22.3 9.59,-32.37 1.44,-3.18 3.04,-6.25 5.27,-8.68 3.72,-4.05 7.52,-3.82999992 10.48,0.57 1.52,2.25 2.47,4.95 3.32,7.71 1.99,6.45 3.35,13.19 4.26,20.09 0.86,6.56 1.56,13.18 2.31,19.78 0.13,1.15 0.2,2.33 0.25,3.5 0.56,12.08 -3.96,19.91 -13.35,23.21 -2.77,0.97 -5.56,1.33 -8.34,1.15 -7.53,-0.48 -12.8,-6.35 -14.29,-15.83 -1.01,-6.48 -0.3,-13.06 0.5,-19.14 z"
     id="path22" />
  <path
     class="cls-4"
     d="m 264.33199,52.840673 c -2.87,11.93 -7.14,24.46 -13.23,36.34 -1.58,3.07 -3.39,5.99 -5.88,8.41 -3.87,3.739997 -8.25,4.709997 -13.33,2.569997 -10.86,-4.569997 -16.61,-15.719997 -12.96,-26.829997 3.83,-11.69 26.27,-32.41 28.95,-34.29 2.31,-1.62 4.78,-3 7.56,-3.65 5.21,-1.22 8.98,1.33 9.8,6.63 0.51,3.3 -0.18,6.54 -0.91,10.82 z"
     id="path24" />
  <path
     class="cls-4"
     d="m 121.89199,283.51067 c 17.51,3.09 34.92,1.91 52.29,-1.11 1.99,-0.35 4.02,-0.59 6.04,-0.69 1.1,-0.06 2.27,0.34 2.53,1.64 0.26,1.27 -0.63,2.04 -1.6,2.6 -0.81,0.46 -1.68,0.83 -2.56,1.15 -19.61,7.21 -39.53,9.06 -59.89,3.46 -2.87,-0.79 -5.68,-1.74 -8.35,-3.08 -0.98,-0.49 -1.96,-1 -2.83,-1.66 -1.24,-0.95 -2.69,-2.02 -1.79,-3.85 0.76,-1.55 2.33,-1.29 3.74,-1.03 0.77,0.14 1.52,0.35 2.29,0.51 3.37,0.69 6.75,1.37 10.12,2.06 z"
     id="path26" />
  <g
     class="cls-6"
     clip-path="url(#clippath)"
     id="g36"
     transform="translate(-140.57801,-222.83933)">
    <rect
       class="cls-4"
       x="147.28999"
       y="249.42"
       width="662.63"
       height="388.78"
       transform="rotate(8.62,478.67685,443.90655)"
       id="rect28" />
    <path
       class="cls-5"
       d="m 213.12,389.7 c -1.08,5.51 -0.49,11.44 2.23,16.34 2.72,4.9 7.71,8.65 13.28,9.29 6.93,0.8 13.95,-3.43 17.2,-9.61 3.25,-6.18 2.92,-13.9 -0.11,-20.19 -2.64,-5.47 -10.41,-15.23 -17.32,-15.04 -8.06,0.23 -13.98,12.58 -15.27,19.19 z"
       id="path30" />
    <path
       class="cls-5"
       d="m 346.9,396.61 c -1.03,-5.52 -3.77,-10.81 -8.11,-14.36 -4.34,-3.55 -10.36,-5.19 -15.78,-3.72 -6.74,1.82 -11.7,8.34 -12.43,15.29 -0.73,6.94 2.43,13.99 7.57,18.71 4.47,4.11 15.3,10.3 21.65,7.57 7.4,-3.19 8.34,-16.85 7.1,-23.48 z"
       id="path32" />
    <path
       class="cls-5"
       d="m 285.89,326.21 c -2.01,5.24 -2.44,11.18 -0.6,16.49 1.84,5.31 6.11,9.84 11.5,11.43 6.7,1.97 14.33,-0.99 18.59,-6.53 4.25,-5.53 5.25,-13.19 3.34,-19.91 -1.66,-5.84 -7.65,-16.79 -14.49,-17.78 -7.98,-1.15 -15.92,10 -18.33,16.3 z"
       id="path34" />
  </g>
  <path
     class="cls-4"
     d="m 716.47199,318.09067 c -1.37,-6.37 0.06,-12.44 -2.15,-18.17 -0.46,-1.2 -2.29,-1.02 -2.4,0.26 0,0.01 0,0.02 0,0.03 -0.43,5.64 -0.83,11.29 -1.01,16.95 -0.35,10.74 -0.3,21.49 -0.85,32.22 -0.91,17.93 -10.27,30.42 -25.82,38.64 -2.14,1.13 -4.34,2.13 -6.87,3.37 -0.21,-1.28 -0.39,-1.92 -0.41,-2.57 -0.86,-29.19 -1.85,-58.38 -2.48,-87.58 -0.18,-8.29 0.26,-16.64 1.11,-24.89 2.35,-22.58 18.69,-30.49 33.08,-32.49 29.2,-4.06 53.02,24.59 44.1,52.8 -4.46,14.08 -14.48,21.42 -29.29,21.44 -1.74,0 -4.94,0 -7,0 z"
     id="path38" />
  <path
     class="cls-2"
     d="m 327.13199,177.24067 c -44.87,49.08 -126.68,159.37 -66.29,259.12 10.48,17.31 27.95,29.24 47.87,32.76 65.09,11.51 233.99,37.29 352.48,18.72 0,0 28.67,-158.72 -64.99,-208.97 -67.36,-36.14 -163.61,-86.32 -212.35,-111.65 -19,-9.88 -42.28,-5.78 -56.73,10.02 z"
     id="path40" />
  <path
     class="cls-2"
     d="m 653.15199,551.41067 v 0 c -16.87,4.11 -34.63,2.58 -50.55,-4.37 v 0 c -2.72,-1.19 -4.38,-3.98 -4.13,-6.93 l 2.12,-25.27 c 1.98,-23.52 5.03,-46.93 9.17,-70.17 l 6.57,-36.95 47.23,4.08 0.13,37.53 c 0.08,23.6 -0.93,47.19 -3.02,70.7 l -2.25,25.26 c -0.26,2.96 -2.38,5.42 -5.26,6.12 z"
     id="path42" />
  <path
     class="cls-2"
     d="m 422.35199,549.48067 v 0 c -16.46,5.55 -34.28,5.55 -50.74,0 v 0 c -2.81,-0.95 -4.71,-3.58 -4.72,-6.55 l -0.06,-25.36 c -0.06,-23.6 0.97,-47.19 3.09,-70.7 l 3.36,-37.38 h 47.4 l 3.36,37.38 c 2.11,23.51 3.14,47.1 3.09,70.7 l -0.06,25.36 c 0,2.97 -1.9,5.6 -4.72,6.55 z"
     id="path44" />
  <path
     class="cls-4"
     d="m 449.89199,193.77067 c -6.39,12.97 -13.18,17.7 -23.23,17.21 -4.19,-0.2 -7.99,-1.41 -11.44,-3.47 -9.01,-5.38 -10.88,-15.47 -5.19,-28.22 1.94,-4.35 4.34,-8.43 7.06,-12.31 6.74,-9.6 14.42,-17.9 23.18,-24.69 2.99,-2.32 6.08,-4.34 9.39,-5.34 5.46,-1.64 9.25,0.48 10.11,6.39 1.11,7.57 -6.34,42.8 -9.89,50.44 z"
     id="path46" />
  <path
     class="cls-4"
     d="m 590.56199,274.00067 c -8.87,9.98 -16.07,12.52 -24.9,9.63 -3.68,-1.21 -6.76,-3.21 -9.33,-5.9 -6.7,-6.99 -5.89,-16.44 2.3,-26.39 2.79,-3.4 5.93,-6.44 9.31,-9.23 8.36,-6.89 17.23,-12.39 26.69,-16.3 3.23,-1.33 6.47,-2.38 9.67,-2.45 5.26,-0.12 8.12,2.7 7.44,8.16 -0.87,7.01 -16.14,36.55 -21.17,42.48 z"
     id="path48" />
  <g
     class="cls-3"
     clip-path="url(#clippath-1)"
     id="g58"
     transform="translate(-140.57801,-222.83933)">
    <rect
       class="cls-4"
       x="172.28999"
       y="258.07999"
       width="579.07001"
       height="339.76001"
       transform="rotate(14.17,461.81329,427.9772)"
       id="rect50" />
    <path
       class="cls-5"
       d="m 500.27,526.33 c -1.4,4.7 -1.4,9.91 0.56,14.41 1.95,4.5 5.97,8.18 10.77,9.21 5.96,1.28 12.43,-1.8 15.77,-6.91 3.34,-5.1 3.71,-11.84 1.61,-17.57 -1.83,-4.98 -7.77,-14.13 -13.8,-14.54 -7.03,-0.48 -13.22,9.76 -14.91,15.4 z"
       id="path52" />
    <path
       class="cls-5"
       d="m 655.85,564.41 c -0.43,-4.89 -2.36,-9.72 -5.84,-13.18 -3.48,-3.46 -8.57,-5.39 -13.41,-4.57 -6.01,1.02 -10.88,6.27 -12.1,12.25 -1.22,5.98 0.93,12.38 5,16.92 3.54,3.95 12.44,10.25 18.19,8.41 6.71,-2.15 8.68,-13.95 8.16,-19.82 z"
       id="path54" />
    <path
       class="cls-5"
       d="m 587.32,491.84 c -2.19,4.39 -3.07,9.52 -1.92,14.29 1.15,4.77 4.49,9.08 9.04,10.91 5.66,2.28 12.55,0.35 16.72,-4.11 4.17,-4.45 5.68,-11.03 4.59,-17.03 -0.95,-5.22 -5.24,-15.25 -11.1,-16.69 -6.84,-1.68 -14.69,7.35 -17.32,12.63 z"
       id="path56" />
  </g>
</svg>
