<?xml version="1.0" encoding="UTF-8" standalone="no"?>
<svg
   id="Paleta"
   viewBox="0 0 200.0271 136.5267"
   version="1.1"
   width="200.0271"
   height="136.5267"
   xmlns="http://www.w3.org/2000/svg"
   xmlns:svg="http://www.w3.org/2000/svg">
  <defs
     id="defs4">
    <style
       id="style2">.cls-1{fill:#ede9e2;}</style>
  </defs>
  <path
     class="cls-1"
     d="m 68.555165,89.869428 c -0.14,0.35 -0.28,0.83 -0.51,1.27 -0.64,1.2 -1.55,2.18 -2.53,3.11 -1.64,1.57 -3.46,2.92 -5.32,4.21 -6.2,4.310002 -12.66,8.210002 -19.12,12.100002 -11.2,6.75 -22.63,13.09 -34.2199999,19.15 -1.56,0.81 -3.1,1.66 -4.65,2.49 -0.37,0.2 -0.75,0.37 -1.14,0.52 -0.32000001,0.12 -0.72000001,0.17 -0.95000001,-0.09 -0.28,-0.32 0.01,-0.64 0.24,-0.86 0.42,-0.41 0.88000001,-0.78 1.35000001,-1.13 13.7799999,-10.28 27.6799999,-20.39 42.0299999,-29.87 3.92,-2.590002 7.89,-5.090002 11.87,-7.590002 2.13,-1.33 4.35,-2.52 6.68,-3.5 1.33,-0.55 2.7,-0.91 4.11,-1.11 0.5,-0.07 1,-0.06 1.48,0.16 0.42,0.2 0.62,0.53 0.69,1.12 z"
     id="path6" />
  <path
     class="cls-1"
     d="m 79.155165,108.45943 c -0.07,1.1 -0.37,1.88 -0.81,2.61 -0.61,1.01 -1.39,1.89 -2.22,2.73 -1.9,1.91 -4.01,3.56 -6.18,5.15 -9.54,7.01 -7.32,4.65 -17.58,10.56 -3.63,2.09 -7.28,4.15 -10.93,6.21 -0.51,0.29 -1.03,0.57 -1.57,0.78 -0.19,0.07 -0.54,0 -0.66,-0.15 -0.12,-0.13 -0.13,-0.52 -0.02,-0.66 0.37,-0.45 0.78,-0.87 1.23,-1.24 3.85,-3.24 7.7,-6.49 11.58,-9.69 8.48,-7 4.9,-5.13 13.66,-11.76 2,-1.52 4.08,-2.94 6.2,-4.3 1.05,-0.67 2.23,-1.18 3.41,-1.59 0.69,-0.24 1.49,-0.23 2.23,-0.19 1.12,0.05 1.69,0.74 1.65,1.55 z"
     id="path8" />
  <path
     class="cls-1"
     d="m 52.375165,73.569428 c -0.03,0.66 -0.49,1.44 -1.1,2.16 -0.88,1.03 -1.93,1.87 -3.06,2.6 -2.04,1.33 -4.08,2.64 -6.16,3.9 -10.23,6.24 -20.71,12.05 -31.28,17.69 -1.0299999,0.550002 -2.0499999,1.140002 -3.0899999,1.670002 -0.44,0.23 -0.92,0.41 -1.4,0.53 -0.33,0.08 -0.7,-0.02 -0.82,-0.39 -0.06,-0.21 -0.05,-0.55 0.08,-0.69 0.5,-0.56 1.03,-1.100002 1.61,-1.570002 3.1299999,-2.53 6.2699999,-5.05 9.4299999,-7.54 7.18,-5.66 14.55,-11.06 22.21,-16.06 2.1,-1.38 4.23,-2.71 6.49,-3.83 1.06,-0.52 2.15,-0.95 3.3,-1.2 0.83,-0.17 1.66,-0.16 2.46,0.23 0.95,0.45 1.41,1.16 1.34,2.5 z"
     id="path10" />
  <path
     class="cls-1"
     d="m 194.40517,0.13942839 c -1.5,-0.16 -3.02,-0.16 -4.53,-0.11 -5.22,0.16 -10.36,1.00000001 -15.48,1.89000001 -7.77,1.34 -15.53,2.76 -23.27,4.25 -13.35,2.56 -26.68,5.1999996 -40.02,7.8099996 -11.690005,2.29 -23.380005,4.56 -35.070005,6.87 -5.43,1.07 -10.89,2 -16.25,3.4 -4.8,1.25 -11.82,6.47 -8.74,11.5 0.31,0.86 0.71,1.71 1.18,2.5 1.03,1.73 2.07,3.46 3.21,5.12 2.74,4.02 5.53,8.01 8.31,12.01 1.72,2.48 3.43,4.98 5.18,7.44 0.97,1.37 1.98,2.73 3.29,3.8 1.23,1.01 2.48,1.98 3.66,3.06 1.38,1.27 3.07,1.63 4.93,1.12 1.06,-0.29 2.06,-0.72 3.02,-1.24 1.77,-0.96 3.53,-1.94 5.25,-2.99 7.43,-4.58 14.830005,-9.2 22.260005,-13.79 6.57,-4.06 13.08,-8.2 19.84,-11.94 1.25,-0.69 2.53,-1.3 3.81,-1.93 0.28,-0.14 0.63,-0.3 0.93,-0.08 0.33,0.24 0.19,0.6 0.1,0.91 -0.38,1.39 -1.09,2.63 -1.84,3.85 -1.46,2.37 -3.22,4.5 -5.1,6.55 -2.85,3.09 -5.93,5.94 -9.11,8.69 -5.02,4.34 -10.27,8.4 -15.49,12.48 -2.98,2.33 -5.910005,4.71 -8.840005,7.09 -1.17,0.95 -2.25,2.02 -3.17,3.23 -1.16,1.53 -1.71,3.25 -1.71,5.25 0.08,1.68 0.48,3.39 1.06,5.07 1.08,3.1 2.49,6.05 4.02,8.950002 4.490005,8.55 9.440005,16.83 14.460005,25.08 0.44,0.72 0.91,1.41 1.42,2.08 2.52,3.26 5.32,3.47 8.3,0.56 0.96,-0.93 1.84,-1.96 2.65,-3.03 2.2,-2.86 4.4,-5.72 6.51,-8.65 20.74,-28.740002 40.32,-58.240002 58.88,-88.440002 3.08,-5 6.05,-10.07 9.04,-15.13 0.98,-1.66 1.86,-3.3899996 2.46,-5.2299996 1.45,-4.42 -0.49,-7.48000001 -5.15,-7.98000001 z"
     id="path12" />
</svg>
