<?xml version="1.0" encoding="UTF-8" standalone="no"?>
<svg
   id="Paleta"
   viewBox="0 0 631.57183 568.79962"
   version="1.1"
   width="631.57184"
   height="568.79962"
   xmlns="http://www.w3.org/2000/svg"
   xmlns:svg="http://www.w3.org/2000/svg">
  <defs
     id="defs7">
    <style
       id="style2">.cls-1{fill:none;}.cls-2{fill:#fff;}.cls-3{fill:#ff791f;}.cls-4{fill:#3a3736;}.cls-5{clip-path:url(#clippath);}</style>
    <clipPath
       id="clippath">
      <path
         class="cls-1"
         d="m -619.36,426.32 c -1.01,16.3 -4.72,31.99 -11.47,46.91 -2.52,5.57 -5.57,10.81 -9.93,15.17 -10.74,10.76 -25.3,9.93 -34.68,-2.08 -6.28,-8.04 -8.78,-17.52 -9.52,-27.49 -1.81,-24.1 3.32,-46.63 16.23,-67.13 5.03,-7.97 11.36,-14.39 21.56,-15.99 11.56,-1.81 18.8,1.48 23.71,12.23 3.8,8.32 4.74,17.26 4.92,26.26 0.08,4.03 -0.53,8.07 -0.82,12.11 z M -768.74,578.6 c -11.69,-0.86 -23.01,-3.16 -33.28,-9.06 -18.69,-10.75 -20.11,-28.94 -2.14,-40.8 24.4,-16.11 51.22,-24.25 80.9,-19.03 6.64,1.17 12.91,3.35 18.58,7.01 13.88,8.97 16.75,24.11 7.15,37.62 -4.82,6.79 -11.34,11.58 -18.73,15.17 -16.61,8.07 -34.25,10.34 -52.49,9.08 z m 191.04,-3.79 c -14.72,-0.93 -27.36,-4.72 -38.81,-12.09 -5.41,-3.48 -10.23,-7.63 -13.36,-13.39 -4.93,-9.05 -2.91,-17.68 5.47,-23.62 2.86,-2.03 6,-3.56 9.35,-4.52 24.43,-6.98 49.03,-7.81 73.78,-1.79 4.83,1.17 9.31,3.19 13.31,6.16 10.38,7.7 12.26,19.69 3.91,29.56 -6.78,8.02 -14.95,14.49 -25.55,17.12 -9.64,2.4 -19.37,3.39 -28.11,2.57 z"
         id="path4" />
    </clipPath>
  </defs>
  <path
     class="cls-3"
     d="m 488.11937,469.2513 c 3.5,-10.47 6.02,-21.19 7.64,-32.12 6.87,-46.32 8.72,-92.95 8.85,-139.69 0,-3.45 1.34,-7.41 -0.64,-10.24 -2.65,-3.77 -7,-0.07 -10.5,-1 -0.27,-0.07 -0.58,-0.02 -0.87,-0.04 -5.94,-0.44 -9.48,-3.04 -10.29,-7.56 -0.72,-4.01 1.52,-7.97 6.09,-10.57 4.12,-2.34 8.75,-3.13 13.33,-3.74 13.22,-1.76 26.46,-3.34 39.7,-4.95 20.72,-2.52 41.51,-4.61 61.84,-9.57 7.91,-1.93 15.76,-4.13 22.51,-8.92 6.21,-4.4 7.31,-9.04 3.86,-15.83 -2.94,-5.8 -7.49,-10.28 -12.41,-14.41 -9.62,-8.08 -20.4,-14.39 -31.73,-19.63 -60.82,-28.13 -123.88,-49.22 -190.21,-59.91 -38.68,-6.23 -77.57,-10.75 -116.51,-14.98 -37.52,-3.84 -75.02,-7.83 -112.72,-9.55 -29.01,-1.32 -57.99,-1.37 -86.879999,2 -19.92,2.33 -39.58,5.89 -58.35,13.29 -6.49,2.56 -12.8700002,5.44 -18.0200002,10.3 -3.94002,3.72 -3.78000001,5.89 0.76,8.95 2.86,1.93 6.05,3.43 9.2200002,4.83 9.3,4.13 19.02,7.13 28.88,9.53 29.3,7.13 58.689999,13.89 87.969999,21.11 13.8,3.4 27.4,7.55 40.08,14.21 3.86,2.03 7.75,4.12 10.21,7.9 2.55,3.92 0.85,7.57 -3.75,8.27 -1.41,0.21 -2.89,-0.02 -4.33,-0.11 q -7.45,-0.47 -9.26,6.47 c -7.04,26.94 -13.65,53.97 -19.23,81.26 -10.42,50.99 -17.16,102.41 -17.81,154.51 -0.2,16.24 0.55,32.46 3.83,48.48 4.15,20.29 15.22,35.4 33.28,45.5 12.24,6.84 25.25,11.72 38.82,15.02 52.03,12.67 104.49,13.92 157.15,4.85 29.74,-5.12 57.75,-15.14 82.74,-32.54 22.08,-15.38 38.13,-35.42 46.73,-61.11 z"
     id="path13" />
  <path
     class="cls-4"
     d="m 209.61937,83.261298 c 2.78,-21.64 7.18,-41.76 14.65,-60.83 2.36,-6.02 5.02,-11.86 8.93,-16.5699997 6.5,-7.84 13.56,-7.81 19.46,0.06 3.02,4.03 5.05,8.9299997 6.89,13.9599997 4.3,11.75 7.46,24.09 9.81,36.78 2.23,12.07 4.14,24.25 6.16,36.39 0.35,2.12 0.58,4.29 0.8,6.45 2.19,22.310002 -5.42,37.230002 -22.5,44.240002 -5.03,2.07 -10.17,2.99 -15.34,2.92 -13.98,-0.17 -24.31,-10.52 -27.96,-27.93 -2.5,-11.9 -1.8,-24.140002 -0.9,-35.470002 z"
     id="path15" />
  <path
     class="cls-4"
     d="m 487.95937,85.401298 c -4.17,22.350002 -10.87,45.960002 -21.02,68.540002 -2.62,5.83 -5.69,11.42 -10.09,16.13 -6.8,7.3 -14.82,9.5 -24.42,6.03 -20.53,-7.42 -32.24,-27.5 -26.56,-48.42 5.97,-22 45.53,-62.500002 50.31,-66.240002 4.12,-3.22 8.57,-6.02 13.64,-7.48 9.53,-2.76 16.75,1.6 18.78,11.33 1.26,6.06 0.29,12.12 -0.64,20.12 z"
     id="path17" />
  <path
     class="cls-4"
     d="m 232.21937,276.5613 c 13.48,1.58 25.02,6.12 34.39,16.68 2.24,2.53 4.1,5.38 4.63,9.15 0.71,5.02 -1.98,7.76 -5.92,6.07 -1.08,-0.46 -2.03,-1.33 -3.05,-1.99 -21.7,-14.29 -43.52,-15.11 -65.56,2.05 -2.2,1.71 -4.57,3.26 -7.02,4.28 -4.18,1.76 -8.4,-0.21 -10.37,-4.32 -1.81,-3.8 -1.22,-8.8 1.7,-12.64 1.12,-1.47 2.5,-2.72 3.91,-3.79 14.84,-11.31 30.82,-16.71 47.28,-15.49 z"
     id="path19" />
  <path
     class="cls-4"
     d="m 331.90937,192.6513 c 16.4,6.58 25.12,26.76 18.74,43.4 -0.51,1.32 -1.12,2.65 -1.94,3.78 -2.03,2.8 -4.31,5.95 -8.2,4.98 -4.36,-1.09 -3.71,-5.17 -3.65,-8.53 0.08,-4.59 -0.24,-9.11 -1.85,-13.45 -3.63,-9.77 -13.27,-13.98 -22.9,-9.94 -5.4,2.26 -9.39,6.23 -13,10.76 -5.51,6.89 -10.95,8.46 -15.93,4.94 -5.34,-3.77 -5.83,-10.46 -0.86,-17.38 7.56,-10.53 17.33,-17.97 30.36,-20.48 6.6,-1.27 13.03,-0.69 19.25,1.92 z"
     id="path21" />
  <path
     class="cls-4"
     d="m 392.18937,278.8313 c 18.75,3.35 33.99,10.8 41.34,27.38 2.05,4.63 3.17,9.44 1.03,14.17 -1.26,2.79 -3.72,4.73 -7.5,4.29 -3,-0.34 -4.09,-2.43 -4.98,-4.77 -6.87,-17.96 -21.25,-25.35 -42.49,-21.89 -6.44,1.05 -12.39,3.23 -18.27,5.61 -2.92,1.18 -5.92,2.29 -9.02,3.04 -4.52,1.09 -8.49,-0.04 -11.08,-3.7 -2.4,-3.4 -1.32,-6.62 1.11,-9.52 3.11,-3.7 7.35,-6.32 11.95,-8.4 11.79,-5.33 24.61,-6.68 37.9,-6.23 z"
     id="path23" />
  <path
     class="cls-4"
     d="m 363.60937,532.4013 c -23.87,7.51 -46.4,7.59 -65.88,-8.91 -5.44,-4.61 -9.92,-10.02 -10.59,-17.39 -0.39,-4.34 1.15,-8.35 5.81,-10.17 3.69,-1.44 6.34,0.53 8.91,2.94 19.84,18.55 41.33,18.92 63.56,1.2 6.74,-5.38 12.16,-11.89 17.36,-18.61 2.58,-3.33 5.31,-6.63 8.4,-9.53 4.5,-4.23 9.83,-5.27 15.24,-2.24 5.02,2.81 5.92,7.6 5.03,12.82 -1.14,6.66 -4.3,12.66 -8.23,18.19 -10.08,14.18 -23.98,23.95 -39.62,31.71 z"
     id="path25" />
</svg>
