<?xml version="1.0" encoding="UTF-8" standalone="no"?>
<svg
   id="Paleta"
   viewBox="0 0 631.57184 649.24536"
   version="1.1"
   width="631.57184"
   height="649.24536"
   xmlns="http://www.w3.org/2000/svg"
   xmlns:svg="http://www.w3.org/2000/svg">
  <defs
     id="defs7">
    <style
       id="style2">.cls-1{fill:none;}.cls-2{fill:#fff;}.cls-3{fill:#ff791f;}.cls-4{fill:#3a3736;}.cls-5{clip-path:url(#clippath);}</style>
    <clipPath
       id="clippath">
      <path
         class="cls-1"
         d="m 523.04,425.02 c -1.11,16.29 -3.41,32.09 -7.04,47.23 -1.36,5.66 -2.94,11 -5.07,15.52 -5.25,11.16 -11.75,10.92 -15.48,-0.67 -2.49,-7.76 -3.23,-17.12 -3.16,-27.02 0.16,-23.96 3.37,-46.62 9.99,-67.58 2.58,-8.15 5.68,-14.8 10.32,-16.81 5.26,-2.27 8.38,0.72 10.14,11.23 1.37,8.14 1.43,17.02 1.15,25.99 -0.13,4.02 -0.56,8.07 -0.86,12.11 z M 393.35,552.34 c -11.69,-0.86 -23.08,-2.16 -33.61,-4.59 -19.15,-4.42 -21.47,-10.4 -4.15,-13.37 23.52,-4.03 49.83,-5.35 79.67,-2.19 6.67,0.71 13.03,1.73 18.86,3.2 14.27,3.6 17.88,8.66 8.99,12.58 -4.47,1.97 -10.72,3.2 -17.91,4.01 -16.15,1.8 -33.61,1.67 -51.85,0.36 z m 190.16,8.2 c -14.72,-1.03 -27.49,-2.89 -39.27,-5.85 -5.56,-1.4 -10.57,-2.99 -13.98,-5.01 -5.36,-3.18 -3.78,-5.89 4.29,-7.41 2.75,-0.52 5.8,-0.86 9.09,-1.01 24,-1.06 48.47,-0.12 73.43,3.06 4.87,0.62 9.43,1.5 13.57,2.66 10.72,3.01 13.19,7.01 5.36,9.8 -6.36,2.27 -14.18,3.97 -24.61,4.3 -9.48,0.3 -19.14,0.15 -27.88,-0.55 z"
         id="path4" />
    </clipPath>
  </defs>
  <path
     class="cls-3"
     d="m 488.11936,549.69704 c 3.5,-10.47 6.02,-21.19 7.64,-32.12 6.87,-46.32 8.72,-92.95 8.85,-139.69 0,-3.45 1.34,-7.41 -0.64,-10.24 -2.65,-3.77 -7,-0.07 -10.5,-1 -0.27,-0.07 -0.58,-0.02 -0.87,-0.04 -5.94,-0.44 -9.48,-3.04 -10.29,-7.56 -0.72,-4.01 1.52,-7.97 6.09,-10.57 4.12,-2.34 8.75,-3.13 13.33,-3.74 13.22,-1.76 26.46,-3.34 39.7,-4.95 20.72,-2.52 41.51,-4.61 61.84,-9.57 7.91,-1.93 15.76,-4.13 22.51,-8.92 6.21,-4.4 7.31,-9.04 3.86,-15.83 -2.94,-5.8 -7.49,-10.28 -12.41,-14.41 -9.62,-8.08 -20.4,-14.39 -31.73,-19.63 -60.82,-28.13 -123.88,-49.22 -190.21,-59.91 -38.68,-6.23 -77.57,-10.75 -116.51,-14.98 -37.52,-3.84 -75.02,-7.83 -112.72,-9.55 -29.01,-1.32 -57.99,-1.37 -86.879997,2 -19.92,2.33 -39.58,5.89 -58.35,13.29 -6.49,2.56 -12.8700001,5.44 -18.0200001,10.3 -3.94,3.72 -3.77999999,5.89 0.76,8.95 2.86,1.93 6.05,3.43 9.2200001,4.83 9.3,4.13 19.02,7.13 28.88,9.53 29.3,7.13 58.689997,13.89 87.969997,21.11 13.8,3.4 27.4,7.55 40.08,14.21 3.86,2.03 7.75,4.12 10.21,7.9 2.55,3.92 0.85,7.57 -3.75,8.27 -1.41,0.21 -2.89,-0.02 -4.33,-0.11 q -7.45,-0.47 -9.26,6.47 c -7.04,26.94 -13.65,53.97 -19.23,81.26 -10.42,50.99 -17.16,102.41 -17.81,154.51 -0.2,16.24 0.55,32.46 3.83,48.48 4.15,20.29 15.22,35.4 33.28,45.5 12.24,6.84 25.25,11.72 38.82,15.02 52.03,12.67 104.49,13.92 157.15,4.85 29.74,-5.12 57.75,-15.14 82.74,-32.54 22.08,-15.38 38.13,-35.42 46.73,-61.11 z"
     id="path9" />
  <path
     class="cls-4"
     d="m 209.61936,163.70704 c 2.78,-21.64 7.18,-41.76 14.65,-60.83 2.36,-6.020005 5.02,-11.860005 8.93,-16.570005 6.5,-7.84 13.56,-7.81 19.46,0.06 3.02,4.03 5.05,8.93 6.89,13.960005 4.3,11.75 7.46,24.09 9.81,36.78 2.23,12.07 4.14,24.25 6.16,36.39 0.35,2.12 0.58,4.29 0.8,6.45 2.19,22.31 -5.42,37.23 -22.5,44.24 -5.03,2.07 -10.17,2.99 -15.34,2.92 -13.98,-0.17 -24.31,-10.52 -27.96,-27.93 -2.5,-11.9 -1.8,-24.14 -0.9,-35.47 z"
     id="path11" />
  <path
     class="cls-4"
     d="m 487.95936,165.84704 c -4.17,22.35 -10.87,45.96 -21.02,68.54 -2.62,5.83 -5.69,11.42 -10.09,16.13 -6.8,7.3 -14.82,9.5 -24.42,6.03 -20.53,-7.42 -32.24,-27.5 -26.56,-48.42 5.97,-22 45.53,-62.5 50.31,-66.24 4.12,-3.22 8.57,-6.02 13.64,-7.48 9.53,-2.76 16.75,1.6 18.78,11.33 1.26,6.06 0.29,12.12 -0.64,20.12 z"
     id="path13" />
  <g
     class="cls-5"
     clip-path="url(#clippath)"
     id="g23"
     transform="translate(-184.20064,-144.14296)">
    <rect
       class="cls-2"
       x="212.73"
       y="246.12"
       width="1226.88"
       height="719.84003"
       transform="rotate(4.19,825.27677,605.41658)"
       id="rect15" />
    <path
       class="cls-4"
       d="m 361.28,538.58 c -1.12,10.33 0.31,21.15 4.88,29.74 4.57,8.59 12.45,14.65 20.93,14.89 10.55,0.3 20.76,-8.66 25.09,-20.59 4.33,-11.93 3.12,-26.09 -2.03,-37.17 -4.49,-9.64 -17.14,-26.31 -27.56,-24.79 -12.15,1.77 -19.96,25.51 -21.31,37.92 z"
       id="path17" />
    <path
       class="cls-4"
       d="m 588.31,558.22 c 4.16,-8.59 6.22,-18.41 4.81,-27.29 -1.41,-8.88 -6.53,-16.63 -13.96,-19.53 -9.25,-3.61 -21.04,0.91 -28.54,9.86 -7.49,8.95 -10.77,21.6 -9.6,32.82 1.02,9.77 7.1,28.22 16.8,30.21 11.3,2.32 25.5,-15.75 30.5,-26.07 z"
       id="path19" />
    <path
       class="cls-4"
       d="m 477.91,441.38 c -1.7,4.98 -0.43,10.86 4.59,16.4 5.02,5.54 14,10.63 23.91,12.91 12.32,2.84 24.59,0.86 30.1,-4.12 5.51,-4.98 4.62,-12.51 -0.99,-19.47 -4.89,-6.06 -19.05,-17.77 -31.29,-19.65 -14.27,-2.19 -24.28,7.93 -26.32,13.92 z"
       id="path21" />
  </g>
  <path
     class="cls-4"
     d="m 327.49936,587.72704 c 3.78,-1.93 7.46,-4.11 11.38,-5.72 5.32,-2.18 10.02,-0.56 12.51,3.81 2.4,4.21 1.2,9.42 -3.11,12.83 -1.31,1.04 -2.83,1.95 -4.39,2.54 -7.92,3.03 -15.87,6 -23.86,8.84 -1.84,0.65 -3.86,0.92 -5.82,1.07 -2.72,0.21 -5.04,-0.72 -6.36,-3.3 -1.31,-2.57 -0.65,-4.97 0.94,-7.16 2.2,-3.03 5.15,-5.29 8.33,-7.14 3.42,-1.99 7.04,-3.64 10.57,-5.44 -0.06,-0.12 -0.12,-0.23 -0.18,-0.35 z"
     id="path25" />
  <path
     class="cls-4"
     d="m 279.56936,36.377035 c 5.81,3.94 14.11,3.74 19.73,-0.46 4.6,-3.45 7.2,-9.12 7.84,-14.84 1.01,-9.02 0.52,-15.5899998 -8.03,-16.3699998 -4.23,-0.39 -12.2,-0.05 -16.3,1.61 -12.37,4.9899998 -14.21,22.6299998 -3.24,30.0599998 z"
     id="path27" />
  <path
     class="cls-4"
     d="m 333.92936,29.857035 c 3.18,9.52 14.15,15.44 24.02,13.58 9.86,-1.86 17.74,-10.77 19.15,-20.71 0.71,-4.97 -0.09,-10.24 -2.69,-14.5299998 -2.61,-4.29 -7.12,-7.51000005 -12.11,-8.08000005 -14.51,-1.64999995 -33.46,14.43999985 -28.36,29.73999985 z"
     id="path29" />
  <path
     class="cls-4"
     d="m 423.90936,39.837035 c 6.31,1.59 13.47,-0.94 17.37,-6.15 2.91,-3.88 3.98,-8.8 4.9,-13.56 0.58,-3.05 1.12,-6.29 -0.05,-9.17 -1.86,-4.5599998 -7.26,-6.4899998 -12.14,-7.1399998 -4.89,-0.64 -9.97,-0.49 -14.6,1.2 -4.63,1.69 -8.78,5.0599998 -10.71,9.5999998 -4.14,9.69 5.83,22.85 15.23,25.22 z"
     id="path31" />
</svg>
