<?xml version="1.0" encoding="UTF-8" standalone="no"?>
<svg
   id="Paleta"
   viewBox="0 0 782.58001 782.58002"
   version="1.1"
   width="782.58002"
   height="782.58002"
   xmlns="http://www.w3.org/2000/svg"
   xmlns:svg="http://www.w3.org/2000/svg">
  <defs
     id="defs7">
    <style
       id="style2">.cls-1{fill:none;}.cls-2{fill:#fff;}.cls-3{fill:#ff791f;}.cls-4{fill:#3a3736;}.cls-5{clip-path:url(#clippath);}</style>
    <clipPath
       id="clippath">
      <path
         class="cls-1"
         d="m -617.46,293.3 c 4.2,28.12 3.59,56.17 -2.47,84.02 -2.26,10.4 -5.56,20.43 -11.39,29.43 -14.38,22.21 -39.47,26.1 -59.8,9.07 -13.61,-11.4 -21.31,-26.64 -26.2,-43.33 -11.85,-40.37 -11.3,-80.57 3.24,-120.16 5.66,-15.4 14.1,-28.62 30.89,-35.05 19.01,-7.28 32.55,-4.31 44.81,12.19 9.5,12.78 14.34,27.66 17.92,42.92 1.6,6.83 2.04,13.94 3,20.92 z m 124.89,237.62 c -25.4,3.77 -48.28,1.91 -70.46,-6.48 -10.47,-3.96 -20.18,-9.27 -27.62,-17.94 -11.67,-13.61 -11.38,-29.03 0.73,-42.2 4.13,-4.49 8.91,-8.24 14.27,-11.09 39.05,-20.76 80.63,-31.12 124.95,-29.87 8.64,0.24 17,2.06 24.9,5.66 20.46,9.33 28.03,29.06 17.4,48.89 -8.63,16.12 -20.19,30.09 -37.26,38.43 -15.53,7.58 -31.75,12.81 -46.91,14.6 z"
         id="path4" />
    </clipPath>
  </defs>
  <circle
     class="cls-4"
     cx="391.29001"
     cy="391.29001"
     r="391.29001"
     id="circle13" />
  <path
     class="cls-3"
     d="m 230.23004,169.06002 c 18.94,7.46 36.53,20.14 52.53,35.39 11.77,11.22 23.08,24.47 28.94,41.93 5.86,17.47 4.95,40 -5.48,53.29 -7.93,10.11 -19.62,13.16 -30.67,13.87 -29,1.85 -59.03,-10.28 -79.99,-36.63 -14.84,-18.65 -24.53,-44.62 -26.17,-71.55 -1.29,-21.11 0.75,-41.45 19.45,-43.27 13.82,-1.35 28.2,1.76 41.4,6.96 z"
     id="path15" />
  <path
     class="cls-3"
     d="m 436.12004,423.77002 c 5.85,-13.39 11.45,-27.07 13.72,-41.51 2.28,-14.44 0.98,-29.87 -6.29,-42.55 -9.84,-17.17 -30.3,-27.2 -50.05,-25.86 -19.75,1.34 -38.13,13.38 -48.52,30.23 -10.39,16.85 -13.01,37.97 -8.5,57.25 4.63,19.82 23.4,54.17 42.16,64.17 27.36,14.58 48.77,-21.79 57.48,-41.72 z"
     id="path17" />
  <path
     class="cls-3"
     d="m 552.35004,169.06002 c -18.94,7.46 -36.53,20.14 -52.53,35.39 -11.77,11.22 -23.08,24.47 -28.94,41.93 -5.86,17.47 -4.95,40 5.48,53.29 7.93,10.11 19.62,13.16 30.67,13.87 29,1.85 59.03,-10.28 79.99,-36.63 14.84,-18.65 24.53,-44.62 26.17,-71.55 1.29,-21.11 -0.75,-41.45 -19.45,-43.27 -13.82,-1.35 -28.2,1.76 -41.4,6.96 z"
     id="path19" />
  <path
     class="cls-3"
     d="m 574.81004,467.47002 c 20.95,6.43 40.86,19.62 50.41,40.42 9.55,20.81 5.92,49.86 -11.97,64.69 -12.32,10.21 -28.64,12.21 -43.8,11.72 -35.19,-1.13 -69.45,-13.74 -97.11,-35.72 -11.62,-9.24 -23.16,-23.13 -21.8,-40.32 1.33,-16.77 18.28,-25.55 31.03,-31.88 29.32,-14.56 63.09,-18.16 93.24,-8.91 z"
     id="path21" />
  <path
     class="cls-3"
     d="m 207.78004,467.47002 c -20.95,6.43 -40.86,19.62 -50.41005,40.42 -9.55,20.81 -5.92,49.86 11.97005,64.69 12.32,10.21 28.64,12.21 43.8,11.72 35.19,-1.13 69.45,-13.74 97.11,-35.72 11.62,-9.24 23.16,-23.13 21.8,-40.32 -1.33,-16.77 -18.28,-25.55 -31.03,-31.88 -29.32,-14.56 -63.09,-18.16 -93.24,-8.91 z"
     id="path23" />
</svg>
