<?xml version="1.0" encoding="UTF-8" standalone="no"?>
<svg
   id="Paleta"
   viewBox="0 0 787.85999 851.54999"
   version="1.1"
   width="787.85999"
   height="851.54999"
   xmlns="http://www.w3.org/2000/svg"
   xmlns:svg="http://www.w3.org/2000/svg">
  <defs
     id="defs13">
    <style
       id="style2">.cls-1{fill:none;}.cls-2{fill:#ede9e2;}.cls-3{clip-path:url(#clippath-1);}.cls-4{clip-path:url(#clippath-2);}.cls-5{fill:#fff;}.cls-6{fill:#ff791f;}.cls-7{fill:#3a3736;}.cls-8{fill:#b24128;}.cls-9{clip-path:url(#clippath);}</style>
    <clipPath
       id="clippath">
      <path
         class="cls-1"
         d="m -603.04,389.73 c -0.86,20.95 -5.18,41.2 -13.44,60.53 -3.08,7.22 -6.86,14.03 -12.33,19.74 -13.5,14.1 -32.21,13.44 -44.58,-1.72 -8.28,-10.15 -11.74,-22.25 -12.98,-35.03 -2.99,-30.89 2.98,-59.94 19,-86.61 6.23,-10.37 14.19,-18.78 27.24,-21.11 14.79,-2.64 24.18,1.39 30.77,15.05 5.11,10.58 6.56,22.03 7.03,33.58 0.21,5.17 -0.46,10.38 -0.73,15.57 z m -187.6,199.57 c -15.03,-0.79 -29.62,-3.42 -42.97,-10.72 -24.29,-13.29 -26.61,-36.6 -3.87,-52.32 30.89,-21.35 65.08,-32.53 103.33,-26.64 8.55,1.32 16.67,3.94 24.05,8.49 18.06,11.14 22.16,30.49 10.21,48.1 -6,8.85 -14.24,15.18 -23.63,19.99 -21.1,10.82 -43.68,14.21 -67.13,13.09 z m 245.14,-10.1 c -18.93,-0.79 -35.25,-5.31 -50.15,-14.46 -7.03,-4.32 -13.34,-9.52 -17.52,-16.82 -6.57,-11.48 -4.22,-22.61 6.38,-30.48 3.61,-2.68 7.6,-4.74 11.88,-6.06 31.17,-9.63 62.73,-11.36 94.67,-4.32 6.23,1.37 12.04,3.85 17.26,7.55 13.53,9.6 16.28,24.94 5.83,37.83 -8.49,10.48 -18.8,19 -32.33,22.68 -12.3,3.34 -24.78,4.88 -36.01,4.07 z"
         id="path4" />
    </clipPath>
    <clipPath
       id="clippath-1">
      <path
         class="cls-1"
         d="m -603.04,389.73 c -0.86,20.95 -5.18,41.2 -13.44,60.53 -3.08,7.22 -6.86,14.03 -12.33,19.74 -13.5,14.1 -32.21,13.44 -44.58,-1.72 -8.28,-10.15 -11.74,-22.25 -12.98,-35.03 -2.99,-30.89 2.98,-59.94 19,-86.61 6.23,-10.37 14.19,-18.78 27.24,-21.11 14.79,-2.64 24.18,1.39 30.77,15.05 5.11,10.58 6.56,22.03 7.03,33.58 0.21,5.17 -0.46,10.38 -0.73,15.57 z m -187.6,199.57 c -15.03,-0.79 -29.62,-3.42 -42.97,-10.72 -24.29,-13.29 -26.61,-36.6 -3.87,-52.32 30.89,-21.35 65.08,-32.53 103.33,-26.64 8.55,1.32 16.67,3.94 24.05,8.49 18.06,11.14 22.16,30.49 10.21,48.1 -6,8.85 -14.24,15.18 -23.63,19.99 -21.1,10.82 -43.68,14.21 -67.13,13.09 z m 245.14,-10.1 c -18.93,-0.79 -35.25,-5.31 -50.15,-14.46 -7.03,-4.32 -13.34,-9.52 -17.52,-16.82 -6.57,-11.48 -4.22,-22.61 6.38,-30.48 3.61,-2.68 7.6,-4.74 11.88,-6.06 31.17,-9.63 62.73,-11.36 94.67,-4.32 6.23,1.37 12.04,3.85 17.26,7.55 13.53,9.6 16.28,24.94 5.83,37.83 -8.49,10.48 -18.8,19 -32.33,22.68 -12.3,3.34 -24.78,4.88 -36.01,4.07 z"
         id="path7" />
    </clipPath>
    <clipPath
       id="clippath-2">
      <path
         class="cls-1"
         d="m 559.05,293.3 c 4.2,28.12 3.59,56.17 -2.47,84.02 -2.26,10.4 -5.56,20.43 -11.39,29.43 -14.38,22.21 -39.47,26.1 -59.8,9.07 -13.61,-11.4 -21.31,-26.64 -26.2,-43.33 -11.85,-40.37 -11.3,-80.57 3.24,-120.16 5.66,-15.4 14.1,-28.62 30.89,-35.05 19.01,-7.28 32.55,-4.31 44.81,12.19 9.5,12.78 14.34,27.66 17.92,42.92 1.6,6.83 2.04,13.94 3,20.92 z m 124.89,237.62 c -25.4,3.77 -48.28,1.91 -70.46,-6.48 -10.47,-3.96 -20.18,-9.27 -27.62,-17.94 -11.67,-13.61 -11.38,-29.03 0.73,-42.2 4.13,-4.49 8.91,-8.24 14.27,-11.09 39.05,-20.76 80.63,-31.12 124.95,-29.87 8.64,0.24 17,2.06 24.9,5.66 20.46,9.33 28.03,29.06 17.4,48.89 -8.63,16.12 -20.19,30.09 -37.26,38.43 -15.53,7.58 -31.75,12.81 -46.91,14.6 z"
         id="path10" />
    </clipPath>
  </defs>
  <path
     class="cls-2"
     d="m 505.04998,820.99 c -4.94,0 -9.69,-0.76 -14.1,-2.26 -12.31,-4.19 -19.83,-12.84 -25.31,-19.16 -7.26,-8.36 -11.56,-13.5 -13.95,-16.68 -1.12,-1.5 -3.04,-4.06 -4.28,-7.51 -1.53,-1.93 -4.71,-5.77 -11.28,-13.33 -1.11,-1.27 -3.83,-3.78 -6.76,-6.44 -11.77,1.14 -23.65,1.72 -35.45,1.72 -49.05,0 -96.64,-9.61 -141.45,-28.56 -43.27,-18.3 -82.14,-44.5 -115.5,-77.87 -33.37,-33.37 -59.57,-72.23 -77.87,-115.5 C 40.15,490.59 30.54,442.99 30.54,393.95 c 0,-49.04 9.61,-96.64 28.55998,-141.45 18.3,-43.28 44.5,-82.14 77.87,-115.5 33.37,-33.37 72.23,-59.57 115.5,-77.87 44.81,-18.95 92.41,-28.56 141.45,-28.56 49.04,0 96.64,9.61 141.45,28.56 43.27,18.3 82.14,44.5 115.5,77.87 33.37,33.37 59.57,72.23 77.87,115.5 18.95,44.81 28.56,92.41 28.56,141.45 0,74.36 -22.31,145.85 -64.51,206.75 -36.12,52.12 -84.53,93.45 -141.07,120.69 6.52,7.92 13.28,18.66 13.99,33.47 0.97,20.28 -11.78,44.03 -30.31,56.47 -9.43,6.33 -19.93,9.68 -30.36,9.68 v 0 z"
     id="path23" />
  <path
     class="cls-2"
     d="m 505.04998,851.53 v 0 c -8.3,0 -16.35,-1.31 -23.93,-3.89 -20.12,-6.85 -32.09,-20.64 -38.53,-28.04 -7.87,-9.06 -12.45,-14.56 -15.33,-18.4 -1.26,-1.68 -3.75,-5 -6.09,-9.68 -0.93,-1.11 -2.14,-2.54 -3.7,-4.36 -7.86,0.47 -15.73,0.7 -23.54,0.7 -53.16,0 -104.75,-10.42 -153.35,-30.98 -46.91,-19.84 -89.04,-48.24 -125.2,-84.4 C 79.21998,636.32 50.81998,594.19 30.98,547.28 10.42,498.68 0,447.09 0,393.93 0,340.77 10.42,289.18 30.98,240.58 c 19.83998,-46.91 48.23998,-89.04 84.39998,-125.2 36.16,-36.16 78.29,-64.56 125.2,-84.4 48.6,-20.55 100.19,-30.98 153.35,-30.98 53.16,0 104.75,10.42 153.35,30.98 46.92,19.84 89.04,48.24 125.2,84.4 36.16,36.16 64.56,78.29 84.4,125.2 20.55,48.6 30.98,100.19 30.98,153.35 0,80.6 -24.19,158.11 -69.95,224.15 -32.83,47.37 -75.63,86.99 -124.97,115.91 1.88,6.27 2.96,12.73 3.28,19.41 1.46,30.74 -16.54,64.98 -43.79,83.28 -14.48,9.73 -30.87,14.87 -47.38,14.87 z m -29.19,-87.33 c 0.09,0.12 0.19,0.26 0.28,0.37 2.78,3.71 10.14,12.19 12.56,14.97 4.08,4.69 7.6,8.74 12.1,10.28 1.23,0.42 2.66,0.63 4.26,0.63 4.34,0 8.95,-1.55 13.33,-4.49 10.57,-7.1 17.24,-21.07 16.83,-29.66 -0.25,-5.23 -2.3,-9.73 -7.06,-15.52 l -24.72,-30.04 35.04,-16.88 c 51.66,-24.89 96.35,-63.12 129.23,-110.57 38.65,-55.77 59.07,-121.24 59.07,-189.36 0,-44.94 -8.8,-88.53 -26.15,-129.56 -16.76,-39.64 -40.77,-75.23 -71.34,-105.81 -30.57,-30.57 -66.17,-54.57 -105.8,-71.34 -41.03,-17.35 -84.62,-26.15 -129.56,-26.15 -44.94,0 -88.53,8.8 -129.56,26.15 -39.63,16.76 -75.23,40.77 -105.8,71.34 -30.57,30.57 -54.57,66.17 -71.34,105.8 -17.35,41.03 -26.15,84.62 -26.15,129.56 0,44.94 8.8,88.53 26.15,129.56 16.76,39.63 40.77,75.23 71.34,105.8 30.57,30.57 66.17,54.57 105.8,71.34 41.03,17.35 84.62,26.15 129.56,26.15 10.78,0 21.72,-0.53 32.51,-1.57 l 13.45,-1.3 10.01,9.08 c 4.54,4.11 7.22,6.64 9.29,9.03 5.64,6.49 9.72,11.32 12.14,14.36 l 3.15,3.96 z"
     id="path25" />
  <circle
     class="cls-6"
     cx="393.93005"
     cy="393.92001"
     r="344.66"
     id="circle27" />
  <path
     class="cls-8"
     d="m 447.66998,720.75 c 3.38,4.06 6.84,8.2 11.27,10.9 4.42,2.71 10.06,3.78 14.66,1.41 6.57,-3.38 8.75,-12.69 6.78,-20.15 -1.98,-7.46 -7.05,-13.48 -11.96,-19.21 -29.57,-34.46 -59.14,-68.91 -88.7,-103.37 -6.21,-7.24 -14.77,-15.18 -23.48,-11.94 -30.74,11.45 18.63,54.84 27.93,66.01 21.17,25.45 42.35,50.89 63.52,76.34 z"
     id="path29" />
  <path
     class="cls-7"
     d="m 479.78998,787.28 c 4.82,5.54 9.76,11.17 17.21,13.71 7.45,2.54 17.97,1.48 27.97,-5.24 14.3,-9.6 22.63,-27.59 22.04,-40.02 -0.59,-12.43 -7.85,-20.61 -14.94,-28.35 -42.61,-46.55 -24.2,-26.44 -66.81,-73 -8.95,-9.78 -22.17,-19.58 -40.58,-9.09 -64.97,37.04 12.34,89.21 25.6,104.46 30.17,34.73 -0.67,2.8 29.51,37.53 z"
     id="path31" />
  <g
     class="cls-4"
     clip-path="url(#clippath-2)"
     id="g41"
     transform="translate(-106.07,-90.22)">
    <rect
       class="cls-5"
       x="42.369999"
       y="-130.98"
       width="2135.54"
       height="1252.98"
       transform="rotate(-7.87,1109.7537,495.39529)"
       id="rect33" />
    <path
       class="cls-7"
       d="m 240.21,571.13 c 1.7,18.01 8.93,35.8 21.84,48.47 12.9,12.68 31.73,19.69 49.55,16.57 22.15,-3.88 39.98,-23.36 44.35,-45.43 4.37,-22.06 -3.7,-45.62 -18.81,-62.28 -13.15,-14.5 -46.1,-37.54 -67.28,-30.62 -24.69,8.07 -31.69,51.65 -29.65,73.28 z"
       id="path35" />
    <path
       class="cls-7"
       d="m 659.94,470.09 c -8.24,-16.1 -21.53,-29.96 -38.21,-36.97 -16.68,-7.01 -36.76,-6.56 -52.17,2.92 -19.15,11.8 -28.51,36.49 -24.42,58.6 4.1,22.12 20.3,41.02 40.5,50.91 17.58,8.61 56.71,17.84 73.83,3.58 19.96,-16.63 10.36,-59.7 0.46,-79.05 z"
       id="path37" />
    <path
       class="cls-7"
       d="m 404.82,362.88 c -1.4,18.03 2.68,36.8 13.22,51.49 10.54,14.7 27.9,24.83 45.99,24.8 22.49,-0.03 43.39,-16.18 51.47,-37.17 8.08,-20.99 4.16,-45.58 -7.88,-64.58 -10.48,-16.54 -39,-44.88 -61.05,-41.68 -25.7,3.73 -40.06,45.46 -41.75,67.13 z"
       id="path39" />
  </g>
  <path
     class="cls-5"
     d="m 396.89998,408.89 c -4.51,-17.08 -25.7,-46.68 -34.86,-61.78 -29.46,-48.56 -91.92,-50.34 -147.36,-32.98 3.28,4.7 6.21,9.1 8.64,12.52 28.86,40.5 48.69,87.49 57.1,136.53 7.38,42.99 5.57,89.51 -16.63,127.06 -2.5,4.23 -5.33,8.3 -8.4,12.18 26.11,-4.05 51.55,-13.92 74.26,-27.56 22.18,-13.32 42.81,-30.92 53.88,-54.31 18.07,-38.17 24.16,-70.83 13.37,-111.67 z"
     id="path43" />
  <path
     class="cls-7"
     d="m 280.41998,463.18 c -8.41,-49.04 -28.24,-96.03 -57.1,-136.53 -2.43,-3.42 -5.36,-7.82 -8.64,-12.52 -33.23,10.41 -63.93,27.7 -83.48,45.91 -13.02,12.13 -24.62,26.35 -30.66,43.08 -7.25,20.07 -6.01,42.07 -4.68,63.37 1.19,19.03 2.43,38.32 8.61,56.36 14.31,41.8 54.87,71.59 98.37,79.31 17.41,3.09 35.13,2.97 52.56,0.26 3.08,-3.88 5.9,-7.95 8.4,-12.18 22.2,-37.55 24.01,-84.07 16.63,-127.06 z"
     id="path45" />
  <path
     class="cls-8"
     d="m 414.94998,415.4 c -18.27,-64.29 -76.49,-115.47 -142.56,-125.34 -116.25,-17.35 -231,95.51 -185.83,212.22 17.1,44.19 52.78,79.59 93.98,103.03 29.63,16.86 63.44,28.28 97.37,25.7 29.95,-2.28 58.48,-15.49 81.5,-34.72 51.13,-42.73 73.81,-116.6 55.54,-180.89 z m -38.02,108.1 c -27.96,45.74 -86.62,74.1 -143.63,69.45 -25.66,-2.1 -51.02,-10.58 -70.6,-25.92 -22.18,-17.37 -35.78,-42.42 -43.54,-68.18 -10.78,-35.82 -10.95,-75.2 5.5,-109.16 43.46,-89.69 181.73,-88.65 241.81,-14.62 34.15,42.07 38.42,102.69 10.46,148.43 z"
     id="path47" />
</svg>
