<?xml version="1.0" encoding="UTF-8" standalone="no"?>
<svg
   id="Paleta"
   viewBox="0 0 782.51001 782.52002"
   version="1.1"
   width="782.51001"
   height="782.52002"
   xmlns="http://www.w3.org/2000/svg"
   xmlns:svg="http://www.w3.org/2000/svg">
  <defs
     id="defs4">
    <style
       id="style2">.cls-1{fill:#ede9e2;}.cls-2{fill:#ff791f;}.cls-3{fill:#b24128;}</style>
  </defs>
  <path
     class="cls-1"
     d="M 703.03,98.63 H 683.89 V 79.49 c 0,-23.55 -19.09,-42.64 -42.64,-42.64 H 79.49 c -23.55,0 -42.64,19.09 -42.64,42.64 v 561.75 c 0,23.55 19.09,42.64 42.64,42.64 h 19.14 v 19.14 c 0,23.55 19.09,42.64 42.64,42.64 h 561.75 c 23.55,0 42.64,-19.09 42.64,-42.64 V 141.27 c 0,-23.55 -19.09,-42.64 -42.64,-42.64 z"
     id="path6" />
  <path
     class="cls-1"
     d="M 703.03,782.52 H 141.27 c -38.33,0 -70.4,-27.26 -77.86,-63.41 C 27.26,711.66 0,679.58 0,641.25 V 79.49 C 0,35.66 35.66,0 79.49,0 h 561.75 c 38.33,0 70.4,27.26 77.86,63.42 36.15,7.45 63.41,39.53 63.41,77.86 v 561.75 c 0,43.83 -35.66,79.49 -79.49,79.49 z M 79.49,73.7 c -3.19,0 -5.79,2.6 -5.79,5.79 v 561.75 c 0,3.19 2.6,5.79 5.79,5.79 h 55.99 v 55.99 c 0,3.19 2.6,5.79 5.79,5.79 h 561.75 c 3.19,0 5.79,-2.6 5.79,-5.79 V 141.27 c 0,-3.19 -2.6,-5.79 -5.79,-5.79 H 647.03 V 79.49 c 0,-3.19 -2.6,-5.79 -5.79,-5.79 z"
     id="path8" />
  <rect
     class="cls-3"
     x="98.629997"
     y="98.629997"
     width="647.03003"
     height="647.03003"
     rx="42.639999"
     ry="42.639999"
     id="rect10" />
  <rect
     class="cls-1"
     x="42.519993"
     y="42.519993"
     width="635.70001"
     height="635.70001"
     rx="36.970001"
     ry="36.970001"
     id="rect12" />
  <path
     class="cls-2"
     d="m 641.25,48.19 c 17.26,0 31.3,14.04 31.3,31.3 v 561.75 c 0,17.26 -14.04,31.3 -31.3,31.3 H 79.49 c -17.26,0 -31.3,-14.04 -31.3,-31.3 V 79.49 c 0,-17.26 14.04,-31.3 31.3,-31.3 h 561.75 m 0.01,-11.34 H 79.49 c -23.55,0 -42.64,19.09 -42.64,42.64 v 561.75 c 0,23.55 19.09,42.64 42.64,42.64 h 561.75 c 23.55,0 42.64,-19.09 42.64,-42.64 V 79.49 c 0,-23.55 -19.09,-42.64 -42.64,-42.64 v 0 z"
     id="path14" />
  <path
     class="cls-2"
     d="m 79.49,36.85 h 561.75 c 23.53,0 42.64,19.11 42.64,42.64 v 42.64 H 36.85 V 79.49 c 0,-23.53 19.11,-42.64 42.64,-42.64 z"
     id="path16" />
  <path
     class="cls-1"
     d="m 465.94,90.13 c -1.5,-0.08 -3.04,-0.15 -4.48,0.29 -2.09,0.65 -3.97,2.63 -2.82,5.22 0.37,0.83 1.02,1.52 1.8,1.98 2.12,1.26 4.6,1.03 6.96,0.78 10.8,-1.14 24.3,0.8 35.1,-0.34 0.52,-0.05 0.76,-0.59 0.84,-1.33 0.24,-2.3 -1.6,-4.29 -3.91,-4.42 -11.17,-0.64 -22.29,-1.67 -33.49,-2.18 z"
     id="path18" />
  <path
     class="cls-1"
     d="m 579.31,85.68 c 0.13,-4.33 0.25,-8.73 -0.88,-12.92 -1.13,-4.18 -3.7,-8.19 -7.64,-9.99 -5.95,-2.72 -12.61,-0.12 -18.74,0.32 -4.46,0.32 -9.89,-1.49 -14.18,-0.37 -8.9,2.33 -4.27,25.05 -4.13,32.24 0.02,1.46 0.08,3.03 0.96,4.21 1.38,1.86 4.09,1.92 6.4,1.81 9.07,-0.44 18.14,-0.89 27.21,-1.33 2.05,-0.1 4.19,-0.22 6,-1.2 4.22,-2.29 4.87,-7.96 5.01,-12.76 z m -9,7.56 c -10.13,2.71 -20.87,3.1 -31.17,1.13 0,-8.07 -4.38,-25.18 6.71,-27.82 2.39,-0.57 4.89,-0.45 7.35,-0.33 3.44,0.17 6.87,0.34 10.31,0.51 2.75,0.13 5.71,0.35 7.8,2.14 2.44,2.09 2.91,5.66 2.81,8.86 -0.17,5.36 -1.48,10.68 -3.81,15.51 z"
     id="path20" />
  <path
     class="cls-1"
     d="m 610.69,59.35 c -3.48,2.05 -4.14,7.08 -2.52,10.78 1.62,3.7 4.9,6.37 8.06,8.88 6.87,5.48 13.7,11.01 20.62,16.43 4.9,3.84 10.09,7.66 7.05,-1.47 -1.41,-4.25 -30.48,-36.24 -33.21,-34.63 z"
     id="path22" />
  <path
     class="cls-1"
     d="m 609.19,88.18 c -0.87,1.14 -1.74,2.35 -1.99,3.76 -0.25,1.41 0.29,3.06 1.6,3.65 1.51,0.68 3.22,-0.27 4.6,-1.19 8.86,-5.91 17.71,-11.81 26.57,-17.72 9.34,-6.23 7.27,-19.22 -4.2,-12.65 -9.61,5.51 -19.89,15.44 -26.58,24.15 z"
     id="path24" />
</svg>
