<?xml version="1.0" encoding="UTF-8" standalone="no"?>
<svg
   id="Paleta"
   viewBox="0 0 144.50909 158.46817"
   version="1.1"
   width="144.50909"
   height="158.46817"
   xmlns="http://www.w3.org/2000/svg"
   xmlns:svg="http://www.w3.org/2000/svg">
  <defs
     id="defs4">
    <style
       id="style2">.cls-1{fill:#ff791f;}.cls-2{fill:#3a3736;}</style>
  </defs>
  <path
     class="cls-2"
     d="m 34.972608,23.769755 c 6.26,-7.42 13.61,-13.37 22.56,-17.6499998 9.21,-4.41 19.02,-6.90000005 29.7,-5.90000005 14.270002,1.33000005 25.170002,8.05000005 32.860002,19.18999985 2.54,3.68 9.67,23.39 10.18,26.38 0.54,3.18 0.56,6.42 0.66,9.63 0.08,2.5 -0.88,4.72 -2.63,6.55 -2.45,2.55 -5.57,3.75 -9.42,2.68 -3.75,-1.04 -6.14,-3.4 -6.87,-6.92 -0.68,-3.22 -0.17,-6.41 0.15,-9.59 0.94,-9.35 -1.78,-18.02 -7.62,-25.95 -5.470002,-7.42 -13.110002,-11.22 -22.790002,-10.71 -16.43,0.87 -28.43,8.64 -39.11,19.5 2.89,1.57 5.27,0.53 7.54,0.74 1.97,0.19 3.99,-0.16 5.88,0.72 2.62,1.22 3.22,3.6 1.33,5.46 -0.57,0.56 -1.3,1.09 -2.09,1.35 -7.19,2.36 -14.7,3.76 -22.36,4.42 -3.76,0.33 -6.6,-1.9 -7.66,-5.71 -1.86,-6.71 -2.75,-13.53 -3.09,-20.38 -0.03,-0.6 0.07,-1.2 0.19,-1.78 0.38,-1.88 1.28,-3.45 3.56,-3.72 2.38,-0.28 3.7,1.18 4.53,2.98 0.69,1.5 1.13,3.09 1.74,4.62 0.51,1.29 0.46,2.84 2.74,4.1 z"
     id="path6" />
  <path
     class="cls-2"
     d="m 94.752608,127.60976 c -3.8,-2.51 -6.62,-4.71 -8.91,-7.47 -1.48,-1.78 -2.45,-3.81 -1.12,-6.03 1.35,-2.26 3.6,-2.4 5.83,-1.69 7.43,2.36 14.730002,5.07 21.830002,8.3 3.33,1.51 4.77,4.47 4.09,7.9 -1.54,7.87 -1.82,15.87 -2.94,23.77 -0.36,2.53 -0.43,5.45 -3.8,6.03 -2.33,0.41 -4.33,-1.81 -5.02,-5.68 -0.49,-2.74 -0.6,-5.55 -0.89,-8.33 -0.38,-3.63 -0.75,-3.93 -3.880002,-2.27 -6.04,3.2 -12.35,5.72 -19.02,7.11 -25.71,5.34 -48.61,-5.83 -56.57,-30.1 -1.58,-4.81 -2.19,-9.74 -1.6,-14.77 0.16,-1.37 0.48,-2.75 0.94,-4.06 0.33,-0.950005 1.1,-1.660005 2.24,-1.690005 1.17,-0.04 1.93,0.69 2.26,1.630005 0.53,1.49 0.88,3.06 1.21,4.61 4.43,20.32 21.14,32.39 41.84,30.14 7.95,-0.86 15.73,-2.31 23.51,-7.39 z"
     id="path8" />
  <path
     class="cls-1"
     d="m 127.29261,88.629755 c -9.53,1.46 -17.05,-0.4 -23.51,-6.01 -8.780002,-7.62 -9.190002,-20.65 -0.88,-28.74 3.44,-3.35 7.39,-5.06 12.46,-4.58 7.95,0.76 15.33,2.68 21.63,7.85 5.05,4.15 8.53,8.85 7.25,15.98 -1.31,7.29 -5.77,11.65 -12.28,14.28 -1.83,0.74 -3.85,1.01 -4.67,1.21 z"
     id="path10" />
  <path
     class="cls-1"
     d="m 27.842608,108.11976 c -6.7,0.65 -12.12,0.1 -17.3,-2.18 -10.86000035,-4.79 -13.8400004,-16.670005 -6.5400004,-26.060005 2.57,-3.3 5.87,-5.67 9.5800004,-7.47 2.23,-1.08 4.57,-1.94 6.9,-2.81 10.88,-4.1 24.58,1.98 28.92,12.91 2.08,5.24 0.97,10.16 -2.21,14.61 -5,7.010005 -12.41,9.710005 -19.35,11.000005 z"
     id="path12" />
</svg>
