<?xml version="1.0" encoding="UTF-8" standalone="no"?>
<svg
   id="Paleta"
   viewBox="0 0 1358.5699 792.5"
   version="1.1"
   width="1358.5699"
   height="792.5"
   xmlns="http://www.w3.org/2000/svg"
   xmlns:svg="http://www.w3.org/2000/svg">
  <defs
     id="defs4">
    <style
       id="style2">.cls-1{fill:#ede9e2;}.cls-2{fill:#ff791f;}.cls-3{fill:#3a3736;}</style>
  </defs>
  <rect
     class="cls-2"
     x="0"
     y="0"
     width="1358.5699"
     height="792.5"
     rx="48.990002"
     ry="48.990002"
     id="rect6" />
  <path
     class="cls-1"
     d="m 376.89,127.64 v 239.77 c 0,8.31 -6.74,15.05 -15.05,15.05 h -89.78 c -8.31,0 -15.05,-6.74 -15.05,-15.05 v -23.87 c 0,-8.31 -6.74,-15.05 -15.05,-15.05 v 0 c -8.31,0 -15.05,6.74 -15.05,15.05 v 23.87 c 0,8.31 -6.74,15.05 -15.05,15.05 h -89.78 c -8.31,0 -15.05,-6.74 -15.05,-15.05 V 127.64 c 0,-8.31 6.74,-15.05 15.05,-15.05 h 89.78 c 8.31,0 15.05,6.74 15.05,15.05 v 104.83 c 0,8.31 6.74,15.05 15.05,15.05 v 0 c 8.31,0 15.05,-6.74 15.05,-15.05 V 127.64 c 0,-8.31 6.74,-15.05 15.05,-15.05 h 89.78 c 8.31,0 15.05,6.74 15.05,15.05 z"
     id="path8" />
  <path
     class="cls-1"
     d="M 604.71,112.58 H 455.26 c -4.09,0 -8.01,1.67 -10.85,4.61 l -0.36,0.37 c -30.26,31.43 -47.16,73.37 -47.16,116.99 V 367.4 c 0,8.31 6.74,15.05 15.05,15.05 h 84.73 c 8.31,0 15.05,-6.74 15.05,-15.05 v -23.87 c 0,-8.31 6.74,-15.05 15.05,-15.05 h 10.1 c 8.31,0 15.05,6.74 15.05,15.05 v 23.87 c 0,8.31 6.74,15.05 15.05,15.05 h 84.73 c 8.31,0 15.05,-6.74 15.05,-15.05 V 238.25 c 0,-45.82 -18.64,-89.66 -51.62,-121.46 v 0 c -2.81,-2.7 -6.55,-4.22 -10.45,-4.22 z m -67.82,134.94 h -10.1 c -8.31,0 -15.05,-6.74 -15.05,-15.05 V 208.6 c 0,-8.31 6.74,-15.05 15.05,-15.05 h 10.1 c 8.31,0 15.05,6.74 15.05,15.05 v 23.87 c 0,8.31 -6.74,15.05 -15.05,15.05 z"
     id="path10" />
  <path
     class="cls-1"
     d="m 913.34,256.17 v 0 c -5.88,5.88 -5.88,15.41 0,21.29 l 38.92,38.92 c 2.82,2.82 4.41,6.65 4.41,10.65 v 40.38 c 0,8.31 -6.74,15.05 -15.05,15.05 h -80.78 c -10.45,0 -19,-8.55 -19,-19 v -19.92 c 0,-8.31 -6.74,-15.05 -15.05,-15.05 h -10.1 c -8.31,0 -15.05,6.74 -15.05,15.05 v 23.87 c 0,8.31 -6.74,15.05 -15.05,15.05 h -84.73 c -8.31,0 -15.05,-6.74 -15.05,-15.05 V 127.64 c 0,-8.31 6.74,-15.05 15.05,-15.05 h 84.73 c 8.31,0 15.05,6.74 15.05,15.05 v 104.83 c 0,8.31 6.74,15.05 15.05,15.05 h 10.1 c 8.31,0 15.05,-6.74 15.05,-15.05 V 127.64 c 0,-8.31 6.74,-15.05 15.05,-15.05 h 84.73 c 8.31,0 15.05,6.74 15.05,15.05 v 23.92 c 0,39.24 -15.59,76.87 -43.33,104.61 z"
     id="path12" />
  <path
     class="cls-1"
     d="m 1242.52,127.64 v 129.15 c 0,45.82 -18.64,89.66 -51.62,121.46 v 0 c -2.81,2.7 -6.55,4.22 -10.45,4.22 H 1031 c -4.09,0 -8.01,-1.67 -10.85,-4.61 l -0.36,-0.37 C 989.53,346.06 972.63,304.12 972.63,260.5 V 127.65 c 0,-8.31 6.74,-15.05 15.05,-15.05 h 88.67 c 6.13,0 11.11,4.97 11.11,11.11 v 108.78 c 0,8.31 6.74,15.05 15.05,15.05 h 10.1 c 8.31,0 15.05,-6.74 15.05,-15.05 V 127.66 c 0,-8.31 6.74,-15.05 15.05,-15.05 h 84.73 c 8.31,0 15.05,6.74 15.05,15.05 z"
     id="path14" />
  <path
     class="cls-1"
     d="M 604.71,410.04 H 455.26 c -4.09,0 -8.01,1.67 -10.85,4.61 l -0.36,0.37 c -30.26,31.43 -47.16,73.37 -47.16,116.99 v 132.85 c 0,8.31 6.74,15.05 15.05,15.05 h 84.73 c 8.31,0 15.05,-6.74 15.05,-15.05 v -23.87 c 0,-8.31 6.74,-15.05 15.05,-15.05 h 10.1 c 8.31,0 15.05,6.74 15.05,15.05 v 23.87 c 0,8.31 6.74,15.05 15.05,15.05 h 84.73 c 8.31,0 15.05,-6.74 15.05,-15.05 V 535.71 c 0,-45.82 -18.64,-89.66 -51.62,-121.46 v 0 c -2.81,-2.7 -6.55,-4.22 -10.45,-4.22 z m -67.82,134.94 h -10.1 c -8.31,0 -15.05,-6.74 -15.05,-15.05 v -23.87 c 0,-8.31 6.74,-15.05 15.05,-15.05 h 10.1 c 8.31,0 15.05,6.74 15.05,15.05 v 23.87 c 0,8.31 -6.74,15.05 -15.05,15.05 z"
     id="path16" />
  <path
     class="cls-1"
     d="m 913.34,553.62 v 0 c -5.88,5.88 -5.88,15.41 0,21.29 l 38.92,38.92 c 2.82,2.82 4.41,6.65 4.41,10.65 v 40.38 c 0,8.31 -6.74,15.05 -15.05,15.05 h -80.78 c -10.45,0 -19,-8.55 -19,-19 v -19.92 c 0,-8.31 -6.74,-15.05 -15.05,-15.05 h -10.1 c -8.31,0 -15.05,6.74 -15.05,15.05 v 23.87 c 0,8.31 -6.74,15.05 -15.05,15.05 h -84.73 c -8.31,0 -15.05,-6.74 -15.05,-15.05 V 425.09 c 0,-8.31 6.74,-15.05 15.05,-15.05 h 84.73 c 8.31,0 15.05,6.74 15.05,15.05 v 104.83 c 0,8.31 6.74,15.05 15.05,15.05 h 10.1 c 8.31,0 15.05,-6.74 15.05,-15.05 V 425.09 c 0,-8.31 6.74,-15.05 15.05,-15.05 h 84.73 c 8.31,0 15.05,6.74 15.05,15.05 v 23.92 c 0,39.24 -15.59,76.87 -43.33,104.61 z"
     id="path18" />
  <path
     class="cls-1"
     d="m 1242.52,425.09 v 129.15 c 0,45.82 -18.64,89.66 -51.62,121.46 v 0 c -2.81,2.7 -6.55,4.22 -10.45,4.22 H 1031 c -4.09,0 -8.01,-1.67 -10.85,-4.61 l -0.36,-0.37 C 989.53,643.51 972.63,601.57 972.63,557.95 V 425.1 c 0,-8.31 6.74,-15.05 15.05,-15.05 h 84.73 c 8.31,0 15.05,6.74 15.05,15.05 v 104.83 c 0,8.31 6.74,15.05 15.05,15.05 h 10.1 c 8.31,0 15.05,-6.74 15.05,-15.05 V 425.1 c 0,-8.31 6.74,-15.05 15.05,-15.05 h 84.73 c 8.31,0 15.05,6.74 15.05,15.05 z"
     id="path20" />
  <path
     class="cls-1"
     d="M 361.83,410.04 H 122.05 c -8.31,0 -15.05,6.74 -15.05,15.05 v 77.84 c 0,8.31 6.74,15.05 15.05,15.05 h 70.24 c 10.76,0 18.05,10.97 13.88,20.89 v 0 c -13,30.93 -19.7,64.15 -19.7,97.7 v 28.28 c 0,8.31 6.74,15.05 15.05,15.05 h 80.83 c 8.31,0 15.05,-6.74 15.05,-15.05 v -28.28 c 0,-33.55 -6.7,-66.77 -19.7,-97.7 v 0 c -4.17,-9.92 3.12,-20.89 13.88,-20.89 h 70.24 c 8.31,0 15.05,-6.74 15.05,-15.05 v -77.84 c 0,-8.31 -6.74,-15.05 -15.05,-15.05 z"
     id="path22" />
  <path
     class="cls-3"
     d="m 1287.75,622.07 c -26.98,-8.18 -48.1,-29.3 -56.28,-56.28 v 0 c -3.2,-10.57 -18.17,-10.57 -21.37,0 v 0 c -8.18,26.99 -29.3,48.1 -56.28,56.28 v 0 c -10.57,3.2 -10.57,18.17 0,21.37 v 0 c 26.98,8.18 48.1,29.29 56.28,56.28 v 0 c 3.2,10.57 18.17,10.57 21.37,0 v 0 c 8.18,-26.98 29.29,-48.1 56.28,-56.28 v 0 c 10.57,-3.2 10.57,-18.17 0,-21.37 z"
     id="path24" />
  <path
     class="cls-3"
     d="m 1322.95,556.08 c -10.85,-3.29 -19.35,-11.79 -22.64,-22.64 v 0 c -2.31,-7.61 -13.08,-7.61 -15.39,0 v 0 c -3.29,10.86 -11.79,19.35 -22.64,22.64 v 0 c -7.61,2.31 -7.61,13.08 0,15.39 v 0 c 10.85,3.29 19.35,11.78 22.64,22.64 v 0 c 2.31,7.61 13.08,7.61 15.39,0 v 0 c 3.29,-10.86 11.79,-19.35 22.64,-22.64 v 0 c 7.61,-2.31 7.61,-13.08 0,-15.39 z"
     id="path26" />
  <path
     class="cls-2"
     d="m 1205.97,615.68 -10.25,26.92 c -0.59,1.54 0.55,3.2 2.2,3.2 h 3.95 c 1.01,0 1.91,-0.65 2.23,-1.6 l 0.72,-2.12 c 0.32,-0.96 1.22,-1.6 2.23,-1.6 h 7.76 c 1.02,0 1.92,0.65 2.24,1.62 l 0.69,2.09 c 0.32,0.97 1.22,1.62 2.24,1.62 h 4.13 c 1.65,0 2.79,-1.65 2.21,-3.19 l -10.13,-26.92 c -0.35,-0.92 -1.22,-1.53 -2.21,-1.53 h -5.81 c -0.98,0 -1.85,0.6 -2.2,1.52 z m 2.79,14.75 v 0 c 0.72,-2.15 3.76,-2.14 4.47,0.02 v 0 c 0.5,1.52 -0.63,3.09 -2.24,3.09 v 0 c -1.61,0 -2.75,-1.58 -2.23,-3.11 z"
     id="path28" />
  <rect
     class="cls-2"
     x="1230.41"
     y="614.15997"
     width="8.8900003"
     height="31.639999"
     rx="2.3599999"
     ry="2.3599999"
     id="rect30" />
</svg>
