<?xml version="1.0" encoding="UTF-8" standalone="no"?>
<svg
   id="Paleta"
   viewBox="0 0 631.57185 568.79962"
   version="1.1"
   width="631.57184"
   height="568.79962"
   xmlns="http://www.w3.org/2000/svg"
   xmlns:svg="http://www.w3.org/2000/svg">
  <defs
     id="defs10">
    <style
       id="style2">.cls-1{fill:none;}.cls-2{fill:#ede9e2;}.cls-3{clip-path:url(#clippath-1);}.cls-4{fill:#ff791f;}.cls-5{fill:#3a3736;}.cls-6{clip-path:url(#clippath);}</style>
    <clipPath
       id="clippath">
      <path
         class="cls-1"
         d="m -650.8,426.95 c -1.44,16.29 -5.55,31.89 -12.69,46.65 -2.67,5.51 -5.86,10.67 -10.33,14.92 -11.03,10.48 -25.58,9.28 -34.65,-2.98 -6.07,-8.21 -8.33,-17.76 -8.82,-27.75 -1.19,-24.17 4.52,-46.57 17.98,-66.75 5.23,-7.85 11.74,-14.1 21.99,-15.44 11.61,-1.51 18.78,1.97 23.41,12.85 3.59,8.42 4.3,17.4 4.24,26.41 -0.02,4.04 -0.74,8.07 -1.14,12.1 z m -153.42,148.52 c -11.67,-1.16 -22.94,-3.75 -33.07,-9.93 -18.43,-11.24 -19.38,-29.48 -1.09,-40.89 24.84,-15.49 51.88,-22.94 81.45,-16.95 6.61,1.34 12.83,3.68 18.41,7.5 13.66,9.34 16.14,24.56 6.18,37.83 -5,6.67 -11.64,11.3 -19.13,14.7 -16.83,7.65 -34.54,9.46 -52.76,7.73 z m 191.27,1.14 c -14.71,-1.31 -27.25,-5.43 -38.53,-13.1 -5.32,-3.62 -10.04,-7.9 -13.03,-13.74 -4.7,-9.18 -2.46,-17.76 6.09,-23.5 2.91,-1.95 6.09,-3.41 9.47,-4.28 24.63,-6.35 49.27,-6.55 73.88,0.11 4.8,1.3 9.23,3.44 13.16,6.51 10.19,7.97 11.76,20.02 3.15,29.68 -7,7.85 -15.34,14.11 -26.01,16.47 -9.7,2.15 -19.48,2.89 -28.2,1.85 z"
         id="path4" />
    </clipPath>
    <clipPath
       id="clippath-1">
      <path
         class="cls-1"
         d="m 543.72,426.95 c -1.44,16.29 -5.55,31.89 -12.69,46.65 -2.67,5.51 -5.86,10.67 -10.33,14.92 -11.03,10.48 -25.58,9.28 -34.65,-2.98 -6.07,-8.21 -8.33,-17.76 -8.82,-27.75 -1.19,-24.17 4.52,-46.57 17.98,-66.75 5.23,-7.85 11.74,-14.1 21.99,-15.44 11.61,-1.51 18.78,1.97 23.41,12.85 3.59,8.42 4.3,17.4 4.24,26.41 -0.02,4.04 -0.74,8.07 -1.14,12.1 z M 390.3,575.47 c -11.67,-1.16 -22.94,-3.75 -33.07,-9.93 -18.43,-11.24 -19.38,-29.48 -1.09,-40.89 24.84,-15.49 51.88,-22.94 81.45,-16.95 6.61,1.34 12.83,3.68 18.41,7.5 13.66,9.34 16.14,24.56 6.18,37.83 -5,6.67 -11.64,11.3 -19.13,14.7 -16.83,7.65 -34.54,9.46 -52.76,7.73 z m 191.27,1.14 c -14.71,-1.31 -27.25,-5.43 -38.53,-13.1 -5.32,-3.62 -10.04,-7.9 -13.03,-13.74 -4.7,-9.18 -2.46,-17.76 6.09,-23.5 2.91,-1.95 6.09,-3.41 9.47,-4.28 24.63,-6.35 49.27,-6.55 73.88,0.11 4.8,1.3 9.23,3.44 13.16,6.51 10.19,7.97 11.76,20.02 3.15,29.68 -7,7.85 -15.34,14.11 -26.01,16.47 -9.7,2.15 -19.48,2.89 -28.2,1.85 z"
         id="path7" />
    </clipPath>
  </defs>
  <path
     class="cls-2"
     d="m 488.11936,469.2513 c 3.5,-10.47 6.02,-21.19 7.64,-32.12 6.87,-46.32 8.72,-92.95 8.85,-139.69 0,-3.45 1.34,-7.41 -0.64,-10.24 -2.65,-3.77 -7,-0.07 -10.5,-1 -0.27,-0.07 -0.58,-0.02 -0.87,-0.04 -5.94,-0.44 -9.48,-3.04 -10.29,-7.56 -0.72,-4.01 1.52,-7.97 6.09,-10.57 4.12,-2.34 8.75,-3.13 13.33,-3.74 13.22,-1.76 26.46,-3.34 39.7,-4.95 20.72,-2.52 41.51,-4.61 61.84,-9.57 7.91,-1.93 15.76,-4.13 22.51,-8.92 6.21,-4.4 7.31,-9.04 3.86,-15.83 -2.94,-5.8 -7.49,-10.28 -12.41,-14.41 -9.62,-8.08 -20.4,-14.39 -31.73,-19.63 -60.82,-28.13 -123.88,-49.22 -190.21,-59.91 -38.68,-6.23 -77.57,-10.75 -116.51,-14.98 -37.52,-3.84 -75.02,-7.83 -112.72,-9.55 -29.01,-1.32 -57.99,-1.37 -86.879997,2 -19.92,2.33 -39.58,5.89 -58.35,13.29 -6.49,2.56 -12.8700001,5.44 -18.0200001,10.3 -3.94,3.72 -3.77999999,5.89 0.76,8.95 2.86,1.93 6.05,3.43 9.2200001,4.83 9.3,4.13 19.02,7.13 28.88,9.53 29.3,7.13 58.689997,13.89 87.969997,21.11 13.8,3.4 27.4,7.55 40.08,14.21 3.86,2.03 7.75,4.12 10.21,7.9 2.55,3.92 0.85,7.57 -3.75,8.27 -1.41,0.21 -2.89,-0.02 -4.33,-0.11 q -7.45,-0.47 -9.26,6.47 c -7.04,26.94 -13.65,53.97 -19.23,81.26 -10.42,50.99 -17.16,102.41 -17.81,154.51 -0.2,16.24 0.55,32.46 3.83,48.48 4.15,20.29 15.22,35.4 33.28,45.5 12.24,6.84 25.25,11.72 38.82,15.02 52.03,12.67 104.49,13.92 157.15,4.85 29.74,-5.12 57.75,-15.14 82.74,-32.54 22.08,-15.38 38.13,-35.42 46.73,-61.11 z"
     id="path16" />
  <path
     class="cls-5"
     d="m 209.61936,83.261298 c 2.78,-21.64 7.18,-41.76 14.65,-60.83 2.36,-6.02 5.02,-11.86 8.93,-16.5699997 6.5,-7.84 13.56,-7.81 19.46,0.06 3.02,4.03 5.05,8.9299997 6.89,13.9599997 4.3,11.75 7.46,24.09 9.81,36.78 2.23,12.07 4.14,24.25 6.16,36.39 0.35,2.12 0.58,4.29 0.8,6.45 2.19,22.310002 -5.42,37.230002 -22.5,44.240002 -5.03,2.07 -10.17,2.99 -15.34,2.92 -13.98,-0.17 -24.31,-10.52 -27.96,-27.93 -2.5,-11.9 -1.8,-24.140002 -0.9,-35.470002 z"
     id="path18" />
  <path
     class="cls-5"
     d="m 487.95936,85.401298 c -4.17,22.350002 -10.87,45.960002 -21.02,68.540002 -2.62,5.83 -5.69,11.42 -10.09,16.13 -6.8,7.3 -14.82,9.5 -24.42,6.03 -20.53,-7.42 -32.24,-27.5 -26.56,-48.42 5.97,-22 45.53,-62.500002 50.31,-66.240002 4.12,-3.22 8.57,-6.02 13.64,-7.48 9.53,-2.76 16.75,1.6 18.78,11.33 1.26,6.06 0.29,12.12 -0.64,20.12 z"
     id="path20" />
  <path
     class="cls-5"
     d="m 246.34936,525.9813 c 32.71,4.05 64.81,0.19 96.68,-7.05 3.66,-0.83 7.38,-1.47 11.11,-1.85 2.04,-0.21 4.23,0.4 4.85,2.79 0.6,2.33 -0.97,3.83 -2.72,4.96 -1.45,0.94 -3.03,1.7 -4.63,2.38 -35.61,15.23 -72.31,20.55 -110.52,12.12 -5.39,-1.19 -10.69,-2.68 -15.75,-4.9 -1.85,-0.81 -3.73,-1.66 -5.39,-2.79 -2.39,-1.63 -5.16,-3.48 -3.67,-6.95 1.26,-2.95 4.18,-2.61 6.82,-2.26 1.44,0.19 2.86,0.51 4.29,0.72 6.31,0.95 12.62,1.89 18.93,2.84 z"
     id="path22" />
  <g
     class="cls-3"
     clip-path="url(#clippath-1)"
     id="g32"
     transform="translate(-184.20062,-224.5887)">
    <rect
       class="cls-4"
       x="210.56"
       y="253.88"
       width="1228.15"
       height="720.59003"
       transform="rotate(5.67,824.12823,613.75185)"
       id="rect24" />
    <path
       class="cls-5"
       d="m 328.05,539.37 c -1.47,10.3 0.18,21.22 5.69,30.04 5.51,8.82 15.09,15.28 25.48,15.93 12.91,0.81 25.5,-7.68 30.91,-19.43 5.41,-11.75 4.07,-26 -2.14,-37.35 -5.4,-9.88 -20.72,-27.2 -33.5,-26.17 -14.89,1.19 -24.67,24.61 -26.44,36.99 z"
       id="path26" />
    <path
       class="cls-5"
       d="m 576.34,539.37 c -2.44,-10.11 -8.01,-19.65 -16.39,-25.81 -8.38,-6.16 -19.67,-8.62 -29.56,-5.39 -12.3,4.02 -20.85,16.56 -21.54,29.48 -0.69,12.92 5.83,25.67 15.79,33.92 8.67,7.18 29.31,17.61 40.8,11.94 13.4,-6.61 13.83,-31.99 10.89,-44.14 z"
       id="path28" />
    <path
       class="cls-5"
       d="m 456.69,414.9 c -3.21,9.89 -3.46,20.93 0.46,30.57 3.92,9.64 12.26,17.64 22.37,20.06 12.58,3.01 26.44,-3.21 33.78,-13.86 7.34,-10.65 8.46,-24.92 4.29,-37.17 -3.63,-10.66 -15.77,-30.34 -28.52,-31.52 -14.87,-1.38 -28.52,20.03 -32.38,31.92 z"
       id="path30" />
  </g>
</svg>
