<?xml version="1.0" encoding="UTF-8" standalone="no"?>
<svg
   id="Paleta"
   viewBox="0 0 173.64347 190.46666"
   version="1.1"
   width="173.64346"
   height="190.46666"
   xmlns="http://www.w3.org/2000/svg"
   xmlns:svg="http://www.w3.org/2000/svg">
  <defs
     id="defs4">
    <style
       id="style2">.cls-1{fill:#ff791f;}.cls-2{fill:#3a3736;}</style>
  </defs>
  <path
     class="cls-1"
     d="m 85.465096,55.795848 c 21.020004,0.02 40.450004,16.61 44.010004,36.68 2.4,13.540002 -0.53,25.770002 -8.46,36.890002 -2.09,2.93 -4.34,5.74 -6.41,8.68 -2.78,3.95 -4.79,8.21 -5.88,13 -2.26,9.96 -9.580004,14.16 -19.280004,11.42 -3.46,-0.98 -6.75,-2.49 -10.14,-3.6 -5.24,-1.72 -7.7,-5.2 -8.87,-10.27 -1.54,-6.67 -4.53,-12.77 -7.78,-18.77 -6.25,-11.53 -11.24,-23.47 -10.36,-37.010002 0.68,-10.46 3.65,-19.95 11.27,-27.66 6.31,-6.37 14.09,-8.79 21.9,-9.38 z"
     id="path6" />
  <path
     class="cls-2"
     d="m 131.2651,8.0458477 c -0.23,0.92 -0.45,2.1000003 -0.82,3.2300003 -3.88,11.99 -8.65,23.59 -14.76,34.62 -2.3,4.16 -4.39,5.58 -6.66,4.72 -2.31,-0.87 -2.97,-3.31 -2.03,-7.91 2.69,-13.11 8.71,-24.77 15.71,-36.0000003 0.52,-0.84 1.19,-1.62 1.92,-2.28 1.23,-1.11 2.66,-1.85 4.36,-1.11 1.94,0.85 2.33,2.56 2.28,4.72 z"
     id="path8" />
  <path
     class="cls-2"
     d="m 140.1651,72.505848 c -2.91,0.08 -5.1,-2.34 -4.9,-5.5 0.13,-2.04 1.06,-3.82 2.15,-5.49 4.61,-7.11 10.77,-12.7 17.57,-17.61 2.04,-1.47 4.35,-2.28 6.53,-0.28 1.98,1.81 1.47,4.05 0.29,6.01 -4.52,7.52 -9.51,14.68 -16.38,20.3 -1.54,1.26 -3.18,2.4 -5.27,2.57 z"
     id="path10" />
  <path
     class="cls-2"
     d="m 156.3951,97.665848 c 5.01,0.06 8.96,0.66 12.85,1.6 2.22,0.54 4.25,1.640002 4.39,4.270002 0.15,2.66 -1.74,4.01 -3.96,4.61 -7.75,2.1 -15.58,3.64 -23.68,2.45 -1.18,-0.17 -2.37,-0.48 -3.46,-0.94 -1.95,-0.83 -3.37,-2.23 -3.46,-4.48 -0.09,-2.26 1.26,-3.73 3.08,-4.78 2.85,-1.640002 6.11,-1.820002 9.25,-2.330002 1.96,-0.32 3.98,-0.32 4.99,-0.4 z"
     id="path12" />
  <path
     class="cls-2"
     d="m 23.065096,15.675848 c 1.92,0.18 3.35,1.31 4.56,2.65 7.62,8.47 14.83,17.26 21.08,26.81 0.54,0.82 0.92,1.78 1.18,2.73 0.35,1.23 0.03,2.39 -0.98,3.24 -1.02,0.87 -2.26,0.94 -3.35,0.3 -1.19,-0.7 -2.3,-1.58 -3.29,-2.55 -7.44,-7.28 -14.17,-15.17 -20.25,-23.61 -1.16,-1.61 -2.38,-3.25 -2.65,-5.31 -0.34,-2.61 1.28,-4.43 3.7,-4.27 z"
     id="path14" />
  <path
     class="cls-2"
     d="m 26.765096,94.485848 c -7.67,0.1 -14,-0.7 -20.0799998,-2.91 -4.95,-1.79 -7.34000003,-4.16 -6.53000003,-6.66 1.37000003,-4.2 5.10000003,-3.13 8.14000003,-3.02 8.4199998,0.3 16.6899998,1.8 24.8599998,3.74 4.3,1.02 6.17,2.75 5.64,5.03 -0.83,3.52 -3.83,3.65 -6.66,3.8 -2.19,0.11 -4.4,0.02 -5.38,0.02 z"
     id="path16" />
  <path
     class="cls-2"
     d="m 84.805096,29.245848 c 0.09,2.03 0.1,3.84 -0.63,5.54 -0.58,1.36 -1.51,2.38 -3.08,2.51 -1.59,0.13 -2.68,-0.74 -3.37,-2.04 -0.56,-1.05 -1.03,-2.18 -1.3,-3.34 -1.85,-7.78 -3.67,-15.57 -4.29,-23.5700003 -0.36,-4.74 1.23,-7.84999998 4.09,-8.28999998 2.93,-0.45 4.98,1.81999998 6.2,6.78999998 1.83,7.4400003 1.31,15.1200003 2.38,22.4000003 z"
     id="path18" />
  <path
     class="cls-2"
     d="m 92.885096,178.27585 c -6.79,-1.15 -13.64,-2.4 -19.77,-5.92 -2.88,-1.66 -3.96,-4.3 -2.89,-6.4 1.32,-2.6 3.77,-2.86 6.17,-2.27 6.59,1.61 12.74,4.39 18.64,7.7 1.63,0.91 2.85,2.31 2.22,4.39 -0.63,2.1 -2.42,2.39 -4.37,2.5 z"
     id="path20" />
  <path
     class="cls-2"
     d="m 86.375096,190.44585 c -4.85,-0.65 -9.86,-1.97 -14.66,-4.02 -1.89,-0.81 -3.7,-2.07 -3.24,-4.46 0.53,-2.8 2.94,-2.99 5.2,-2.87 5.28,0.29 10.15,2.12 14.87,4.34 2.03,0.95 4.19,2.22 3.3,4.93 -0.77,2.35 -3.1,2.11 -5.45,2.08 z"
     id="path22" />
</svg>
