<?xml version="1.0" encoding="UTF-8" standalone="no"?>
<svg
   id="Paleta"
   viewBox="0 0 910.06219 821.56287"
   version="1.1"
   width="910.06219"
   height="821.56287"
   xmlns="http://www.w3.org/2000/svg"
   xmlns:svg="http://www.w3.org/2000/svg">
  <defs
     id="defs10">
    <style
       id="style2">.cls-1{fill:none;}.cls-2{fill:#ede9e2;}.cls-3{clip-path:url(#clippath-1);}.cls-4{fill:#fff;}.cls-5{fill:#ff791f;}.cls-6{fill:#3a3736;}.cls-7{clip-path:url(#clippath);}</style>
    <clipPath
       id="clippath">
      <path
         class="cls-1"
         d="m 557.13,389.73 c -0.86,20.95 -5.18,41.2 -13.44,60.53 -3.08,7.22 -6.86,14.03 -12.33,19.74 -13.5,14.1 -32.21,13.44 -44.58,-1.72 -8.28,-10.15 -11.74,-22.25 -12.98,-35.03 -2.99,-30.89 2.98,-59.94 19,-86.61 6.23,-10.37 14.19,-18.78 27.24,-21.11 14.79,-2.64 24.18,1.39 30.77,15.05 5.11,10.58 6.56,22.03 7.03,33.58 0.21,5.17 -0.46,10.38 -0.73,15.57 z M 369.53,589.3 c -15.03,-0.79 -29.62,-3.42 -42.97,-10.72 -24.29,-13.29 -26.61,-36.6 -3.87,-52.32 30.89,-21.35 65.08,-32.53 103.33,-26.64 8.55,1.32 16.67,3.94 24.05,8.49 18.06,11.14 22.16,30.49 10.21,48.1 -6,8.85 -14.24,15.18 -23.63,19.99 -21.1,10.82 -43.68,14.21 -67.13,13.09 z m 245.14,-10.1 c -18.93,-0.79 -35.25,-5.31 -50.15,-14.46 -7.03,-4.32 -13.34,-9.52 -17.52,-16.82 -6.57,-11.48 -4.22,-22.61 6.38,-30.48 3.61,-2.68 7.6,-4.74 11.88,-6.06 31.17,-9.63 62.73,-11.36 94.67,-4.32 6.23,1.37 12.04,3.85 17.26,7.55 13.53,9.6 16.28,24.94 5.83,37.83 -8.49,10.48 -18.8,19 -32.33,22.68 -12.3,3.34 -24.78,4.88 -36.01,4.07 z"
         id="path4" />
    </clipPath>
    <clipPath
       id="clippath-1">
      <path
         class="cls-1"
         d="m 557.13,389.73 c -0.86,20.95 -5.18,41.2 -13.44,60.53 -3.08,7.22 -6.86,14.03 -12.33,19.74 -13.5,14.1 -32.21,13.44 -44.58,-1.72 -8.28,-10.15 -11.74,-22.25 -12.98,-35.03 -2.99,-30.89 2.98,-59.94 19,-86.61 6.23,-10.37 14.19,-18.78 27.24,-21.11 14.79,-2.64 24.18,1.39 30.77,15.05 5.11,10.58 6.56,22.03 7.03,33.58 0.21,5.17 -0.46,10.38 -0.73,15.57 z M 369.53,589.3 c -15.03,-0.79 -29.62,-3.42 -42.97,-10.72 -24.29,-13.29 -26.61,-36.6 -3.87,-52.32 30.89,-21.35 65.08,-32.53 103.33,-26.64 8.55,1.32 16.67,3.94 24.05,8.49 18.06,11.14 22.16,30.49 10.21,48.1 -6,8.85 -14.24,15.18 -23.63,19.99 -21.1,10.82 -43.68,14.21 -67.13,13.09 z m 245.14,-10.1 c -18.93,-0.79 -35.25,-5.31 -50.15,-14.46 -7.03,-4.32 -13.34,-9.52 -17.52,-16.82 -6.57,-11.48 -4.22,-22.61 6.38,-30.48 3.61,-2.68 7.6,-4.74 11.88,-6.06 31.17,-9.63 62.73,-11.36 94.67,-4.32 6.23,1.37 12.04,3.85 17.26,7.55 13.53,9.6 16.28,24.94 5.83,37.83 -8.49,10.48 -18.8,19 -32.33,22.68 -12.3,3.34 -24.78,4.88 -36.01,4.07 z"
         id="path7" />
    </clipPath>
  </defs>
  <path
     class="cls-2"
     d="m 476.54778,818.94603 c -51.7,5.12 -103.66,2.72 -154.42,-7.14 -22.43,-4.35 -43.57,-11.43 -62.82,-21.03 -36.03,-17.97 -60.32,-48.09 -70.25,-87.11 -5.35,-21.05 -8.3,-43.91 -9.27,-71.96 -2.25,-64.87 2.33,-132.91 14.02,-208 4.49,-28.83 10.13,-59.44 17.6,-95.47 -1.55,-0.32 -3.06,-0.63 -4.52,-0.92 -20.74,-4.08 -41.96,-8.08 -62.48,-11.94 -17.13,-3.22 -34.26,-6.45 -51.380003,-9.77 -17.12,-3.32 -32.08,-7.52 -45.74,-12.82 -5.77,-2.24 -12.6,-5.1 -19.52,-9.29 -19.8899999,-12.06 -25.8399999,-28.26 -27.3299999,-39.73 -1.49,-11.46 0.11,-28.63 16.1999999,-45.35 11.89,-12.33 25.48,-19.39 37.21,-24.67 31.01,-13.95 62.100003,-20.21 85.740003,-24.11 11.73,-1.93 24.05,-3.55 36.63,-4.79 24.67,-2.44 50.8,-3.6 82.23,-3.66 2.67,0 5.37,0 8.09,0.01 3.04,-29.7 8.32,-55.039996 16.42,-78.989996 3.4,-10.04 8.45,-23.11 17.47,-35.1 11.7,-15.57 27.72,-25.1000001 45.12,-26.8200001 20.35,-2.02 40.21,6.73 54.48,24.0000001 8.11,9.83 13.07,20.34 16.85,29.33 6.97,16.58 12.61,34.29 17.25,54.129996 2.8,11.99 5.37,24.04 7.85,35.68 0.4,1.87 0.8,3.74 1.19,5.6 32.32,2.16 62.12,4.49 91.62,7.44 5.69,-10.03 13.64,-22.12 24.86,-36.79 13.31,-17.41 29.49,-35.999996 36.84,-42.319996 10.64,-9.16 21.34,-15.5 32.69,-19.37 5.42,-1.85 10.95,-3.06 16.42,-3.6 32.62,-3.23 61.28,17.39 69.71,50.129996 3.71,14.4 2.8,26.89 2,37.91 l -0.22,3.05 c -0.08,1.07 -0.19,2.15 -0.33,3.22 -1.91,13.84 -4.4,27.43 -7.44,40.68 36.11,10.42 72.82,23.19 109.63,38.16 20.33,8.26 37.59,17.9 52.76,29.47 9.09,6.93 20.65,16.84 29.28,32.04 16.47,29 10.17,60.97 -16.05,81.46 -14.31,11.19 -29.69,16.68 -44.17,20.94 -25.2,7.42 -50.05,11.57 -74.07,15.58 -3.35,0.56 -15.21,2.56 -15.21,2.56 -0.04,0.84 -0.08,1.59 -0.12,2.23 v 0.17 c 3.24,74.07 2.27,131.22 -3.15,185.15 -1.71,17.05 -4.87,33.81 -9.4,49.81 -11.94,42.22 -36.48,77.84 -72.94,105.87 -34.73,26.7 -74.88,44.83 -122.76,55.42 -22.14,4.9 -44.53,8.49 -66.55,10.67 z"
     id="path12" />
  <path
     class="cls-5"
     d="m 693.04778,634.03603 c 3.85,-13.63 6.43,-27.51 7.84,-41.62 6,-59.76 5.55,-119.62 2.9,-179.51 -0.2,-4.42 1.27,-9.58 -1.44,-13.08 -3.62,-4.67 -8.97,0.34 -13.51,-0.64 -0.35,-0.08 -0.74,0.02 -1.11,0 -7.63,-0.21 -12.33,-3.33 -13.63,-9.07 -1.16,-5.1 1.46,-10.3 7.17,-13.91 5.14,-3.25 11.02,-4.53 16.85,-5.59 16.83,-3.06 33.7,-5.88 50.57,-8.74 26.4,-4.48 52.9,-8.41 78.66,-16 10.02,-2.95 19.95,-6.25 28.31,-12.79 7.69,-6.02 8.81,-12.02 3.99,-20.52 -4.12,-7.25 -10.21,-12.72 -16.77,-17.72 -12.82,-9.77 -27.01,-17.2 -41.84,-23.23 -79.63,-32.37 -161.69,-55.58 -247.33,-65.26 -49.93,-5.65 -100.04,-9.09 -150.18,-12.16 -48.3,-2.66 -96.59,-5.5 -145,-5.42 -37.25,0.06 -74.38,1.74 -111.2,7.81 -25.38,4.18 -50.360003,9.94 -73.960003,20.56 -8.16,3.67 -16.17,7.74 -22.47,14.29 -4.82,5 -4.49,7.78 1.51,11.42 3.79,2.29 7.96,4.03 12.1,5.64 12.17,4.73 24.8,7.99 37.570003,10.47 37.97,7.37 76.04,14.26 113.99,21.73 17.88,3.52 35.57,8.02 52.22,15.78 5.07,2.36 10.19,4.81 13.55,9.5 3.5,4.87 1.54,9.65 -4.3,10.82 -1.79,0.36 -3.7,0.15 -5.56,0.12 q -9.58,-0.15 -11.48,8.85 c -7.4,34.94 -14.23,69.98 -19.72,105.28 -10.27,65.96 -15.8,132.25 -13.48,199.04 0.72,20.82 2.67,41.56 7.84,61.88 6.55,25.74 21.64,44.44 45.39,56.28 16.1,8.03 33.06,13.49 50.65,16.9 67.43,13.09 134.72,11.52 201.64,-3.28 37.79,-8.36 73.08,-22.88 104.05,-46.69 27.36,-21.04 46.72,-47.69 56.18,-81.13 z"
     id="path14" />
  <path
     class="cls-6"
     d="m 312.89778,156.31603 c 2.25,-27.9 6.68,-53.94 15.1,-78.829996 2.66,-7.86 5.72,-15.5 10.44,-21.77 7.85,-10.44 16.9,-10.82 24.93,-1.1 4.11,4.98 7.01,11.14 9.67,17.47 6.22,14.8 11.02,30.409996 14.79,46.539996 3.58,15.33 6.77,30.82 10.09,46.25 0.58,2.7 1.01,5.46 1.41,8.22 4.15,28.45 -4.69,48.02 -26.15,58.04 -6.33,2.95 -12.85,4.44 -19.47,4.67 -17.92,0.63 -31.78,-12.01 -37.51,-34.09 -3.92,-15.1 -3.76,-30.83 -3.3,-45.39 z"
     id="path16" />
  <path
     class="cls-6"
     d="m 669.64778,142.22603 c -3.99,28.89 -11.15,59.55 -22.79,89.08 -3.01,7.63 -6.61,14.97 -11.95,21.28 -8.28,9.76 -18.41,13.07 -30.92,9.2 -26.76,-8.27 -42.97,-33.29 -36.96,-60.43 6.33,-28.55 54.56,-82.83 60.46,-87.91 5.08,-4.38 10.62,-8.22 17.03,-10.41 12.05,-4.109996 21.56,1.04 24.74,13.38 1.98,7.68 1.1,15.51 0.39,25.81 z"
     id="path18" />
  <path
     class="cls-6"
     d="m 386.71778,721.33603 c 42.15,3.21 83.05,-3.67 123.45,-14.88 4.64,-1.29 9.37,-2.33 14.12,-3.05 2.6,-0.39 5.44,0.26 6.38,3.28 0.91,2.94 -1.02,4.97 -3.19,6.52 -1.8,1.29 -3.79,2.36 -5.78,3.33 -44.7,21.66 -91.4,30.7 -140.87,22.21 -6.98,-1.2 -13.85,-2.79 -20.47,-5.33 -2.42,-0.93 -4.88,-1.9 -7.08,-3.25 -3.16,-1.95 -6.83,-4.14 -5.13,-8.69 1.44,-3.86 5.2,-3.6 8.6,-3.31 1.85,0.16 3.69,0.48 5.54,0.67 8.14,0.84 16.28,1.66 24.42,2.49 z"
     id="path20" />
  <g
     class="cls-7"
     clip-path="url(#clippath)"
     id="g30"
     transform="translate(-44.972223,-89.883966)">
    <rect
       class="cls-4"
       x="140.71001"
       y="150.49001"
       width="1575.33"
       height="924.28998"
       transform="rotate(2.97,927.01816,611.71498)"
       id="rect22" />
    <path
       class="cls-6"
       d="m 287.6,546.81 c -1.26,13.28 1.51,27.17 9.1,38.15 7.59,10.97 20.26,18.67 33.6,18.87 16.59,0.26 32.2,-11.38 38.43,-26.76 6.23,-15.38 3.64,-33.56 -4.99,-47.73 -7.52,-12.33 -28.2,-33.59 -44.5,-31.51 -19.01,2.42 -30.12,33.02 -31.64,48.99 z"
       id="path24" />
    <path
       class="cls-6"
       d="m 605.71,531.8 c -3.74,-12.81 -11.45,-24.69 -22.56,-32.08 -11.11,-7.39 -25.73,-9.85 -38.2,-5.11 -15.51,5.89 -25.72,22.48 -25.81,39.07 -0.1,16.59 9.02,32.53 22.28,42.5 11.54,8.68 38.62,20.79 53,12.83 16.76,-9.28 15.78,-41.82 11.29,-57.21 z"
       id="path26" />
    <path
       class="cls-6"
       d="m 444.89,379.55 c -3.52,12.87 -3.16,27.03 2.44,39.14 5.6,12.11 16.77,21.86 29.88,24.34 16.3,3.09 33.68,-5.71 42.44,-19.79 8.76,-14.09 9.33,-32.45 3.25,-47.88 -5.3,-13.44 -22.03,-37.92 -38.45,-38.66 -19.14,-0.86 -35.33,27.38 -39.56,42.85 z"
       id="path28" />
  </g>
  <g
     class="cls-3"
     clip-path="url(#clippath-1)"
     id="g40"
     transform="translate(-44.972223,-89.883966)">
    <rect
       class="cls-4"
       x="140.71001"
       y="150.49001"
       width="1575.33"
       height="924.28998"
       transform="rotate(2.97,927.01816,611.71498)"
       id="rect32" />
    <path
       class="cls-6"
       d="m 287.6,546.81 c -1.26,13.28 1.51,27.17 9.1,38.15 7.59,10.97 20.26,18.67 33.6,18.87 16.59,0.26 32.2,-11.38 38.43,-26.76 6.23,-15.38 3.64,-33.56 -4.99,-47.73 -7.52,-12.33 -28.2,-33.59 -44.5,-31.51 -19.01,2.42 -30.12,33.02 -31.64,48.99 z"
       id="path34" />
    <path
       class="cls-6"
       d="m 605.71,531.8 c -3.74,-12.81 -11.45,-24.69 -22.56,-32.08 -11.11,-7.39 -25.73,-9.85 -38.2,-5.11 -15.51,5.89 -25.72,22.48 -25.81,39.07 -0.1,16.59 9.02,32.53 22.28,42.5 11.54,8.68 38.62,20.79 53,12.83 16.76,-9.28 15.78,-41.82 11.29,-57.21 z"
       id="path36" />
    <path
       class="cls-6"
       d="m 444.89,379.55 c -3.52,12.87 -3.16,27.03 2.44,39.14 5.6,12.11 16.77,21.86 29.88,24.34 16.3,3.09 33.68,-5.71 42.44,-19.79 8.76,-14.09 9.33,-32.45 3.25,-47.88 -5.3,-13.44 -22.03,-37.92 -38.45,-38.66 -19.14,-0.86 -35.33,27.38 -39.56,42.85 z"
       id="path38" />
  </g>
</svg>
