<?xml version="1.0" encoding="UTF-8" standalone="no"?>
<svg
   id="Paleta"
   viewBox="0 0 1805.1125 176.25732"
   version="1.1"
   width="1805.1125"
   height="176.25732"
   xmlns="http://www.w3.org/2000/svg"
   xmlns:svg="http://www.w3.org/2000/svg">
  <defs
     id="defs4">
    <style
       id="style2">.cls-1{fill:#ede9e2;}.cls-2{fill:#3a3736;}</style>
  </defs>
  <path
     class="cls-1"
     d="m 32.532566,3.0400886 c 7.9,3.11 15.24,8.4000004 21.91,14.7600004 4.91,4.68 9.63,10.2 12.07,17.49 2.44,7.28 2.06,16.68 -2.29,22.23 -3.31,4.22 -8.18,5.49 -12.79,5.78 -12.1,0.77 -24.62,-4.29 -33.36,-15.28 -6.19,-7.78 -10.2300004,-18.61 -10.9100004,-29.84 -0.54,-8.8000004 0.31,-17.29000036 8.1100004,-18.05000036 5.76,-0.56 11.76,0.74 17.27,2.89999996 z"
     id="path6" />
  <path
     class="cls-1"
     d="m 118.40257,109.27009 c 2.44,-5.59 4.77,-11.290001 5.72,-17.310001 0.95,-6.02 0.41,-12.46 -2.62,-17.74 -4.11,-7.16 -12.64,-11.35 -20.87,-10.79 -8.240004,0.56 -15.900004,5.58 -20.240004,12.61 -4.33,7.03 -5.42,15.84 -3.55,23.88 1.93,8.260001 9.76,22.590001 17.58,26.760001 11.410004,6.08 20.340004,-9.09 23.970004,-17.4 z"
     id="path8" />
  <path
     class="cls-1"
     d="m 166.88257,3.0400886 c -7.9,3.11 -15.24,8.4000004 -21.91,14.7600004 -4.91,4.68 -9.63,10.2 -12.07,17.49 -2.44,7.28 -2.06,16.68 2.29,22.23 3.31,4.22 8.18,5.49 12.79,5.78 12.1,0.77 24.62,-4.29 33.36,-15.28 6.19,-7.78 10.23,-18.61 10.91,-29.84 0.54,-8.8000004 -0.31,-17.29000036 -8.11,-18.05000036 -5.76,-0.56 -11.76,0.74 -17.27,2.89999996 z"
     id="path10" />
  <path
     class="cls-1"
     d="m 176.24257,127.50009 c 8.74,2.68 17.04,8.18 21.02,16.86 3.98,8.68 2.47,20.79 -4.99,26.98 -5.14,4.26 -11.94,5.09 -18.27,4.89 -14.68,-0.47 -28.97,-5.73 -40.5,-14.9 -4.85,-3.85 -9.66,-9.65 -9.09,-16.82 0.55,-6.99 7.63,-10.66 12.94,-13.3 12.23,-6.07 26.31,-7.58 38.89,-3.72 z"
     id="path12" />
  <path
     class="cls-1"
     d="m 23.162566,127.50009 c -8.74,2.68 -17.0400004,8.18 -21.0200004,16.86 -3.98,8.68 -2.47,20.79 4.99,26.98 5.1400004,4.26 11.9400004,5.09 18.2700004,4.89 14.68,-0.47 28.97,-5.73 40.5,-14.9 4.85,-3.85 9.66,-9.65 9.09,-16.82 -0.55,-6.99 -7.63,-10.66 -12.94,-13.3 -12.23,-6.07 -26.31,-7.58 -38.89,-3.72 z"
     id="path14" />
  <path
     class="cls-2"
     d="M 496.01257,10.570089 V 165.69009 c 0,5.38 -4.36,9.74 -9.74,9.74 h -58.08 c -5.38,0 -9.74,-4.36 -9.74,-9.74 v -15.44 c 0,-5.38 -4.36,-9.74 -9.74,-9.74 v 0 c -5.38,0 -9.74,4.36 -9.74,9.74 v 15.44 c 0,5.38 -4.36,9.74 -9.74,9.74 h -58.08 c -5.38,0 -9.74,-4.36 -9.74,-9.74 V 10.570089 c 0,-5.3800004 4.36,-9.74000036 9.74,-9.74000036 h 58.08 c 5.38,0 9.74,4.35999996 9.74,9.74000036 v 67.82 c 0,5.38 4.36,9.74 9.74,9.74 v 0 c 5.38,0 9.74,-4.36 9.74,-9.74 v -67.82 c 0,-5.3800004 4.36,-9.74000036 9.74,-9.74000036 h 58.08 c 5.38,0 9.74,4.35999996 9.74,9.74000036 z"
     id="path16" />
  <path
     class="cls-2"
     d="m 643.40257,0.83008864 h -96.69 c -2.65,0 -5.18,1.07999996 -7.02,2.98999996 l -0.23,0.24 c -19.57,20.3400004 -30.51,47.4600004 -30.51,75.6900004 v 85.950001 c 0,5.38 4.36,9.74 9.74,9.74 h 54.81 c 5.38,0 9.74,-4.36 9.74,-9.74 v -15.44 c 0,-5.38 4.36,-9.74 9.74,-9.74 h 6.53 c 5.38,0 9.74,4.36 9.74,9.74 v 15.44 c 0,5.38 4.36,9.74 9.74,9.74 h 54.81 c 5.38,0 9.74,-4.36 9.74,-9.74 V 82.150089 c 0,-29.64 -12.06,-58.01 -33.4,-78.5800004 v 0 c -1.82,-1.75 -4.24,-2.72999996 -6.76,-2.72999996 z m -43.88,87.30000036 h -6.53 c -5.38,0 -9.74,-4.36 -9.74,-9.74 v -15.44 c 0,-5.38 4.36,-9.74 9.74,-9.74 h 6.53 c 5.38,0 9.74,4.36 9.74,9.74 v 15.44 c 0,5.38 -4.36,9.74 -9.74,9.74 z"
     id="path18" />
  <path
     class="cls-2"
     d="m 843.07257,93.720089 v 0 c -3.8,3.8 -3.8,9.970001 0,13.770001 l 25.18,25.18 c 1.83,1.83 2.85,4.3 2.85,6.89 v 26.12 c 0,5.38 -4.36,9.74 -9.74,9.74 h -52.26 c -6.76,0 -12.29,-5.53 -12.29,-12.29 v -12.89 c 0,-5.38 -4.36,-9.74 -9.74,-9.74 h -6.53 c -5.38,0 -9.74,4.36 -9.74,9.74 v 15.44 c 0,5.38 -4.36,9.74 -9.74,9.74 h -54.81 c -5.38,0 -9.74,-4.36 -9.74,-9.74 V 10.570089 c 0,-5.3800004 4.36,-9.74000036 9.74,-9.74000036 h 54.81 c 5.38,0 9.74,4.35999996 9.74,9.74000036 v 67.82 c 0,5.38 4.36,9.74 9.74,9.74 h 6.53 c 5.38,0 9.74,-4.36 9.74,-9.74 v -67.82 c 0,-5.3800004 4.36,-9.74000036 9.74,-9.74000036 h 54.81 c 5.38,0 9.74,4.35999996 9.74,9.74000036 v 15.48 c 0,25.38 -10.08,49.73 -28.03,67.68 z"
     id="path20" />
  <path
     class="cls-2"
     d="m 1056.0426,10.570089 v 83.55 c 0,29.640001 -12.06,58.010001 -33.4,78.580001 v 0 c -1.82,1.75 -4.24,2.73 -6.76,2.73 h -96.69003 c -2.65,0 -5.18,-1.08 -7.02,-2.99 l -0.23,-0.24 c -19.57,-20.34 -30.51,-47.46 -30.51,-75.690001 v -85.95 c 0,-5.3800004 4.36,-9.74000036 9.74,-9.74000036 h 57.37 c 3.97,0 7.19,3.21999996 7.19,7.18999996 V 78.380089 c 0,5.38 4.36,9.74 9.74,9.74 h 6.53 c 5.38,0 9.74,-4.36 9.74,-9.74 v -67.82 c 0,-5.3800004 4.36,-9.74000036 9.74,-9.74000036 h 54.81003 c 5.38,0 9.74,4.35999996 9.74,9.74000036 z"
     id="path22" />
  <path
     class="cls-2"
     d="m 1392.4726,0.83008864 h -96.69 c -2.65,0 -5.18,1.07999996 -7.02,2.98999996 l -0.23,0.24 c -19.57,20.3400004 -30.51,47.4600004 -30.51,75.6900004 v 85.950001 c 0,5.38 4.36,9.74 9.74,9.74 h 54.81 c 5.38,0 9.74,-4.36 9.74,-9.74 v -15.44 c 0,-5.38 4.36,-9.74 9.74,-9.74 h 6.53 c 5.38,0 9.74,4.36 9.74,9.74 v 15.44 c 0,5.38 4.36,9.74 9.74,9.74 h 54.81 c 5.38,0 9.74,-4.36 9.74,-9.74 V 82.150089 c 0,-29.64 -12.06,-58.01 -33.4,-78.5800004 v 0 c -1.82,-1.75 -4.24,-2.72999996 -6.76,-2.72999996 z m -43.88,87.30000036 h -6.53 c -5.38,0 -9.74,-4.36 -9.74,-9.74 v -15.44 c 0,-5.38 4.36,-9.74 9.74,-9.74 h 6.53 c 5.38,0 9.74,4.36 9.74,9.74 v 15.44 c 0,5.38 -4.36,9.74 -9.74,9.74 z"
     id="path24" />
  <path
     class="cls-2"
     d="m 1592.1426,93.730089 v 0 c -3.8,3.8 -3.8,9.970001 0,13.770001 l 25.18,25.18 c 1.83,1.83 2.85,4.3 2.85,6.89 v 26.12 c 0,5.38 -4.36,9.74 -9.74,9.74 h -52.26 c -6.76,0 -12.29,-5.53 -12.29,-12.29 v -12.89 c 0,-5.38 -4.36,-9.74 -9.74,-9.74 h -6.53 c -5.38,0 -9.74,4.36 -9.74,9.74 v 15.44 c 0,5.38 -4.36,9.74 -9.74,9.74 h -54.81 c -5.38,0 -9.74,-4.36 -9.74,-9.74 V 10.570089 c 0,-5.3800004 4.36,-9.74000036 9.74,-9.74000036 h 54.81 c 5.38,0 9.74,4.35999996 9.74,9.74000036 v 67.82 c 0,5.38 4.36,9.74 9.74,9.74 h 6.53 c 5.38,0 9.74,-4.36 9.74,-9.74 v -67.82 c 0,-5.3800004 4.36,-9.74000036 9.74,-9.74000036 h 54.81 c 5.38,0 9.74,4.35999996 9.74,9.74000036 v 15.48 c 0,25.38 -10.08,49.73 -28.03,67.68 z"
     id="path26" />
  <path
     class="cls-2"
     d="m 1805.1126,10.570089 v 83.55 c 0,29.640001 -12.06,58.010001 -33.4,78.580001 v 0 c -1.82,1.75 -4.24,2.73 -6.76,2.73 h -96.69 c -2.65,0 -5.18,-1.08 -7.02,-2.99 l -0.23,-0.24 c -19.57,-20.34 -30.51,-47.46 -30.51,-75.690001 v -85.95 c 0,-5.3800004 4.36,-9.74000036 9.74,-9.74000036 h 54.81 c 5.38,0 9.74,4.35999996 9.74,9.74000036 v 67.82 c 0,5.38 4.36,9.74 9.74,9.74 h 6.53 c 5.38,0 9.74,-4.36 9.74,-9.74 v -67.82 c 0,-5.3800004 4.36,-9.74000036 9.74,-9.74000036 h 54.81 c 5.38,0 9.74,4.35999996 9.74,9.74000036 z"
     id="path28" />
  <path
     class="cls-2"
     d="m 1235.3426,0.83008864 h -155.12 c -5.38,0 -9.74,4.35999996 -9.74,9.74000036 v 50.36 c 0,5.38 4.36,9.74 9.74,9.74 h 45.44 c 6.96,0 11.68,7.09 8.98,13.51 v 0 c -8.41,20.010001 -12.74,41.500001 -12.74,63.210001 v 18.3 c 0,5.38 4.36,9.74 9.74,9.74 h 52.29 c 5.38,0 9.74,-4.36 9.74,-9.74 v -18.3 c 0,-21.71 -4.33,-43.2 -12.74,-63.210001 v 0 c -2.7,-6.42 2.02,-13.51 8.98,-13.51 h 45.44 c 5.38,0 9.74,-4.36 9.74,-9.74 v -50.36 c 0,-5.3800004 -4.36,-9.74000036 -9.74,-9.74000036 z"
     id="path30" />
</svg>
