<?xml version="1.0" encoding="UTF-8" standalone="no"?>
<svg
   id="Paleta"
   viewBox="0 0 631.57184 672.92957"
   version="1.1"
   width="631.57184"
   height="672.92957"
   xmlns="http://www.w3.org/2000/svg"
   xmlns:svg="http://www.w3.org/2000/svg">
  <defs
     id="defs4">
    <style
       id="style2">.cls-1{fill:#ff791f;}.cls-2{fill:#3a3736;}</style>
  </defs>
  <path
     class="cls-2"
     d="m 465.69936,0.1412508 c 6.4,-0.46 12.71,0.24 18.95,1.57 15.82,3.37 24.73,13.8200002 25.72,30.0000002 0.44,7.22 -1.04,14.24 -2.07,21.31 -0.97,6.61 -0.21,7.62 6.37,7.24 6.33,-0.37 12.61,-1.58 18.97,-0.07 2.86,0.68 5.67,1.33 8.14,3 6.12,4.15 7.73,10.93 4.14,17.38 -1.86,3.33 -4.48,5.95 -7.83,7.71 -13.34,7.01 -27.59,9.53 -42.36,6.83 -15.08,-2.76 -23.36,-15.23 -21.21,-30.39 0.97,-6.86 3.07,-13.41 5.08,-20 1.23,-4.05 2.48,-8.14 3.14,-12.3 1.13,-7.07 -0.38,-9.77 -7.05,-12.24 -5.45,-2.02 -11.14,-3.39 -16.72,-5.09 -2.02,-0.62 -4.1,-1.18 -5.98,-2.11 -3,-1.48 -5.42,-3.6800002 -4.66,-7.4400002 0.74,-3.68 3.68,-5.09 7.04,-5.33 3.42,-0.25 6.88,-0.06 10.32,-0.06 z"
     id="path6" />
  <path
     class="cls-2"
     d="m 408.51936,71.111251 c -5.75,0.09 -10.67,2.14 -15.74,3.25 -5.43,1.2 -10.79,2.72 -16.42,2.7 -2.12,0 -4.26,0.08 -6.22,-0.91 -3.38,-1.7 -4.11,-5.16 -1.42,-7.79 1.29,-1.26 2.99,-2.23 4.68,-2.9 11.31,-4.53 22.64,-9 34.53,-11.84 1.03,-0.25 2.06,-0.51 3.1,-0.68 13.89,-2.24 20.97,6.08 16.25,19.26 -1.7,4.73 -3.92,9.27 -5.82,13.92 -1.1,2.69 -2.28,5.38 -3.04,8.18 -0.95,3.47 0.02,4.58 3.54,3.82 4.91,-1.05 9.73,-2.56 14.59,-3.83 4.1,-1.07 8.19,-2.15 12.32,-3.11 2.34,-0.55 4.75,-0.58 7.07,0.2 5.31,1.79 6.89,6.94 3.48,11.399999 -2.01,2.63 -4.88,4.01 -7.89,5.13 -10.46,3.89 -21.17,6.85 -32.27,8.16 -12.99,1.53 -20.93,-6.99 -18.51,-19.799999 1.09,-5.74 3.28,-11.16 5.38,-16.6 0.93,-2.42 2.66,-4.61 2.39,-8.55 z"
     id="path8" />
  <path
     class="cls-2"
     d="m 355.58936,151.49125 c 5.43,-3.18 8.92,-7.22 12.94,-10.61 3.21,-2.7 6.46,-6.14 11.18,-3.41 3.08,1.78 2.68,6.54 -0.76,12.22 -3.75,6.2 -8.62,11.41 -14.63,15.44 -11.54,7.74 -21.17,3.54 -23.76,-10.24 -0.94,-5.02 -0.37,-9.99 0.08,-15.01 0.33,-3.75 2.49,-8.95 -1.49,-10.88 -3.33,-1.61 -6.35,2.92 -9.1,5.21 -2.82,2.35 -5.14,5.31 -7.63,8.04 -1.9,2.07 -3.99,3.8 -6.87,2.11 -2.75,-1.61 -2.68,-4.26 -1.95,-7.02 2.33,-8.83 16.89,-21.46 26.01,-22.52 6.41,-0.75 11.47,2.93 13.12,10.02 1.2,5.15 1.56,10.45 1.56,15.77 0,3.35 -0.48,6.8 1.3,10.88 z"
     id="path10" />
  <path
     class="cls-1"
     d="m 488.11936,573.38125 c 3.5,-10.47 6.02,-21.19 7.64,-32.12 6.87,-46.32 8.72,-92.95 8.85,-139.69 0,-3.45 1.34,-7.41 -0.64,-10.24 -2.65,-3.77 -7,-0.07 -10.5,-1 -0.27,-0.07 -0.58,-0.02 -0.87,-0.04 -5.94,-0.44 -9.48,-3.04 -10.29,-7.56 -0.72,-4.01 1.52,-7.97 6.09,-10.57 4.12,-2.34 8.75,-3.13 13.33,-3.74 13.22,-1.76 26.46,-3.34 39.7,-4.95 20.72,-2.52 41.51,-4.61 61.84,-9.57 7.91,-1.93 15.76,-4.13 22.51,-8.92 6.21,-4.4 7.31,-9.04 3.86,-15.83 -2.94,-5.8 -7.49,-10.28 -12.41,-14.41 -9.62,-8.08 -20.4,-14.39 -31.73,-19.63 -60.82,-28.13 -123.88,-49.22 -190.21,-59.91 -38.68,-6.23 -77.57,-10.75 -116.51,-14.98 -37.52,-3.84 -75.02,-7.83 -112.72,-9.55 -29.01,-1.32 -57.99,-1.37 -86.879997,2 -19.92,2.33 -39.58,5.89 -58.35,13.29 -6.49,2.56 -12.8700001,5.44 -18.0200001,10.3 -3.94,3.72 -3.77999999,5.89 0.76,8.95 2.86,1.93 6.05,3.43 9.2200001,4.83 9.3,4.13 19.02,7.13 28.88,9.53 29.3,7.13 58.689997,13.89 87.969997,21.11 13.8,3.4 27.4,7.55 40.08,14.21 3.86,2.03 7.75,4.12 10.21,7.9 2.55,3.92 0.85,7.57 -3.75,8.27 -1.41,0.21 -2.89,-0.02 -4.33,-0.11 q -7.45,-0.47 -9.26,6.47 c -7.04,26.94 -13.65,53.97 -19.23,81.26 -10.42,50.99 -17.16,102.41 -17.81,154.51 -0.2,16.24 0.55,32.46 3.83,48.48 4.15,20.29 15.22,35.4 33.28,45.5 12.24,6.84 25.25,11.72 38.82,15.02 52.03,12.67 104.49,13.92 157.15,4.85 29.74,-5.12 57.75,-15.14 82.74,-32.54 22.08,-15.38 38.13,-35.42 46.73,-61.11 z"
     id="path12" />
  <path
     class="cls-2"
     d="m 209.61936,187.39125 c 2.78,-21.64 7.18,-41.76 14.65,-60.83 2.36,-6.02 5.02,-11.86 8.93,-16.57 6.5,-7.84 13.56,-7.81 19.46,0.06 3.02,4.03 5.05,8.93 6.89,13.96 4.3,11.75 7.46,24.09 9.81,36.78 2.23,12.07 4.14,24.25 6.16,36.39 0.35,2.12 0.58,4.29 0.8,6.45 2.19,22.31 -5.42,37.23 -22.5,44.24 -5.03,2.07 -10.17,2.99 -15.34,2.92 -13.98,-0.17 -24.31,-10.52 -27.96,-27.93 -2.5,-11.9 -1.8,-24.14 -0.9,-35.47 z"
     id="path14" />
  <path
     class="cls-2"
     d="m 487.95936,189.53125 c -4.17,22.35 -10.87,45.96 -21.02,68.54 -2.62,5.83 -5.69,11.42 -10.09,16.13 -6.8,7.3 -14.82,9.5 -24.42,6.03 -20.53,-7.42 -32.24,-27.5 -26.56,-48.42 5.97,-22 45.53,-62.5 50.31,-66.24 4.12,-3.22 8.57,-6.02 13.64,-7.48 9.53,-2.76 16.75,1.6 18.78,11.33 1.26,6.06 0.29,12.12 -0.64,20.12 z"
     id="path16" />
  <path
     class="cls-2"
     d="m 387.63936,457.44125 c -16.34,-1.87 -30.41,-6.66 -41.97,-17.43 -2.77,-2.58 -5.07,-5.47 -5.79,-9.27 -0.96,-5.04 2.23,-7.73 7.04,-5.96 1.32,0.49 2.49,1.37 3.73,2.06 26.56,14.77 52.99,16.05 79.31,-0.69 2.63,-1.67 5.46,-3.17 8.4,-4.15 5.02,-1.67 10.18,0.38 12.64,4.54 2.27,3.84 1.66,8.85 -1.8,12.63 -1.32,1.45 -2.97,2.68 -4.65,3.72 -17.73,11.03 -36.95,16.1 -56.91,14.53 z"
     id="path18" />
  <path
     class="cls-2"
     d="m 310.10936,377.07125 c -17.57,-1.86 -31.47,-18.9 -29.86,-36.65 0.13,-1.41 0.36,-2.85 0.84,-4.17 1.19,-3.24 2.52,-6.9 6.54,-7.03 4.49,-0.14 4.98,3.96 5.84,7.21 1.17,4.44 2.72,8.7 5.44,12.44 6.15,8.41 16.58,9.83 24.74,3.32 4.58,-3.65 7.33,-8.56 9.58,-13.89 3.42,-8.13 8.23,-11.12 13.98,-9.09 6.17,2.18 8.46,8.47 5.57,16.48 -4.41,12.19 -11.78,22.02 -23.63,27.97 -6,3.02 -12.35,4.21 -19.04,3.4 z"
     id="path20" />
  <path
     class="cls-2"
     d="m 205.17936,452.94125 c -23.94,-3.86 -43.52,-11.74 -53.31,-28.57 -2.74,-4.7 -4.29,-9.55 -1.69,-14.24 1.53,-2.76 4.6,-4.64 9.43,-4.1 3.82,0.43 5.27,2.55 6.47,4.91 9.22,18.2 27.7,25.99 54.62,23.1 8.16,-0.88 15.67,-2.91 23.08,-5.14 3.68,-1.11 7.47,-2.14 11.39,-2.81 5.72,-0.97 10.8,0.27 14.18,4.01 3.14,3.47 1.86,6.68 -1.16,9.52 -3.86,3.62 -9.18,6.14 -14.97,8.1 -14.85,5.02 -31.12,6.04 -48.03,5.22 z"
     id="path22" />
  <path
     class="cls-2"
     d="m 334.12936,612.05125 c 4.15,0.89 8.38,1.51 12.43,2.74 5.5,1.66 8.13,5.89 7.3,10.84 -0.79,4.78 -5.01,8.07 -10.5,8 -1.68,-0.02 -3.42,-0.27 -5.01,-0.79 -8.06,-2.64 -16.1,-5.35 -24.1,-8.18 -1.84,-0.65 -3.57,-1.72 -5.19,-2.84 -2.24,-1.55 -3.46,-3.73 -2.85,-6.58 0.6,-2.83 2.63,-4.27 5.24,-4.97 3.62,-0.97 7.33,-0.86 10.96,-0.29 3.91,0.62 7.76,1.61 11.63,2.44 0.03,-0.13 0.05,-0.25 0.08,-0.38 z"
     id="path24" />
</svg>
