<?xml version="1.0" encoding="UTF-8" standalone="no"?>
<svg
   id="Paleta"
   viewBox="0 0 122.27445 124.27418"
   version="1.1"
   width="122.27445"
   height="124.27418"
   xmlns="http://www.w3.org/2000/svg"
   xmlns:svg="http://www.w3.org/2000/svg">
  <defs
     id="defs4">
    <style
       id="style2">.cls-1{fill:#ff791f;}.cls-2{fill:#3a3736;}</style>
  </defs>
  <path
     class="cls-2"
     d="m 97.87612,42.224156 c 0,-5.59 -0.02,-11.19 0,-16.78 0.02,-4.44 0.47,-8.64 1.58,-12.33 2.44,-8.1299997 7.46,-8.1199997 9.88,0.02 1.27,4.27 1.74,9.13 1.48,14.21 -0.84,16.72 -0.5,33.52 -0.64,50.29 -0.09,10.9 -0.49,21.71 -1.44,32.390004 -0.3,3.38 -0.75,6.64 -1.71,9.35 -1.77,4.98 -4.16,4.79 -5.63,-0.69 -0.62,-2.32 -1.04,-5.1 -1.25,-7.79 -0.56,-7.34 -1.14,-14.710004 -1.36,-22.120004 -0.46,-15.49 -0.69,-31.02 -1.02,-46.53 0.03,0 0.06,0 0.1,-0.01 z"
     id="path6" />
  <path
     class="cls-2"
     d="m 16.12612,55.314156 c 0.68,-10.64 0.23,-23.53 1.5,-36.1 0.52,-5.19 1.04,-10.4199997 2.62,-14.7099997 1.12,-3.06 2.5,-5.40000005 4.48,-4.17000005 1.75,1.09000005 2.43,4.18000005 2.71,7.75000005 0.12,1.53 0.15,3.0999997 0.16,4.6599997 0.2,29.3 0.94,58.52 2.83,87.580004 0.12,1.84 0.21,3.74 0.13,5.57 -0.33,7.34 -2.63,12.7 -5.66,13.38 -2.83,0.63 -5.41,-3.21 -6.59,-9.92 -0.88,-5.01 -0.99,-10.360004 -1.39,-15.580004 -0.09,-1.22 -0.09,-2.48 -0.12,-3.73 -0.21,-10.9 -0.42,-21.79 -0.66,-34.73 z"
     id="path8" />
  <path
     class="cls-2"
     d="m 55.67612,82.784156 c 0.36,-22.36 0.8,-44.71 2.74,-66.83 0.3,-3.39 0.66,-6.7299997 1.53,-9.7699997 0.66,-2.27 1.54,-4.15 3.05,-3.75 1.27,0.34 1.9,2.2 2.27,4.36 0.2,1.17 0.35,2.4 0.45,3.6199997 2.5,28.5 4.31,57.18 5.73,85.95 0.23,4.630004 0.23,9.320004 -0.3,13.930004 -0.98,8.54 -3.82,13.99 -7.28,13.98 -3.47,-0.01 -6.07,-4.5 -7.35,-12.73 -0.56,-3.6 -0.82,-7.28 -0.83,-11.04 0,-0.930004 -0.02,-1.860004 -0.02,-2.800004 0,-4.97 0,-9.95 0,-14.92 z"
     id="path10" />
  <path
     class="cls-1"
     d="m 15.62612,77.134156 c -3.5,-0.34 -6.7099998,-0.47 -9.6499998,-1.93 -5.75999988,-2.87 -7.55,-8.43 -4.52,-14.03 4.56,-8.42 16.9099998,-13.6 26.0599998,-10.97 1.15,0.33 2.36,0.41 3.52,0.7 8.37,2.06 11.07,10.68 5.23,17.17 -4,4.44 -9.37,6.7 -15.03,8.22 -1.91,0.51 -3.94,0.6 -5.61,0.84 z"
     id="path12" />
  <path
     class="cls-1"
     d="m 57.75612,40.164156 c -5.21,-0.34 -9.24,-1.78 -11.36,-6.3 -2.24,-4.79 -0.8,-9.06 2.63,-12.6 5.08,-5.23 11.55,-7.82 18.71,-8.31 4.99,-0.34 8.78,2.5 11.55,6.35 2.5,3.46 1.85,7.99 -1.33,11.54 -5.53,6.18 -12.88,8.36 -20.22,9.32 z"
     id="path14" />
  <path
     class="cls-1"
     d="m 102.14612,103.37416 c -9.06,0.05 -14.58,-3.660004 -15.57,-9.460004 -1.03,-6.08 2.6,-11.32 9.5,-14.18 7.22,-2.99 14.26,-1.33 21.01,1.07 5.55,1.98 6.81,8.61 2.99,13.52 -4.88,6.270004 -11.68,8.730004 -17.93,9.050004 z"
     id="path16" />
</svg>
