<?xml version="1.0" encoding="UTF-8" standalone="no"?>
<svg
   id="Paleta"
   viewBox="0 0 304 299.26749"
   version="1.1"
   width="304"
   height="299.26749"
   xmlns="http://www.w3.org/2000/svg"
   xmlns:svg="http://www.w3.org/2000/svg">
  <defs
     id="defs4">
    <style
       id="style2">.cls-1{fill:#ede9e2;}.cls-2{fill:#ff791f;}</style>
  </defs>
  <path
     class="cls-1"
     d="m 235.955,156.915 c -44.88,-13.61 -80,-48.73 -93.61,-93.61 v 0 c -5.33,-17.58 -30.22,-17.58 -35.55,0 v 0 c -13.61,44.89 -48.73,80.01 -93.61,93.61 v 0 c -17.58,5.33 -17.58,30.22 0,35.55 v 0 c 44.88,13.61 80,48.73 93.61,93.61 v 0 c 5.33,17.59 30.22,17.59 35.55,0 v 0 c 13.61,-44.88 48.73,-80.01 93.61,-93.61 v 0 c 17.58,-5.33 17.58,-30.22 0,-35.55 z"
     id="path6" />
  <path
     class="cls-1"
     d="m 294.505,47.155 c -18.06,-5.47 -32.18,-19.6 -37.66,-37.66 v 0 c -3.84,-12.66 -21.76,-12.66 -25.59,0 v 0 c -5.47,18.06 -19.6,32.19 -37.66,37.66 v 0 c -12.66,3.84 -12.66,21.76 0,25.59 v 0 c 18.06,5.47 32.18,19.6 37.66,37.66 v 0 c 3.84,12.66 21.76,12.66 25.59,0 v 0 c 5.47,-18.06 19.6,-32.19 37.66,-37.66 v 0 c 12.66,-3.84 12.66,-21.76 0,-25.59 z"
     id="path8" />
  <path
     class="cls-2"
     d="m 99.925,146.295 -17.05,44.78 c -0.98,2.57 0.92,5.32 3.66,5.32 h 6.58 c 1.68,0 3.18,-1.07 3.72,-2.67 l 1.19,-3.53 c 0.54,-1.59 2.03,-2.67 3.72,-2.67 h 12.9 c 1.69,0 3.2,1.09 3.72,2.7 l 1.14,3.48 c 0.53,1.61 2.03,2.7 3.72,2.7 h 6.87 c 2.74,0 4.63,-2.74 3.67,-5.3 l -16.86,-44.78 c -0.58,-1.53 -2.04,-2.54 -3.67,-2.54 h -9.66 c -1.63,0 -3.09,1.01 -3.66,2.53 z m 4.64,24.53 v 0 c 1.2,-3.57 6.26,-3.55 7.44,0.03 v 0 c 0.83,2.54 -1.05,5.15 -3.72,5.15 v 0 c -2.68,0 -4.57,-2.63 -3.72,-5.17 z"
     id="path10" />
  <rect
     class="cls-2"
     x="140.58499"
     y="143.765"
     width="14.78"
     height="52.630001"
     rx="3.9200001"
     ry="3.9200001"
     id="rect12" />
</svg>
