<?xml version="1.0" encoding="UTF-8" standalone="no"?>
<svg
   id="Paleta"
   viewBox="0 0 1000 1400"
   version="1.1"
   width="1000"
   height="1400"
   xmlns="http://www.w3.org/2000/svg"
   xmlns:svg="http://www.w3.org/2000/svg">
  <defs
     id="defs4">
    <style
       id="style2">.cls-1{fill:#ede9e2;}.cls-2{fill:#ede9e2;}.cls-3{fill:#ff791f;}.cls-4{fill:#3a3736;}</style>
  </defs>
  <rect
     class="cls-2"
     x="0"
     y="-1000"
     width="1400"
     height="1000"
     rx="41.790001"
     ry="41.790001"
     transform="rotate(90)"
     id="rect6" />
  <path
     class="cls-3"
     d="m 295.85,203.24 c 23.59,9.29 45.49,25.08 65.41,44.07 14.65,13.97 28.74,30.46 36.03,52.22 7.29,21.75 6.17,49.81 -6.83,66.36 -9.88,12.58 -24.44,16.39 -38.19,17.27 -36.11,2.3 -73.5,-12.8 -99.61,-45.61 -18.48,-23.22 -30.54,-55.57 -32.59,-89.1 -1.6,-26.29 0.93,-51.61 24.22,-53.88 17.2,-1.68 35.11,2.2 51.55,8.67 z"
     id="path8" />
  <path
     class="cls-3"
     d="m 552.22,520.4 c 7.29,-16.68 14.26,-33.71 17.09,-51.69 2.83,-17.98 1.22,-37.19 -7.83,-52.98 -12.26,-21.38 -37.73,-33.87 -62.32,-32.2 -24.59,1.67 -47.48,16.66 -60.42,37.64 -12.94,20.98 -16.2,47.28 -10.59,71.28 5.77,24.67 29.14,67.45 52.49,79.9 34.07,18.16 60.73,-27.13 71.57,-51.95 z"
     id="path10" />
  <path
     class="cls-3"
     d="m 696.95,203.24 c -23.59,9.29 -45.49,25.08 -65.41,44.07 -14.65,13.97 -28.74,30.46 -36.03,52.22 -7.29,21.75 -6.17,49.81 6.83,66.36 9.88,12.58 24.44,16.39 38.19,17.27 36.11,2.3 73.5,-12.8 99.61,-45.61 18.48,-23.22 30.54,-55.57 32.59,-89.1 1.6,-26.29 -0.93,-51.61 -24.22,-53.88 -17.2,-1.68 -35.11,2.2 -51.55,8.67 z"
     id="path12" />
  <path
     class="cls-3"
     d="m 724.92,574.82 c 26.08,8 50.87,24.43 62.77,50.33 11.89,25.91 7.37,62.08 -14.9,80.55 -15.34,12.71 -35.66,15.2 -54.55,14.6 -43.82,-1.41 -86.48,-17.11 -120.92,-44.48 -14.47,-11.5 -28.84,-28.8 -27.14,-50.2 1.66,-20.88 22.77,-31.82 38.64,-39.7 36.51,-18.13 78.56,-22.62 116.11,-11.1 z"
     id="path14" />
  <path
     class="cls-3"
     d="m 267.89,574.82 c -26.08,8 -50.87,24.43 -62.77,50.33 -11.89,25.91 -7.37,62.08 14.9,80.55 15.34,12.71 35.66,15.2 54.55,14.6 43.82,-1.41 86.48,-17.11 120.92,-44.48 14.47,-11.5 28.84,-28.8 27.14,-50.2 -1.66,-20.88 -22.77,-31.82 -38.64,-39.7 -36.51,-18.13 -78.56,-22.62 -116.11,-11.1 z"
     id="path16" />
  <path
     class="cls-4"
     d="m 274.93,908.79 v 178.32 c 0,6.18 -5.01,11.2 -11.2,11.2 h -66.77 c -6.18,0 -11.2,-5.01 -11.2,-11.2 v -17.75 c 0,-6.18 -5.01,-11.2 -11.2,-11.2 v 0 c -6.18,0 -11.2,5.01 -11.2,11.2 v 17.75 c 0,6.18 -5.01,11.2 -11.2,11.2 H 85.39 c -6.18,0 -11.2,-5.01 -11.2,-11.2 V 908.79 c 0,-6.18 5.01,-11.2 11.2,-11.2 h 66.77 c 6.18,0 11.2,5.01 11.2,11.2 v 77.96 c 0,6.18 5.01,11.2 11.2,11.2 v 0 c 6.18,0 11.2,-5.01 11.2,-11.2 v -77.96 c 0,-6.18 5.01,-11.2 11.2,-11.2 h 66.77 c 6.18,0 11.2,5.01 11.2,11.2 z"
     id="path18" />
  <path
     class="cls-4"
     d="M 444.37,897.6 H 333.22 c -3.04,0 -5.96,1.24 -8.07,3.43 l -0.26,0.27 c -22.5,23.38 -35.07,54.56 -35.07,87.01 v 98.8 c 0,6.18 5.01,11.2 11.2,11.2 h 63.01 c 6.18,0 11.2,-5.01 11.2,-11.2 v -17.75 c 0,-6.18 5.01,-11.2 11.2,-11.2 h 7.51 c 6.18,0 11.2,5.01 11.2,11.2 v 17.75 c 0,6.18 5.01,11.2 11.2,11.2 h 63.01 c 6.18,0 11.2,-5.01 11.2,-11.2 v -96.05 c 0,-34.07 -13.86,-66.68 -38.39,-90.33 v 0 c -2.09,-2.01 -4.87,-3.14 -7.77,-3.14 z m -50.44,100.35 h -7.51 c -6.18,0 -11.2,-5.01 -11.2,-11.2 V 969 c 0,-6.18 5.01,-11.2 11.2,-11.2 h 7.51 c 6.18,0 11.2,5.01 11.2,11.2 v 17.75 c 0,6.18 -5.01,11.2 -11.2,11.2 z"
     id="path20" />
  <path
     class="cls-4"
     d="m 673.9,1004.38 v 0 c -4.37,4.37 -4.37,11.46 0,15.83 l 28.95,28.95 c 2.1,2.1 3.28,4.95 3.28,7.92 v 30.03 c 0,6.18 -5.01,11.2 -11.2,11.2 h -60.08 c -7.77,0 -14.13,-6.36 -14.13,-14.13 v -14.81 c 0,-6.18 -5.01,-11.2 -11.2,-11.2 h -7.51 c -6.18,0 -11.2,5.01 -11.2,11.2 v 17.75 c 0,6.18 -5.01,11.2 -11.2,11.2 H 516.6 c -6.18,0 -11.2,-5.01 -11.2,-11.2 V 908.8 c 0,-6.18 5.01,-11.2 11.2,-11.2 h 63.01 c 6.18,0 11.2,5.01 11.2,11.2 v 77.96 c 0,6.18 5.01,11.2 11.2,11.2 h 7.51 c 6.18,0 11.2,-5.01 11.2,-11.2 V 908.8 c 0,-6.18 5.01,-11.2 11.2,-11.2 h 63.01 c 6.18,0 11.2,5.01 11.2,11.2 v 17.79 c 0,29.18 -11.59,57.17 -32.23,77.8 z"
     id="path22" />
  <path
     class="cls-4"
     d="m 918.72,908.79 v 96.05 c 0,34.07 -13.86,66.68 -38.39,90.33 v 0 c -2.09,2.01 -4.87,3.14 -7.77,3.14 H 761.41 c -3.04,0 -5.96,-1.24 -8.07,-3.43 l -0.26,-0.27 c -22.5,-23.38 -35.07,-54.56 -35.07,-87.01 v -98.8 c 0,-6.18 5.01,-11.2 11.2,-11.2 h 65.95 c 4.56,0 8.26,3.7 8.26,8.26 v 80.9 c 0,6.18 5.01,11.2 11.2,11.2 h 7.51 c 6.18,0 11.2,-5.01 11.2,-11.2 V 908.8 c 0,-6.18 5.01,-11.2 11.2,-11.2 h 63.01 c 6.18,0 11.2,5.01 11.2,11.2 z"
     id="path24" />
  <path
     class="cls-4"
     d="M 444.37,1118.81 H 333.22 c -3.04,0 -5.96,1.24 -8.07,3.43 l -0.26,0.27 c -22.5,23.38 -35.07,54.56 -35.07,87.01 v 98.8 c 0,6.18 5.01,11.2 11.2,11.2 h 63.01 c 6.18,0 11.2,-5.01 11.2,-11.2 v -17.75 c 0,-6.18 5.01,-11.2 11.2,-11.2 h 7.51 c 6.18,0 11.2,5.01 11.2,11.2 v 17.75 c 0,6.18 5.01,11.2 11.2,11.2 h 63.01 c 6.18,0 11.2,-5.01 11.2,-11.2 v -96.05 c 0,-34.07 -13.86,-66.68 -38.39,-90.33 v 0 c -2.09,-2.01 -4.87,-3.14 -7.77,-3.14 z m -50.44,100.36 h -7.51 c -6.18,0 -11.2,-5.01 -11.2,-11.2 v -17.75 c 0,-6.18 5.01,-11.2 11.2,-11.2 h 7.51 c 6.18,0 11.2,5.01 11.2,11.2 v 17.75 c 0,6.18 -5.01,11.2 -11.2,11.2 z"
     id="path26" />
  <path
     class="cls-4"
     d="m 673.9,1225.6 v 0 c -4.37,4.37 -4.37,11.46 0,15.83 l 28.95,28.95 c 2.1,2.1 3.28,4.95 3.28,7.92 v 30.03 c 0,6.18 -5.01,11.2 -11.2,11.2 h -60.08 c -7.77,0 -14.13,-6.36 -14.13,-14.13 v -14.81 c 0,-6.18 -5.01,-11.2 -11.2,-11.2 h -7.51 c -6.18,0 -11.2,5.01 -11.2,11.2 v 17.75 c 0,6.18 -5.01,11.2 -11.2,11.2 H 516.6 c -6.18,0 -11.2,-5.01 -11.2,-11.2 v -178.32 c 0,-6.18 5.01,-11.2 11.2,-11.2 h 63.01 c 6.18,0 11.2,5.01 11.2,11.2 v 77.96 c 0,6.18 5.01,11.2 11.2,11.2 h 7.51 c 6.18,0 11.2,-5.01 11.2,-11.2 v -77.96 c 0,-6.18 5.01,-11.2 11.2,-11.2 h 63.01 c 6.18,0 11.2,5.01 11.2,11.2 v 17.79 c 0,29.18 -11.59,57.17 -32.23,77.8 z"
     id="path28" />
  <path
     class="cls-4"
     d="m 918.72,1130.01 v 96.05 c 0,34.07 -13.86,66.68 -38.39,90.33 v 0 c -2.09,2.01 -4.87,3.14 -7.77,3.14 H 761.41 c -3.04,0 -5.96,-1.24 -8.07,-3.43 l -0.26,-0.27 c -22.5,-23.38 -35.07,-54.56 -35.07,-87.01 v -98.8 c 0,-6.18 5.01,-11.2 11.2,-11.2 h 63.01 c 6.18,0 11.2,5.01 11.2,11.2 v 77.96 c 0,6.18 5.01,11.2 11.2,11.2 h 7.51 c 6.18,0 11.2,-5.01 11.2,-11.2 v -77.96 c 0,-6.18 5.01,-11.2 11.2,-11.2 h 63.01 c 6.18,0 11.2,5.01 11.2,11.2 z"
     id="path30" />
  <path
     class="cls-4"
     d="M 263.74,1118.81 H 85.42 c -6.18,0 -11.19,5.01 -11.19,11.2 v 57.89 c 0,6.18 5.01,11.2 11.2,11.2 h 52.24 c 8,0 13.42,8.16 10.32,15.53 v 0 c -9.67,23 -14.65,47.71 -14.65,72.66 v 21.03 c 0,6.18 5.01,11.2 11.2,11.2 h 60.11 c 6.18,0 11.2,-5.01 11.2,-11.2 v -21.03 c 0,-24.95 -4.98,-49.66 -14.65,-72.66 v 0 c -3.1,-7.38 2.32,-15.54 10.32,-15.54 h 52.24 c 6.18,0 11.2,-5.01 11.2,-11.2 V 1130 c 0,-6.18 -5.01,-11.2 -11.19,-11.2 z"
     id="path32" />
  <path
     class="cls-3"
     d="m 952.19,1289.18 c -20.35,-6.17 -36.27,-22.09 -42.44,-42.44 v 0 c -2.42,-7.97 -13.7,-7.97 -16.12,0 v 0 c -6.17,20.35 -22.09,36.28 -42.44,42.44 v 0 c -7.97,2.42 -7.97,13.7 0,16.12 v 0 c 20.35,6.17 36.27,22.09 42.44,42.44 v 0 c 2.42,7.97 13.7,7.97 16.12,0 v 0 c 6.17,-20.35 22.09,-36.27 42.44,-42.44 v 0 c 7.97,-2.42 7.97,-13.7 0,-16.12 z"
     id="path34" />
  <path
     class="cls-3"
     d="m 978.74,1239.42 c -8.19,-2.48 -14.59,-8.89 -17.07,-17.07 v 0 c -1.74,-5.74 -9.86,-5.74 -11.6,0 v 0 c -2.48,8.19 -8.89,14.59 -17.07,17.08 v 0 c -5.74,1.74 -5.74,9.86 0,11.6 v 0 c 8.19,2.48 14.59,8.89 17.07,17.07 v 0 c 1.74,5.74 9.86,5.74 11.6,0 v 0 c 2.48,-8.19 8.89,-14.59 17.07,-17.08 v 0 c 5.74,-1.74 5.74,-9.86 0,-11.6 z"
     id="path36" />
  <path
     class="cls-1"
     d="m 890.52,1284.37 -7.73,20.31 c -0.44,1.16 0.42,2.41 1.66,2.41 h 2.98 c 0.76,0 1.44,-0.49 1.68,-1.21 l 0.54,-1.6 c 0.24,-0.72 0.92,-1.21 1.68,-1.21 h 5.85 c 0.77,0 1.45,0.49 1.69,1.22 l 0.52,1.58 c 0.24,0.73 0.92,1.22 1.69,1.22 h 3.12 c 1.24,0 2.1,-1.24 1.66,-2.4 l -7.64,-20.31 c -0.26,-0.69 -0.92,-1.15 -1.66,-1.15 h -4.38 c -0.74,0 -1.4,0.46 -1.66,1.15 z m 2.1,11.12 v 0 c 0.55,-1.62 2.84,-1.61 3.37,0.01 v 0 c 0.38,1.15 -0.48,2.33 -1.69,2.33 v 0 c -1.22,0 -2.07,-1.19 -1.68,-2.35 z"
     id="path38" />
  <rect
     class="cls-1"
     x="908.95001"
     y="1283.22"
     width="6.6999998"
     height="23.860001"
     rx="1.78"
     ry="1.78"
     id="rect40" />
</svg>
